<svg width="228" height="160" viewBox="0 0 228 160" fill="none" xmlns="http://www.w3.org/2000/svg">
<g clip-path="url(#clip0_39_36560)">
<path d="M202.12 29.9431C208.856 29.9431 214.317 24.4826 214.317 17.7467C214.317 11.0108 208.856 5.55023 202.12 5.55023C195.384 5.55023 189.924 11.0108 189.924 17.7467C189.924 24.4826 195.384 29.9431 202.12 29.9431Z" fill="#FF6584" style="fill:#FF6584;fill:color(display-p3 1.0000 0.3961 0.5176);fill-opacity:1;"/>
<path d="M156.411 49.878L146.855 31.1152L156.441 47.5351L156.528 40.8192L149.961 27.256L156.552 39.0435L156.708 26.9656L149.569 16.1106L156.732 25.0663L157.253 3.01887L157.256 2.92731L157.256 3.02041L157.174 30.9946L165.055 19.6704L157.196 33.3667L157.507 46.8694L157.54 46.5124L166.628 34.5659L157.529 47.7764L157.568 49.4652L157.584 49.4918L157.572 49.6297L157.984 67.5013C157.39 67.5261 156.789 67.5362 156.182 67.5316L156.2 66.1413L147.908 52.4564L156.217 64.8121L156.411 49.878Z" fill="#3F3D56" style="fill:#3F3D56;fill:color(display-p3 0.2471 0.2392 0.3373);fill-opacity:1;"/>
<path d="M111.889 60.5983L102.333 41.8355L111.918 58.2554L112.005 51.5395L105.438 37.9763L112.029 49.7638L112.186 37.6859L105.047 26.8309L112.209 35.7866L112.731 13.7392L112.733 13.6476L112.734 13.7407L112.651 41.7149L120.533 30.3907L112.674 44.0869L112.985 57.5897L113.017 57.2327L122.105 45.2862L113.007 58.4967L113.046 60.1854L113.061 60.2121L113.05 60.3499L113.462 78.2216C112.867 78.2464 112.267 78.2565 111.66 78.2519L111.677 76.8616L103.386 63.1767L111.694 75.5324L111.889 60.5983Z" fill="#CBCBCB" style="fill:#CBCBCB;fill:color(display-p3 0.7961 0.7961 0.7961);fill-opacity:1;"/>
<path d="M194.728 46.9507L185.172 28.1879L194.757 44.6078L194.844 37.8919L188.277 24.3287L194.868 36.1162L195.024 24.0383L187.885 13.1833L195.048 22.139L195.57 0.0915672L195.572 0L195.572 0.0931069L195.49 28.0673L203.372 16.7431L195.513 30.4394L195.824 43.9421L195.856 43.5851L204.944 31.6386L195.845 44.8491L195.885 46.5378L195.9 46.5645L195.889 46.7024L196.301 64.574C195.706 64.5989 195.105 64.609 194.499 64.6043L194.516 63.214L186.225 49.5291L194.533 61.8848L194.728 46.9507Z" fill="#3F3D56" style="fill:#3F3D56;fill:color(display-p3 0.2471 0.2392 0.3373);fill-opacity:1;"/>
<path d="M30.2266 111.426C35.7929 107.323 41.6302 103.6 47.6986 100.285C64.6709 90.9192 85.5427 82.9112 109.271 76.7076C110.902 76.2799 112.546 75.8619 114.204 75.4534C117.724 74.582 121.304 73.7523 124.941 72.9643C125.84 72.7705 126.741 72.5774 127.644 72.3852C132.707 71.3209 137.87 70.3382 143.134 69.4372C143.24 69.418 143.345 69.4011 143.454 69.3843C144.689 69.1705 145.931 68.9639 147.178 68.7644C172.093 64.716 199.094 62.4887 227.303 62.4551C227.536 62.4527 227.772 62.4527 228.005 62.4527V160H-0.00585938C-0.00585938 142.314 10.9934 125.729 30.2266 111.426Z" fill="#F1F1F1" style="fill:#F1F1F1;fill:color(display-p3 0.9451 0.9451 0.9451);fill-opacity:1;"/>
<path d="M75.5307 122.552C85.247 115.328 97.6879 108.857 112.255 103.401C113.872 102.793 115.515 102.2 117.185 101.621C117.418 101.539 117.654 101.457 117.889 101.375C120.016 100.645 122.183 99.9339 124.391 99.2419C128.122 98.0759 131.959 96.9738 135.902 95.9359C138.724 95.1903 141.596 94.4799 144.518 93.8047C145.456 93.5853 146.399 93.3723 147.346 93.1656C149.498 92.6867 151.675 92.2286 153.878 91.7913C176.403 87.3032 201.52 84.7972 228.005 84.7972V160H52.2227C52.2227 146.365 60.704 133.578 75.5307 122.552Z" fill="#014DAB" style="fill:#014DAB;fill:color(display-p3 0.0039 0.3020 0.6706);fill-opacity:1;"/>
<path d="M70.9229 156.098L71.3577 156.305C72.834 153.248 74.6369 150.36 76.7348 147.691L76.3552 147.396C74.2366 150.093 72.4153 153.01 70.9229 156.098ZM83.2989 139.851L83.6281 140.202C85.9856 138.01 88.4642 135.952 91.0522 134.037C91.1964 133.929 91.3429 133.821 91.4895 133.713L91.2036 133.326C91.057 133.434 90.9105 133.542 90.7639 133.653C88.1621 135.578 85.6699 137.648 83.2989 139.851ZM99.7402 127.653L99.9876 128.064C102.789 126.373 105.795 124.71 108.918 123.122L108.7 122.692C105.567 124.287 102.551 125.957 99.7402 127.653ZM117.969 118.336L118.159 118.775C121.193 117.456 124.382 116.169 127.63 114.95L127.462 114.501C124.204 115.722 121.011 117.012 117.969 118.336ZM137.128 111.125L137.274 111.582C138.125 111.306 138.978 111.034 139.84 110.763C142.19 110.03 144.617 109.309 147.055 108.627L146.926 108.163C144.482 108.848 142.051 109.569 139.696 110.306C138.834 110.576 137.978 110.849 137.128 111.125ZM159.84 104.864C158.833 105.095 157.819 105.335 156.829 105.575L156.942 106.041C157.932 105.804 158.944 105.563 159.95 105.33C160.904 105.109 161.853 104.893 162.773 104.694C164.145 104.388 165.539 104.088 166.913 103.805L166.817 103.334C165.438 103.62 164.044 103.918 162.67 104.223C161.75 104.425 160.796 104.641 159.84 104.864ZM176.87 101.416L176.954 101.89C180.262 101.311 183.66 100.768 187.047 100.278L186.978 99.8018C183.585 100.294 180.185 100.837 176.87 101.416ZM197.129 98.478L197.184 98.9561C200.533 98.5669 203.955 98.2161 207.355 97.9109L207.311 97.4328C203.909 97.7379 200.483 98.0887 197.129 98.478ZM217.52 96.6567L217.549 97.1373C220.922 96.9234 224.358 96.7505 227.76 96.6231L227.743 96.1426C224.334 96.2723 220.896 96.4453 217.52 96.6567Z" fill="white" style="fill:white;fill-opacity:1;"/>
<path d="M121.323 133.799C142.553 118.011 182.379 107.382 228.005 107.382V160H105.014C105.014 150.461 110.948 141.514 121.323 133.799Z" fill="#F1F1F1" style="fill:#F1F1F1;fill:color(display-p3 0.9451 0.9451 0.9451);fill-opacity:1;"/>
<path opacity="0.2" d="M30.2266 111.426L75.5308 122.552L121.323 133.799L228.005 160H-0.00585938C-0.00585938 142.314 10.9934 125.729 30.2266 111.426Z" fill="black" style="fill:black;fill-opacity:1;"/>
<path d="M57.7651 101.353L56.2257 101.353L55.4932 95.4148H57.7653L57.7651 101.353Z" fill="#FFB7B7" style="fill:#FFB7B7;fill:color(display-p3 1.0000 0.7176 0.7176);fill-opacity:1;"/>
<path d="M58.1573 102.845L53.1934 102.845V102.782C53.1934 102.27 53.397 101.778 53.7593 101.416C54.1216 101.054 54.6131 100.85 55.1255 100.85L58.1574 100.85L58.1573 102.845Z" fill="#2F2E41" style="fill:#2F2E41;fill:color(display-p3 0.1843 0.1804 0.2549);fill-opacity:1;"/>
<path d="M71.3658 100.219L69.8788 100.618L67.6318 95.0728L69.8264 94.4838L71.3658 100.219Z" fill="#FFB7B7" style="fill:#FFB7B7;fill:color(display-p3 1.0000 0.7176 0.7176);fill-opacity:1;"/>
<path d="M72.1314 101.558L67.3372 102.845L67.3209 102.785C67.1881 102.29 67.2573 101.762 67.5133 101.318C67.7693 100.874 68.1912 100.55 68.686 100.418L71.6143 99.6316L72.1314 101.558Z" fill="#2F2E41" style="fill:#2F2E41;fill:color(display-p3 0.1843 0.1804 0.2549);fill-opacity:1;"/>
<path d="M51.3542 73.8145C50.4644 74.9585 53.2608 84.4919 53.388 84.619C53.5151 84.7461 53.2609 85.5088 53.2609 85.5088C53.2603 85.6464 53.3049 85.7804 53.388 85.8901C53.5151 86.0172 53.388 86.1443 53.388 86.3986C53.388 86.6528 53.388 86.6528 53.6422 87.1612C53.7945 87.5222 53.8386 87.9197 53.7693 88.3053L55.4218 97.9657C55.2996 98.0183 55.197 98.108 55.1286 98.222C55.0601 98.3361 55.0293 98.4688 55.0404 98.6013C55.0404 99.1098 57.5826 99.364 58.4724 99.2369C59.3622 99.1097 57.8369 87.7968 57.8369 87.7968C57.8369 87.7968 57.8369 84.8732 58.0911 84.619C58.3453 84.3648 58.0911 84.3648 58.0911 83.8563C58.0911 83.3479 57.7097 82.5852 57.8369 82.2039C57.964 81.8225 58.0911 76.3567 58.0911 76.3567C58.0911 76.3567 61.0147 81.8225 61.0147 82.5852C61.0147 83.3479 61.9045 84.619 61.9045 84.619L67.7516 96.5472C67.7516 96.5472 67.3703 97.3098 67.7516 97.9454C68.1329 98.5809 69.7854 98.0725 71.4379 97.4369C73.0903 96.8014 70.8023 95.7845 70.8023 95.7845L67.2432 85.6359C67.2515 85.2515 67.2941 84.8687 67.3703 84.4919C67.4974 83.8563 66.9889 84.1105 66.6076 83.8563C66.2263 83.6021 66.3534 83.6021 66.6076 83.0936C66.8618 82.5852 66.2263 81.4412 66.2263 81.4412L64.5738 72.0349C64.5738 72.0349 52.2439 72.6705 51.3542 73.8145Z" fill="#2F2E41" style="fill:#2F2E41;fill:color(display-p3 0.1843 0.1804 0.2549);fill-opacity:1;"/>
<path d="M55.4504 50.9016C57.2757 50.9016 58.7553 49.4219 58.7553 47.5967C58.7553 45.7714 57.2757 44.2917 55.4504 44.2917C53.6252 44.2917 52.1455 45.7714 52.1455 47.5967C52.1455 49.4219 53.6252 50.9016 55.4504 50.9016Z" fill="#FFB8B8" style="fill:#FFB8B8;fill:color(display-p3 1.0000 0.7216 0.7216);fill-opacity:1;"/>
<path d="M54.2208 51.9089C54.2208 51.9089 49.7121 53.9749 49.3308 54.9918C48.9494 56.0087 51.7357 65.4252 51.7357 65.4252C51.7357 65.4252 51.9048 69.3845 51.3963 70.9098C50.8879 72.4352 50.973 72.6705 50.973 72.6705V73.8146C50.973 74.4501 55.0406 73.9417 57.0744 73.3061C59.1082 72.6706 64.3198 72.7977 64.8283 72.6705C65.3367 72.5434 63.978 70.9098 63.978 70.9098C65.7576 70.7827 63.978 67.0583 63.978 67.0583C63.978 67.0583 63.7961 55.002 63.2876 53.3495C62.7792 51.6971 58.0723 51.3954 58.0723 51.3954L55.6762 52.2055L54.2208 51.9089Z" fill="#014DAB" style="fill:#014DAB;fill:color(display-p3 0.0039 0.3020 0.6706);fill-opacity:1;"/>
<path d="M59.4535 46.7269C59.6236 45.8999 59.462 45.0393 59.0035 44.3303C58.7312 43.9143 58.3752 43.5596 57.9582 43.2887C57.5412 43.0178 57.0724 42.8368 56.5816 42.7571C55.6104 42.6184 54.6202 42.7861 53.749 43.2369C53.2215 43.4956 52.6509 43.8427 52.0986 43.6532L52.2608 43.9443L51.8501 43.9491L52.0001 44.2896L51.608 44.3456L51.9113 44.5276C51.5059 45.2497 51.2326 46.0384 51.1043 46.8565C51.0271 47.18 51.0525 47.5194 51.1769 47.8278C51.3253 48.1179 51.7083 48.2873 51.9534 48.0873C52.1072 47.9618 52.1596 47.7415 52.2675 47.5692C52.3753 47.3969 52.6232 47.2767 52.7518 47.4317L53.0833 46.7689L53.3487 46.9851C53.9879 46.4227 54.7255 45.9834 55.5244 45.6893C55.6214 45.6386 55.7288 45.6107 55.8382 45.6077C55.9477 45.6047 56.0564 45.6268 56.1561 45.6721C56.4523 45.8619 56.4094 46.3475 56.6146 46.6458C56.9482 47.1308 57.7699 46.9294 58.0859 47.4279C58.1787 47.626 58.2415 47.8369 58.2721 48.0535C58.3286 48.2652 58.4647 48.4877 58.6688 48.5014C59.0993 48.0574 59.2638 47.4417 59.4535 46.7269Z" fill="#2F2E41" style="fill:#2F2E41;fill:color(display-p3 0.1843 0.1804 0.2549);fill-opacity:1;"/>
<path d="M67.4303 72.9716C67.2615 72.8574 67.1199 72.7075 67.0153 72.5325C66.9107 72.3576 66.8457 72.1618 66.825 71.959C66.8042 71.7563 66.8282 71.5514 66.8951 71.3589C66.9621 71.1664 67.0705 70.9909 67.2127 70.8448L64.9902 66.4164L67.5471 66.7191L69.2656 70.878C69.4952 71.1331 69.6232 71.4635 69.6255 71.8067C69.6278 72.1498 69.5041 72.4819 69.2779 72.74C69.0517 72.998 68.7386 73.1642 68.3981 73.2068C68.0576 73.2495 67.7133 73.1659 67.4303 72.9716Z" fill="#FFB8B8" style="fill:#FFB8B8;fill:color(display-p3 1.0000 0.7216 0.7216);fill-opacity:1;"/>
<path d="M65.5998 69.7932L63.0089 61.4064L60.0519 54.9946C59.9271 54.7239 59.8654 54.4284 59.8715 54.1304C59.8776 53.8324 59.9514 53.5397 60.0872 53.2744C60.223 53.0091 60.4173 52.778 60.6555 52.5988C60.8936 52.4196 61.1694 52.2968 61.462 52.2398C61.9257 52.1517 62.4057 52.2323 62.8152 52.4672C63.2246 52.702 63.5367 53.0755 63.6948 53.5203L69.0873 68.9117C69.1166 68.9953 69.1277 69.0842 69.12 69.1725C69.1123 69.2607 69.0858 69.3463 69.0424 69.4236C68.999 69.5008 68.9397 69.5679 68.8683 69.6204C68.797 69.673 68.7152 69.7097 68.6286 69.7282L66.3261 70.2191C66.2824 70.2285 66.2379 70.2332 66.1933 70.2332C66.0603 70.2332 65.9308 70.1904 65.8239 70.1112C65.717 70.032 65.6384 69.9205 65.5998 69.7932Z" fill="#014DAB" style="fill:#014DAB;fill:color(display-p3 0.0039 0.3020 0.6706);fill-opacity:1;"/>
<path d="M49.5913 75.8679C49.7311 75.7196 49.8367 75.5424 49.9006 75.3488C49.9645 75.1552 49.9852 74.95 49.9612 74.7476C49.9372 74.5452 49.8691 74.3505 49.7618 74.1772C49.6544 74.004 49.5104 73.8564 49.3398 73.7448L50.5426 68.9382L48.1133 69.7915L47.3435 74.2251C47.1751 74.5241 47.1222 74.8745 47.1949 75.2099C47.2675 75.5453 47.4607 75.8424 47.7377 76.0449C48.0148 76.2474 48.3565 76.3412 48.6982 76.3086C49.0398 76.276 49.3576 76.1192 49.5913 75.8679Z" fill="#FFB8B8" style="fill:#FFB8B8;fill:color(display-p3 1.0000 0.7216 0.7216);fill-opacity:1;"/>
<path d="M50.2008 72.9255C50.1573 72.9352 50.1128 72.9404 50.0682 72.9408L47.714 72.9639C47.6254 72.9648 47.5377 72.9468 47.4566 72.9111C47.3755 72.8754 47.3029 72.8229 47.2437 72.7569C47.1845 72.691 47.14 72.6133 47.1132 72.5288C47.0864 72.4444 47.0779 72.3552 47.0883 72.2672L48.9931 56.0701C49.0505 55.6015 49.2734 55.1689 49.6218 54.8504C49.9702 54.5319 50.4211 54.3485 50.8929 54.3333C51.1908 54.3252 51.4867 54.3848 51.7582 54.5078C52.0298 54.6307 52.2698 54.8138 52.4602 55.0431C52.6506 55.2724 52.7865 55.542 52.8574 55.8314C52.9284 56.1209 52.9327 56.4228 52.8699 56.7142L51.3829 63.6166L50.6841 72.3666C50.6741 72.4993 50.6218 72.6252 50.5348 72.7259C50.4477 72.8265 50.3307 72.8965 50.2008 72.9255Z" fill="#014DAB" style="fill:#014DAB;fill:color(display-p3 0.0039 0.3020 0.6706);fill-opacity:1;"/>
</g>
<defs>
<clipPath id="clip0_39_36560">
<rect width="228.011" height="160" fill="white" style="fill:white;fill-opacity:1;" transform="translate(-0.00585938)"/>
</clipPath>
</defs>
</svg>
