<svg width="210" height="160" viewBox="0 0 210 160" fill="none" xmlns="http://www.w3.org/2000/svg">
<g clip-path="url(#clip0_79_9316)">
<path opacity="0.1" d="M96.3015 141.282C144.093 141.282 182.836 138.274 182.836 134.563C182.836 130.852 144.093 127.844 96.3015 127.844C48.5096 127.844 9.7666 130.852 9.7666 134.563C9.7666 138.274 48.5096 141.282 96.3015 141.282Z" fill="#014DAB" style="fill:#014DAB;fill:color(display-p3 0.0039 0.3020 0.6706);fill-opacity:1;"/>
<g opacity="0.1">
<path d="M172.945 96.2757C172.427 94.7058 170.33 93.983 168.261 94.6631C167.963 94.7602 167.675 94.885 167.4 95.0357C167.268 94.999 167.131 94.9665 166.993 94.942C167.106 94.4904 167.149 94.0242 167.121 93.5595C167.835 93.0821 168.414 92.4293 168.802 91.6638C169.191 90.8983 169.376 90.0457 169.341 89.188C170.052 88.7092 170.629 88.0559 171.016 87.2906C171.403 86.5252 171.588 85.6734 171.552 84.8164C172.269 84.3438 172.847 83.6888 173.228 82.9188C174.225 80.9437 173.812 78.7244 172.303 77.9608C170.794 77.1973 168.76 78.1807 167.763 80.1557C167.367 80.918 167.182 81.772 167.227 82.6296C166.515 83.1084 165.939 83.7617 165.551 84.527C165.164 85.2924 164.98 86.1442 165.016 87.0012C164.304 87.4799 163.727 88.1332 163.34 88.8986C162.953 89.6639 162.769 90.5158 162.805 91.3727C162.091 91.8508 161.513 92.504 161.124 93.2698C160.736 94.0356 160.55 94.8883 160.585 95.7463C159.868 96.2189 159.29 96.8739 158.91 97.6439C158.722 98.0151 158.58 98.4075 158.486 98.8127C158.236 98.4471 157.931 98.1223 157.582 97.8496C157.542 97.5386 157.474 97.2319 157.378 96.9333C156.698 94.8626 154.874 93.6002 153.306 94.1174C151.738 94.6346 151.014 96.7297 151.694 98.8005C151.972 99.6883 152.508 100.474 153.233 101.056C153.273 101.367 153.341 101.674 153.437 101.973C153.832 103.174 154.611 104.102 155.503 104.569C155.424 104.828 155.368 105.094 155.334 105.363C154.493 106.172 153.952 107.242 153.799 108.399C152.957 109.208 152.416 110.279 152.264 111.437C151.847 111.837 151.503 112.306 151.246 112.823C150.246 114.798 150.659 117.02 152.168 117.781C153.677 118.543 155.711 117.563 156.711 115.586C156.974 115.071 157.146 114.513 157.22 113.939C158.06 113.13 158.602 112.06 158.755 110.903C159.596 110.094 160.138 109.023 160.29 107.865C161.125 107.055 161.66 105.984 161.807 104.829C162.652 104.02 163.195 102.947 163.346 101.787C163.605 101.542 163.837 101.269 164.037 100.973C164.868 101.144 165.731 101.09 166.535 100.816C166.833 100.719 167.121 100.594 167.396 100.444C168.297 100.681 169.247 100.647 170.129 100.346C172.191 99.6719 173.46 97.8476 172.945 96.2757Z" fill="#3F3D56" style="fill:#3F3D56;fill:color(display-p3 0.2471 0.2392 0.3373);fill-opacity:1;"/>
<g opacity="0.1">
<path d="M169.294 90.0859C169.08 90.2961 168.845 90.4837 168.593 90.6459C168.625 91.2271 168.549 91.8092 168.367 92.3623C168.527 92.1408 168.67 91.9073 168.795 91.6639C169.047 91.1692 169.216 90.6359 169.294 90.0859Z" fill="black" style="fill:black;fill-opacity:1;"/>
<path d="M171.506 85.7144C171.292 85.9245 171.057 86.1121 170.805 86.2743C170.837 86.8555 170.76 87.4376 170.579 87.9907C170.74 87.7688 170.883 87.5346 171.007 87.2903C171.258 86.7959 171.427 86.2635 171.506 85.7144Z" fill="black" style="fill:black;fill-opacity:1;"/>
<path d="M166.49 84.0875C166.472 83.7878 166.483 83.487 166.525 83.1896C166.13 83.5793 165.801 84.0312 165.552 84.5273C165.429 84.772 165.325 85.0259 165.242 85.2868C165.579 84.8121 166.003 84.4053 166.49 84.0875Z" fill="black" style="fill:black;fill-opacity:1;"/>
<path d="M152.455 110.543C152.633 110.295 152.834 110.064 153.056 109.854C153.09 109.578 153.15 109.306 153.233 109.04C153.056 109.278 152.9 109.531 152.767 109.795C152.644 110.036 152.539 110.286 152.455 110.543Z" fill="black" style="fill:black;fill-opacity:1;"/>
<path d="M153.99 107.509C154.168 107.261 154.369 107.03 154.591 106.821C154.624 106.552 154.681 106.286 154.76 106.027C154.591 106.258 154.441 106.502 154.312 106.758C154.186 107 154.079 107.251 153.99 107.509Z" fill="black" style="fill:black;fill-opacity:1;"/>
<path d="M167.081 94.4574C166.868 94.6675 166.634 94.8545 166.382 95.0153C166.41 95.48 166.367 95.9462 166.254 96.3978C166.391 96.4216 166.527 96.4529 166.661 96.4915C166.936 96.3408 167.224 96.216 167.522 96.1189C169.595 95.4388 171.69 96.1616 172.205 97.7315C172.333 98.1261 172.356 98.5472 172.271 98.9532C172.953 98.1509 173.236 97.1736 172.943 96.2777C172.425 94.7079 170.328 93.985 168.259 94.6651C167.961 94.7623 167.673 94.887 167.398 95.0377C167.266 95.0011 167.129 94.9685 166.991 94.944C167.03 94.7812 167.058 94.6203 167.081 94.4574Z" fill="black" style="fill:black;fill-opacity:1;"/>
<path d="M151.698 112.068C151.521 112.306 151.365 112.558 151.232 112.823C151.108 113.069 151.003 113.323 150.918 113.585C151.1 113.335 151.304 113.104 151.529 112.892C151.56 112.613 151.617 112.337 151.698 112.068Z" fill="black" style="fill:black;fill-opacity:1;"/>
<path d="M164.269 88.4591C164.25 88.1594 164.262 87.8585 164.303 87.5612C163.908 87.9508 163.579 88.4028 163.33 88.8989C163.207 89.1435 163.104 89.3975 163.021 89.6584C163.358 89.1837 163.781 88.7769 164.269 88.4591Z" fill="black" style="fill:black;fill-opacity:1;"/>
<path d="M161.074 106.287C161.034 106.59 160.965 106.889 160.87 107.179C161.029 106.957 161.172 106.722 161.296 106.479C161.429 106.217 161.54 105.945 161.628 105.664C161.461 105.887 161.276 106.096 161.074 106.287Z" fill="black" style="fill:black;fill-opacity:1;"/>
<path d="M158.003 112.359C157.963 112.662 157.895 112.961 157.8 113.251C157.96 113.029 158.103 112.795 158.227 112.55C158.36 112.288 158.471 112.016 158.559 111.736C158.392 111.959 158.206 112.168 158.003 112.359Z" fill="black" style="fill:black;fill-opacity:1;"/>
<path d="M159.539 109.321C159.499 109.624 159.43 109.923 159.335 110.213C159.497 109.995 159.643 109.765 159.771 109.525C159.904 109.263 160.015 108.991 160.103 108.71C159.932 108.929 159.743 109.134 159.539 109.321Z" fill="black" style="fill:black;fill-opacity:1;"/>
<path d="M162.609 103.251C162.569 103.554 162.501 103.852 162.405 104.141C162.565 103.92 162.707 103.686 162.831 103.443C162.966 103.177 163.077 102.899 163.165 102.614C162.999 102.843 162.813 103.056 162.609 103.251Z" fill="black" style="fill:black;fill-opacity:1;"/>
<path d="M152.557 95.5733C154.129 95.0581 155.953 96.3185 156.629 98.3892C156.725 98.6886 156.793 98.9959 156.833 99.3075C157.182 99.5802 157.487 99.905 157.737 100.271C157.831 99.8648 157.973 99.4717 158.16 99.0998C158.232 98.9614 158.309 98.829 158.388 98.6926C158.157 98.3728 157.883 98.0864 157.574 97.8415C157.534 97.5305 157.466 97.2239 157.37 96.9253C156.69 94.8545 154.866 93.5921 153.298 94.1093C152.402 94.4025 151.783 95.2108 151.543 96.233C151.819 95.9294 152.168 95.7022 152.557 95.5733Z" fill="black" style="fill:black;fill-opacity:1;"/>
<path d="M159.847 97.2022C159.829 96.9031 159.841 96.6029 159.883 96.3063C159.487 96.6953 159.157 97.1473 158.908 97.644C158.785 97.8878 158.681 98.1411 158.599 98.4014C158.937 97.9276 159.36 97.5209 159.847 97.2022Z" fill="black" style="fill:black;fill-opacity:1;"/>
<path d="M162.058 92.8285C162.04 92.5294 162.052 92.2293 162.094 91.9326C161.697 92.3205 161.368 92.7719 161.119 93.2683C160.996 93.5129 160.893 93.7669 160.81 94.0278C161.147 93.5532 161.57 93.1463 162.058 92.8285Z" fill="black" style="fill:black;fill-opacity:1;"/>
<path d="M156.468 115.395C156.428 115.698 156.36 115.998 156.265 116.289C156.599 115.825 156.856 115.31 157.024 114.764C156.858 114.99 156.672 115.201 156.468 115.395Z" fill="black" style="fill:black;fill-opacity:1;"/>
</g>
<path d="M175.962 76.0733C176.68 75.6013 177.259 74.9462 177.638 74.1757C178.638 72.2006 178.225 69.9792 176.716 69.2157C175.207 68.4521 173.173 69.4356 172.173 71.4126C171.777 72.1769 171.593 73.0332 171.64 73.8926C170.928 74.3714 170.351 75.0247 169.964 75.79C169.577 76.5554 169.392 77.4072 169.428 78.2642C168.71 78.7356 168.132 79.3909 167.753 80.1618C167.63 80.4036 167.527 80.6548 167.445 80.9132C167.977 80.1434 168.748 79.5708 169.638 79.2843C169.74 79.5979 169.902 79.8883 170.117 80.1387C170.331 80.3891 170.593 80.5944 170.887 80.7429C171.181 80.8913 171.502 80.98 171.831 81.0036C172.16 81.0272 172.49 80.9854 172.802 80.8806C173.103 81.7659 173.103 82.7257 172.802 83.611C172.961 83.3917 173.103 83.1602 173.226 82.9187C173.621 82.1563 173.805 81.3023 173.759 80.4448C174.472 79.9669 175.049 79.3138 175.437 78.5483C175.824 77.7827 176.008 76.9304 175.971 76.0733H175.962Z" fill="#3F3D56" style="fill:#3F3D56;fill:color(display-p3 0.2471 0.2392 0.3373);fill-opacity:1;"/>
<path d="M200.266 48.0483C200.879 47.7619 201.473 47.4333 202.041 47.0648L195.458 42.2555L203.196 46.2402C204.761 44.9968 206.056 43.4469 207.001 41.6855C207.946 39.9241 208.522 37.9882 208.693 35.9965L195.544 36.1309L208.722 33.9278C208.585 31.9341 208.043 29.9893 207.128 28.2129C206.212 26.4365 204.944 24.866 203.399 23.5978C201.855 22.3296 200.068 21.3905 198.147 20.8382C196.227 20.286 194.213 20.1322 192.231 20.3863C190.249 20.6404 188.34 21.2971 186.621 22.316C184.902 23.3349 183.409 24.6945 182.235 26.3112C181.06 27.928 180.229 29.7678 179.791 31.7177C179.354 33.6675 179.319 35.6862 179.691 37.6498C178.735 38.0943 177.83 38.6404 176.991 39.2787L183.863 48.8342L175.612 40.4698C173.871 42.1796 172.584 44.2965 171.867 46.6291C171.149 48.9616 171.025 51.4362 171.505 53.8288C169.013 54.9921 166.898 56.8331 165.403 59.1414C163.907 61.4496 163.091 64.1321 163.048 66.8822C163.004 69.6323 163.736 72.3391 165.158 74.6934C166.58 77.0476 168.636 78.9542 171.09 80.1954C173.545 81.4366 176.299 81.9623 179.038 81.7124C181.777 81.4625 184.391 80.4471 186.58 78.7822C188.769 77.1173 190.446 74.8701 191.419 72.2974C192.391 69.7247 192.621 66.9302 192.08 64.2333C195.063 62.8451 197.492 60.4942 198.976 57.5585C200.461 54.6229 200.915 51.2732 200.266 48.0483Z" fill="#014DAB" style="fill:#014DAB;fill:color(display-p3 0.0039 0.3020 0.6706);fill-opacity:1;"/>
<path opacity="0.1" d="M172.802 44.318C171.313 47.2522 170.857 50.6033 171.509 53.8287C169.017 54.992 166.902 56.833 165.407 59.1413C163.911 61.4496 163.095 64.132 163.052 66.8821C163.008 69.6322 163.74 72.3391 165.162 74.6933C166.584 77.0475 168.64 78.9541 171.094 80.1953C173.549 81.4365 176.303 81.9622 179.042 81.7123C181.781 81.4624 184.394 80.447 186.584 78.7821C188.773 77.1172 190.45 74.87 191.423 72.2973C192.395 69.7246 192.625 66.9301 192.084 64.2333C194.961 62.8976 173.539 42.85 172.802 44.318Z" fill="black" style="fill:black;fill-opacity:1;"/>
<path d="M189.323 23.0916C190.525 23.0916 191.5 22.1171 191.5 20.915C191.5 19.7128 190.525 18.7383 189.323 18.7383C188.121 18.7383 187.146 19.7128 187.146 20.915C187.146 22.1171 188.121 23.0916 189.323 23.0916Z" fill="#014DAB" style="fill:#014DAB;fill:color(display-p3 0.0039 0.3020 0.6706);fill-opacity:1;"/>
<path d="M202.037 24.4883C203.239 24.4883 204.214 23.5138 204.214 22.3117C204.214 21.1096 203.239 20.1351 202.037 20.1351C200.835 20.1351 199.86 21.1096 199.86 22.3117C199.86 23.5138 200.835 24.4883 202.037 24.4883Z" fill="#014DAB" style="fill:#014DAB;fill:color(display-p3 0.0039 0.3020 0.6706);fill-opacity:1;"/>
<path d="M206.939 44.0473C208.141 44.0473 209.116 43.0728 209.116 41.8707C209.116 40.6686 208.141 39.6941 206.939 39.6941C205.737 39.6941 204.763 40.6686 204.763 41.8707C204.763 43.0728 205.737 44.0473 206.939 44.0473Z" fill="#014DAB" style="fill:#014DAB;fill:color(display-p3 0.0039 0.3020 0.6706);fill-opacity:1;"/>
<path d="M200.322 53.8145C201.524 53.8145 202.499 52.84 202.499 51.6379C202.499 50.4358 201.524 49.4613 200.322 49.4613C199.12 49.4613 198.146 50.4358 198.146 51.6379C198.146 52.84 199.12 53.8145 200.322 53.8145Z" fill="#014DAB" style="fill:#014DAB;fill:color(display-p3 0.0039 0.3020 0.6706);fill-opacity:1;"/>
<path d="M191.282 74.1003C192.484 74.1003 193.459 73.1258 193.459 71.9237C193.459 70.7216 192.484 69.7471 191.282 69.7471C190.08 69.7471 189.105 70.7216 189.105 71.9237C189.105 73.1258 190.08 74.1003 191.282 74.1003Z" fill="#014DAB" style="fill:#014DAB;fill:color(display-p3 0.0039 0.3020 0.6706);fill-opacity:1;"/>
<path opacity="0.1" d="M191.282 74.1003C192.484 74.1003 193.459 73.1258 193.459 71.9237C193.459 70.7216 192.484 69.7471 191.282 69.7471C190.08 69.7471 189.105 70.7216 189.105 71.9237C189.105 73.1258 190.08 74.1003 191.282 74.1003Z" fill="black" style="fill:black;fill-opacity:1;"/>
<path d="M171.181 51.1248C172.384 51.1248 173.358 50.1503 173.358 48.9482C173.358 47.7461 172.384 46.7716 171.181 46.7716C169.979 46.7716 169.005 47.7461 169.005 48.9482C169.005 50.1503 169.979 51.1248 171.181 51.1248Z" fill="#014DAB" style="fill:#014DAB;fill:color(display-p3 0.0039 0.3020 0.6706);fill-opacity:1;"/>
<path opacity="0.1" d="M171.181 51.1248C172.384 51.1248 173.358 50.1503 173.358 48.9482C173.358 47.7461 172.384 46.7716 171.181 46.7716C169.979 46.7716 169.005 47.7461 169.005 48.9482C169.005 50.1503 169.979 51.1248 171.181 51.1248Z" fill="black" style="fill:black;fill-opacity:1;"/>
<path opacity="0.1" d="M168.86 84.7492C167.412 84.0182 166.974 81.9475 167.819 80.0376C167.774 80.115 167.732 80.1944 167.691 80.2779C166.691 82.2529 167.105 84.4723 168.613 85.2358C170.122 85.9993 172.156 85.0159 173.154 83.0409C173.197 82.9594 173.233 82.8759 173.27 82.7945C172.234 84.6087 170.305 85.4822 168.86 84.7492Z" fill="black" style="fill:black;fill-opacity:1;"/>
<path opacity="0.1" d="M166.71 89.0006C165.265 88.2696 164.825 86.1989 165.672 84.287C165.627 84.3664 165.582 84.4458 165.542 84.5273C164.542 86.5023 164.955 88.7237 166.464 89.4852C167.973 90.2467 170.007 89.2673 171.006 87.2903C171.047 87.2088 171.086 87.1274 171.123 87.0439C170.084 88.8581 168.158 89.7316 166.71 89.0006Z" fill="black" style="fill:black;fill-opacity:1;"/>
<path opacity="0.1" d="M164.56 93.25C163.115 92.5191 162.675 90.4483 163.522 88.5385C163.477 88.6158 163.432 88.6952 163.392 88.7787C162.392 90.7537 162.807 92.9731 164.316 93.7367C165.825 94.5002 167.857 93.5168 168.856 91.5417C168.897 91.4603 168.936 91.3768 168.972 91.2954C167.936 93.1095 166.008 93.983 164.56 93.25Z" fill="black" style="fill:black;fill-opacity:1;"/>
<path opacity="0.1" d="M162.418 97.5116C160.97 96.7807 160.532 94.7099 161.377 92.8C161.333 92.8774 161.29 92.9568 161.247 93.0383C160.249 95.0133 160.663 97.2347 162.171 97.9983C163.68 98.7618 165.714 97.7783 166.712 95.8013C166.755 95.7198 166.791 95.6384 166.828 95.5549C165.786 97.3589 163.857 98.2324 162.418 97.5116Z" fill="black" style="fill:black;fill-opacity:1;"/>
<path opacity="0.1" d="M160.262 101.751C158.814 101.02 158.377 98.9491 159.222 97.0392C159.177 97.1166 159.134 97.196 159.093 97.2794C158.094 99.2545 158.507 101.474 160.016 102.237C161.524 103.001 163.559 102.017 164.558 100.042C164.599 99.961 164.638 99.8775 164.674 99.7961C163.64 101.61 161.708 102.484 160.262 101.751Z" fill="black" style="fill:black;fill-opacity:1;"/>
<path opacity="0.1" d="M158.112 106.002C156.666 105.271 156.226 103.201 157.073 101.291C157.028 101.368 156.984 101.447 156.943 101.529C155.943 103.504 156.356 105.725 157.867 106.489C159.378 107.252 161.4 106.267 162.418 104.292C162.459 104.21 162.497 104.129 162.534 104.046C161.485 105.86 159.567 106.733 158.112 106.002Z" fill="black" style="fill:black;fill-opacity:1;"/>
<path opacity="0.1" d="M155.962 110.252C154.516 109.521 154.076 107.45 154.923 105.54C154.878 105.619 154.836 105.697 154.793 105.78C153.795 107.755 154.209 109.975 155.717 110.738C157.226 111.502 159.26 110.518 160.258 108.543C160.301 108.462 160.337 108.378 160.374 108.297C159.338 110.111 157.409 110.985 155.962 110.252Z" fill="black" style="fill:black;fill-opacity:1;"/>
<path opacity="0.1" d="M153.813 114.503C152.365 113.772 151.927 111.701 152.772 109.791C152.728 109.869 152.685 109.948 152.644 110.03C151.644 112.005 152.058 114.226 153.566 114.99C155.075 115.753 157.109 114.77 158.109 112.793C158.15 112.711 158.186 112.63 158.223 112.546C157.187 114.36 155.258 115.226 153.813 114.503Z" fill="black" style="fill:black;fill-opacity:1;"/>
<path opacity="0.1" d="M152.4 117.296C150.954 116.563 150.514 114.495 151.361 112.583C151.317 112.662 151.272 112.742 151.231 112.823C150.231 114.798 150.645 117.02 152.153 117.781C153.662 118.543 155.696 117.563 156.696 115.586C156.737 115.505 156.775 115.423 156.812 115.34C155.774 117.154 153.845 118.027 152.4 117.296Z" fill="black" style="fill:black;fill-opacity:1;"/>
<path d="M191.247 98.3789C191.472 97.7357 191.609 97.0653 191.655 96.3856C191.804 96.3852 191.952 96.3541 192.089 96.294C192.226 96.2339 192.349 96.1462 192.45 96.0364C192.552 95.9266 192.63 95.7971 192.679 95.6558C192.728 95.5146 192.748 95.3647 192.736 95.2156C192.725 95.0665 192.683 94.9213 192.613 94.7892C192.543 94.657 192.446 94.5408 192.329 94.4476C192.212 94.3545 192.077 94.2865 191.933 94.2479C191.788 94.2093 191.637 94.2009 191.49 94.2232C191.248 93.1212 190.763 92.0869 190.071 91.1955C189.38 90.3041 188.498 89.5779 187.491 89.0698C187.621 88.8122 187.643 88.5135 187.553 88.2393C187.463 87.9652 187.268 87.738 187.01 87.6079C186.753 87.4777 186.454 87.4553 186.18 87.5454C185.905 87.6355 185.678 87.8308 185.548 88.0884C185.501 88.18 185.468 88.2781 185.45 88.3796C184.256 88.157 183.025 88.2229 181.861 88.5717C180.697 88.9205 179.633 89.5423 178.758 90.3852C178.097 90.2782 177.424 90.2584 176.758 90.3261L175.877 94.3393L175.824 90.4707C174.812 90.6925 173.856 91.1183 173.014 91.7221C172.172 92.326 171.462 93.0951 170.928 93.9826C170.394 94.87 170.046 95.8571 169.906 96.8836C169.766 97.91 169.837 98.9542 170.114 99.9523C170.391 100.95 170.869 101.882 171.518 102.689C172.168 103.496 172.975 104.162 173.89 104.647C174.806 105.132 175.811 105.424 176.843 105.508C177.876 105.591 178.915 105.463 179.896 105.131C180.001 105.32 180.161 105.473 180.354 105.571C180.553 105.672 180.779 105.709 181.001 105.677C181.222 105.646 181.428 105.547 181.591 105.393C181.754 105.24 181.866 105.041 181.911 104.822C181.957 104.603 181.933 104.375 181.845 104.17C182.192 103.931 182.519 103.664 182.822 103.372C184.411 103.63 186.042 103.378 187.48 102.653C188.918 101.928 190.089 100.766 190.826 99.3339L186.723 98.6436L191.247 98.3789Z" fill="#014DAB" style="fill:#014DAB;fill:color(display-p3 0.0039 0.3020 0.6706);fill-opacity:1;"/>
<g opacity="0.1">
<path d="M184.909 100.328C183.394 98.3281 182.466 95.9601 181.397 93.6878C180.968 92.7551 180.487 91.847 179.957 90.9675L179.155 90.033C179.021 90.147 178.886 90.2651 178.748 90.3893C178.087 90.2823 177.415 90.2625 176.749 90.3302L175.867 94.3434L175.814 90.4748C174.802 90.6966 173.846 91.1224 173.004 91.7263C172.162 92.3301 171.453 93.0993 170.918 93.9867C170.384 94.8741 170.036 95.8612 169.896 96.8877C169.756 97.9141 169.827 98.9583 170.104 99.9565C170.381 100.955 170.859 101.886 171.509 102.693C172.158 103.5 172.965 104.166 173.881 104.651C174.796 105.136 175.801 105.429 176.834 105.512C177.866 105.595 178.905 105.467 179.886 105.135C179.991 105.324 180.151 105.478 180.344 105.575C180.544 105.676 180.769 105.713 180.991 105.682C181.212 105.65 181.418 105.551 181.581 105.398C181.744 105.244 181.856 105.045 181.901 104.826C181.947 104.607 181.923 104.379 181.835 104.174C182.182 103.935 182.509 103.668 182.812 103.376C184.368 103.628 185.964 103.391 187.381 102.7C186.435 102.046 185.601 101.246 184.909 100.328Z" fill="black" style="fill:black;fill-opacity:1;"/>
</g>
<path d="M158.083 91.7352C158.167 91.5692 158.207 91.3844 158.199 91.1986C158.191 91.0127 158.136 90.832 158.038 90.6737C157.94 90.5153 157.804 90.3847 157.641 90.2943C157.479 90.2039 157.296 90.1567 157.11 90.1572C156.801 88.5208 155.964 87.0309 154.727 85.9159C154.927 85.1385 155.002 84.3346 154.951 83.5337L150.95 82.8516L154.835 82.6072C154.766 82.2425 154.67 81.8832 154.548 81.5322C154.7 81.4281 154.823 81.2882 154.907 81.125C155.005 80.9303 155.042 80.7108 155.014 80.4947C154.986 80.2786 154.894 80.0759 154.749 79.9128C154.605 79.7497 154.415 79.6336 154.203 79.5797C153.992 79.5257 153.77 79.5363 153.565 79.6101C152.536 78.1562 151.03 77.1087 149.309 76.6496C147.588 76.1906 145.761 76.3489 144.145 77.0972C142.528 77.8455 141.225 79.1363 140.462 80.7455C139.698 82.3547 139.523 84.1806 139.966 85.9058C139.73 86.0052 139.538 86.1858 139.424 86.4148C139.324 86.612 139.287 86.8349 139.317 87.0539C139.347 87.2729 139.443 87.4775 139.592 87.6405C139.741 87.8035 139.937 87.9171 140.152 87.9662C140.368 88.0154 140.593 87.9976 140.798 87.9154C141.189 88.5713 141.676 89.165 142.242 89.6766C141.83 91.2847 141.954 92.9836 142.596 94.5145L147.961 93.1217L143.177 95.6384C144.023 96.9827 145.268 98.0291 146.738 98.6311C148.208 99.233 149.829 99.3605 151.375 98.9958C152.921 98.631 154.314 97.7921 155.36 96.5965C156.406 95.401 157.052 93.9084 157.207 92.3277C157.392 92.3117 157.569 92.2489 157.722 92.1452C157.875 92.0415 158 91.9004 158.083 91.7352Z" fill="#014DAB" style="fill:#014DAB;fill:color(display-p3 0.0039 0.3020 0.6706);fill-opacity:1;"/>
<path opacity="0.1" d="M158.083 91.7351C158.167 91.5691 158.207 91.3843 158.199 91.1985C158.191 91.0126 158.135 90.8319 158.038 90.6736C157.94 90.5153 157.804 90.3847 157.641 90.2942C157.478 90.2038 157.295 90.1566 157.109 90.1571C156.801 88.5208 155.964 87.0309 154.727 85.9159C154.76 85.7876 154.788 85.6614 154.813 85.5331C154.671 85.636 154.539 85.7526 154.42 85.8813C153.697 86.6733 153.326 87.7382 152.612 88.5384C151.769 89.4831 150.506 89.9759 149.246 90.1082C147.986 90.2406 146.717 90.0471 145.473 89.8048C144.443 89.6012 143.398 89.3651 142.354 89.4648C142.252 89.4648 142.15 89.4872 142.056 89.5035C142.117 89.5626 142.179 89.6216 142.242 89.6786C141.829 91.2867 141.954 92.9855 142.596 94.5164L147.961 93.1217L143.176 95.6383C144.022 96.9827 145.267 98.029 146.737 98.631C148.207 99.233 149.828 99.3605 151.374 98.9957C152.92 98.6309 154.314 97.7921 155.36 96.5965C156.405 95.4009 157.051 93.9084 157.207 92.3276C157.391 92.3117 157.569 92.2489 157.722 92.1452C157.875 92.0415 157.999 91.9003 158.083 91.7351Z" fill="black" style="fill:black;fill-opacity:1;"/>
</g>
<g opacity="0.1">
<path d="M19.1038 104.094C19.3645 103.302 20.4212 102.938 21.4637 103.28C21.6136 103.329 21.7588 103.392 21.8974 103.467C21.9646 103.449 22.0338 103.433 22.101 103.42C22.0438 103.193 22.0218 102.958 22.0358 102.724C21.678 102.482 21.3878 102.153 21.1929 101.767C20.998 101.382 20.9048 100.953 20.9221 100.521C20.5611 100.283 20.2701 99.9537 20.0791 99.566C19.8801 99.182 19.7867 98.7519 19.8083 98.3199C19.4476 98.0812 19.1567 97.751 18.9654 97.363C18.4645 96.3693 18.6681 95.2515 19.4316 94.8646C20.1952 94.4778 21.2173 94.9766 21.7202 95.9703C21.9189 96.3551 22.0116 96.7859 21.989 97.2184C22.3478 97.459 22.6387 97.7878 22.8338 98.1732C23.0288 98.5587 23.1215 98.9878 23.1028 99.4194C23.4615 99.6606 23.7522 99.9898 23.9473 100.376C24.1423 100.761 24.235 101.191 24.2165 101.623C24.5753 101.863 24.8663 102.192 25.0613 102.577C25.2563 102.963 25.349 103.392 25.3303 103.824C25.6918 104.062 25.9834 104.392 26.1753 104.781C26.2668 104.968 26.3352 105.167 26.3789 105.371C26.5043 105.186 26.6575 105.022 26.8329 104.884C26.8539 104.727 26.8893 104.573 26.9388 104.422C27.2829 103.38 28.2012 102.744 28.9932 102.997C29.7853 103.249 30.1477 104.314 29.8077 105.357C29.6672 105.804 29.3972 106.2 29.0319 106.495C29.0108 106.651 28.9753 106.805 28.9261 106.955C28.7589 107.508 28.3866 107.975 27.8856 108.262C27.9249 108.396 27.9535 108.532 27.9711 108.67C28.1813 108.871 28.3555 109.107 28.4863 109.368C28.6195 109.628 28.7063 109.909 28.7428 110.199C28.9538 110.4 29.1287 110.636 29.26 110.897C29.3929 111.157 29.4797 111.438 29.5165 111.728C29.728 111.93 29.903 112.167 30.0337 112.428C30.5366 113.422 30.3289 114.542 29.5695 114.924C28.81 115.307 27.7838 114.815 27.2809 113.819C27.1483 113.559 27.0615 113.278 27.0243 112.988C26.6001 112.581 26.3272 112.042 26.2506 111.459C25.8264 111.052 25.5535 110.513 25.4769 109.93C25.266 109.728 25.0911 109.492 24.9597 109.231C24.828 108.971 24.7413 108.69 24.7031 108.401C24.4929 108.199 24.3187 107.963 24.188 107.702C24.0548 107.442 23.968 107.161 23.9315 106.872C23.8004 106.749 23.6836 106.613 23.5833 106.464C23.1644 106.55 22.7302 106.523 22.325 106.387C22.1745 106.337 22.0286 106.273 21.8892 106.198C21.4364 106.318 20.958 106.301 20.5149 106.149C19.4825 105.805 18.8452 104.886 19.1038 104.094Z" fill="#3F3D56" style="fill:#3F3D56;fill:color(display-p3 0.2471 0.2392 0.3373);fill-opacity:1;"/>
<g opacity="0.1">
<path d="M20.9424 100.973C21.0503 101.079 21.1691 101.174 21.2967 101.256C21.2794 101.548 21.3181 101.841 21.4107 102.119C21.3289 102.008 21.2567 101.89 21.1949 101.767C21.0675 101.518 20.9822 101.25 20.9424 100.973Z" fill="black" style="fill:black;fill-opacity:1;"/>
<path d="M19.8291 98.774C19.9376 98.8792 20.0563 98.9733 20.1834 99.055C20.1663 99.3481 20.205 99.6417 20.2974 99.9204C20.0508 99.5818 19.8901 99.1884 19.8291 98.774Z" fill="black" style="fill:black;fill-opacity:1;"/>
<path d="M22.36 97.9535C22.3697 97.8026 22.3643 97.6512 22.3438 97.5015C22.5428 97.698 22.7085 97.9256 22.8345 98.1754C22.8959 98.2988 22.9477 98.4268 22.9892 98.5582C22.8195 98.3187 22.606 98.1135 22.36 97.9535Z" fill="black" style="fill:black;fill-opacity:1;"/>
<path d="M29.4251 111.282C29.3361 111.157 29.2352 111.041 29.1238 110.936C29.1052 110.798 29.0752 110.662 29.0342 110.529C29.1225 110.648 29.2009 110.775 29.2683 110.907C29.3301 111.028 29.3825 111.153 29.4251 111.282Z" fill="black" style="fill:black;fill-opacity:1;"/>
<path d="M28.6456 109.753C28.5566 109.628 28.4557 109.512 28.3443 109.407C28.3277 109.269 28.2991 109.132 28.2588 108.999C28.4265 109.227 28.5558 109.48 28.6416 109.749L28.6456 109.753Z" fill="black" style="fill:black;fill-opacity:1;"/>
<path d="M22.0584 103.18C22.1653 103.286 22.2834 103.379 22.4107 103.459C22.3954 103.693 22.4174 103.928 22.4758 104.155C22.4072 104.168 22.3392 104.183 22.2722 104.202C22.1327 104.127 21.9869 104.065 21.8365 104.015C20.794 103.673 19.7372 104.037 19.4786 104.829C19.4138 105.027 19.4019 105.237 19.444 105.44C19.2765 105.264 19.1574 105.048 19.0982 104.812C19.0389 104.576 19.0417 104.329 19.106 104.094C19.3667 103.302 20.4234 102.938 21.4659 103.28C21.6158 103.329 21.761 103.392 21.8996 103.467C21.9668 103.449 22.036 103.433 22.1032 103.42C22.0836 103.341 22.0687 103.261 22.0584 103.18Z" fill="black" style="fill:black;fill-opacity:1;"/>
<path d="M29.8076 112.05C29.8964 112.17 29.9748 112.297 30.0418 112.43C30.1039 112.554 30.1564 112.682 30.1986 112.813C30.1095 112.688 30.0086 112.571 29.8972 112.465C29.8791 112.324 29.8491 112.185 29.8076 112.05Z" fill="black" style="fill:black;fill-opacity:1;"/>
<path d="M23.4733 100.159C23.483 100.008 23.4776 99.8563 23.457 99.7065C23.6566 99.9027 23.8224 100.13 23.9477 100.38C24.0092 100.503 24.0609 100.63 24.1025 100.761C23.9328 100.522 23.7193 100.318 23.4733 100.159Z" fill="black" style="fill:black;fill-opacity:1;"/>
<path d="M25.0838 109.138C25.1029 109.29 25.1363 109.44 25.1836 109.586C25.0139 109.353 24.8845 109.094 24.8008 108.818C24.8854 108.933 24.9801 109.04 25.0838 109.138Z" fill="black" style="fill:black;fill-opacity:1;"/>
<path d="M26.6296 112.196C26.6502 112.348 26.6842 112.498 26.7314 112.644C26.6496 112.533 26.5774 112.415 26.5156 112.292C26.4486 112.161 26.3928 112.025 26.3486 111.885C26.4339 111.996 26.5279 112.1 26.6296 112.196Z" fill="black" style="fill:black;fill-opacity:1;"/>
<path d="M25.8582 110.667C25.8773 110.819 25.9107 110.969 25.958 111.115C25.8769 111.003 25.8047 110.886 25.7422 110.763C25.6749 110.632 25.6191 110.496 25.5752 110.355C25.6602 110.467 25.7549 110.572 25.8582 110.667Z" fill="black" style="fill:black;fill-opacity:1;"/>
<path d="M24.31 107.607C24.3288 107.76 24.3622 107.91 24.4097 108.057C24.3325 107.945 24.2644 107.827 24.2061 107.704C24.1378 107.574 24.0813 107.438 24.0371 107.297C24.1185 107.408 24.2098 107.512 24.31 107.607Z" fill="black" style="fill:black;fill-opacity:1;"/>
<path d="M29.3738 103.74C28.5818 103.48 27.6635 104.115 27.3214 105.165C27.2719 105.316 27.2365 105.471 27.2155 105.628C27.0394 105.765 26.8856 105.928 26.7595 106.112C26.7122 105.908 26.6404 105.709 26.5457 105.522C26.511 105.453 26.4724 105.385 26.4316 105.318C26.5472 105.158 26.6842 105.014 26.8389 104.891C26.8598 104.734 26.8952 104.579 26.9447 104.428C27.2888 103.386 28.2071 102.751 28.9992 103.003C29.2263 103.09 29.427 103.235 29.5819 103.422C29.7367 103.61 29.8404 103.835 29.8829 104.074C29.7445 103.921 29.5692 103.806 29.3738 103.74Z" fill="black" style="fill:black;fill-opacity:1;"/>
<path d="M25.7009 104.561C25.7105 104.41 25.7051 104.258 25.6846 104.109C25.8841 104.305 26.0499 104.532 26.1753 104.783C26.2367 104.906 26.2885 105.034 26.33 105.165C26.1609 104.925 25.9473 104.72 25.7009 104.561Z" fill="black" style="fill:black;fill-opacity:1;"/>
<path d="M24.5876 102.358C24.5972 102.207 24.5918 102.055 24.5713 101.906C24.7699 102.103 24.9356 102.33 25.062 102.58C25.1235 102.703 25.1752 102.831 25.2167 102.962C25.0471 102.723 24.8336 102.518 24.5876 102.358Z" fill="black" style="fill:black;fill-opacity:1;"/>
<path d="M27.4031 113.725C27.4226 113.878 27.4567 114.029 27.5049 114.175C27.4235 114.063 27.3513 113.945 27.289 113.821C27.2221 113.69 27.1662 113.554 27.1221 113.414C27.2073 113.525 27.3013 113.629 27.4031 113.725Z" fill="black" style="fill:black;fill-opacity:1;"/>
</g>
<path d="M17.5832 93.9158C17.2222 93.6782 16.9312 93.3486 16.7403 92.9609C16.2373 91.9652 16.445 90.8474 17.2045 90.4626C17.964 90.0778 18.9902 90.5725 19.4931 91.5682C19.692 91.9522 19.7848 92.3824 19.7619 92.8143C20.1206 93.0555 20.4113 93.3847 20.6064 93.7704C20.8014 94.1562 20.8941 94.5855 20.8756 95.0174C21.2368 95.2553 21.5284 95.5848 21.7206 95.9723C21.7817 96.0944 21.8334 96.221 21.8753 96.351C21.6056 95.9661 21.2173 95.68 20.7697 95.5366C20.7199 95.6956 20.6388 95.8431 20.5313 95.9705C20.4238 96.0979 20.2919 96.2025 20.1435 96.2784C19.9951 96.3542 19.833 96.3997 19.6668 96.4121C19.5006 96.4246 19.3336 96.4038 19.1755 96.351C19.0245 96.7967 19.0245 97.2797 19.1755 97.7254C19.099 97.6146 19.0309 97.4982 18.9718 97.3772C18.7729 96.9932 18.6794 96.5631 18.701 96.1311C18.3428 95.8895 18.0523 95.5602 17.8573 95.1746C17.6624 94.7889 17.5694 94.3598 17.5873 93.928L17.5832 93.9158Z" fill="#3F3D56" style="fill:#3F3D56;fill:color(display-p3 0.2471 0.2392 0.3373);fill-opacity:1;"/>
<path d="M5.3415 79.7974C5.03264 79.653 4.734 79.4877 4.44765 79.3027L7.76244 76.8797L3.86532 78.8853C3.07737 78.2587 2.42555 77.478 1.94976 76.5908C1.47398 75.7037 1.18422 74.7287 1.09824 73.7257L7.72376 73.795L1.08398 72.6832C1.14116 71.6703 1.4063 70.68 1.86291 69.7741C2.31952 68.8681 2.95781 68.0659 3.738 67.4173C4.51819 66.7688 5.42357 66.2879 6.39774 66.0046C7.3719 65.7212 8.39398 65.6416 9.40029 65.7705C10.4066 65.8994 11.3756 66.2342 12.2469 66.7539C13.1181 67.2737 13.873 67.9673 14.4645 68.7916C15.056 69.6158 15.4715 70.5531 15.6849 71.5449C15.8984 72.5367 15.9054 73.5619 15.7053 74.5565C16.1863 74.779 16.6422 75.052 17.0655 75.3709L13.6041 80.1843L17.7598 75.9736C18.6367 76.835 19.2851 77.9014 19.6463 79.0763C20.0075 80.2513 20.0701 81.4977 19.8285 82.703C21.0856 83.2885 22.1526 84.216 22.9074 85.3794C23.6621 86.5428 24.0743 87.8952 24.0967 89.2818C24.1191 90.6684 23.7508 92.0333 23.034 93.2205C22.3171 94.4077 21.2807 95.3691 20.0431 95.995C18.8055 96.6208 17.4168 96.8857 16.0358 96.7595C14.6548 96.6332 13.3371 96.1208 12.2336 95.2809C11.13 94.441 10.2851 93.3075 9.79546 92.0101C9.3058 90.7126 9.19116 89.3035 9.46464 87.9439C7.96421 87.2447 6.74213 86.0617 5.99445 84.5848C5.24677 83.1079 5.01683 81.4227 5.3415 79.7995V79.7974Z" fill="#014DAB" style="fill:#014DAB;fill:color(display-p3 0.0039 0.3020 0.6706);fill-opacity:1;"/>
<path opacity="0.1" d="M19.1777 77.9201C19.9286 79.398 20.1582 81.0863 19.8292 82.7111C21.0864 83.2966 22.1533 84.2242 22.9081 85.3876C23.6629 86.551 24.0751 87.9033 24.0975 89.2899C24.1199 90.6765 23.7516 92.0415 23.0348 93.2286C22.3179 94.4158 21.2814 95.3773 20.0439 96.0031C18.8063 96.6289 17.4176 96.8939 16.0366 96.7676C14.6555 96.6413 13.3379 96.1289 12.2344 95.2891C11.1308 94.4492 10.2859 93.3157 9.79624 92.0182C9.30658 90.7207 9.19193 89.3116 9.46542 87.9521C8.01367 87.2781 18.8051 77.181 19.1777 77.9201Z" fill="black" style="fill:black;fill-opacity:1;"/>
<path d="M10.8533 67.2264C11.4594 67.2264 11.9508 66.7351 11.9508 66.129C11.9508 65.5228 11.4594 65.0315 10.8533 65.0315C10.2472 65.0315 9.75586 65.5228 9.75586 66.129C9.75586 66.7351 10.2472 67.2264 10.8533 67.2264Z" fill="#014DAB" style="fill:#014DAB;fill:color(display-p3 0.0039 0.3020 0.6706);fill-opacity:1;"/>
<path d="M4.44805 67.9309C5.05417 67.9309 5.54552 67.4395 5.54552 66.8334C5.54552 66.2273 5.05417 65.736 4.44805 65.736C3.84194 65.736 3.35059 66.2273 3.35059 66.8334C3.35059 67.4395 3.84194 67.9309 4.44805 67.9309Z" fill="#014DAB" style="fill:#014DAB;fill:color(display-p3 0.0039 0.3020 0.6706);fill-opacity:1;"/>
<path d="M1.98028 77.7837C2.58639 77.7837 3.07775 77.2923 3.07775 76.6862C3.07775 76.0801 2.58639 75.5887 1.98028 75.5887C1.37416 75.5887 0.882812 76.0801 0.882812 76.6862C0.882812 77.2923 1.37416 77.7837 1.98028 77.7837Z" fill="#014DAB" style="fill:#014DAB;fill:color(display-p3 0.0039 0.3020 0.6706);fill-opacity:1;"/>
<path d="M5.31329 82.7049C5.9194 82.7049 6.41075 82.2136 6.41075 81.6075C6.41075 81.0014 5.9194 80.51 5.31329 80.51C4.70717 80.51 4.21582 81.0014 4.21582 81.6075C4.21582 82.2136 4.70717 82.7049 5.31329 82.7049Z" fill="#014DAB" style="fill:#014DAB;fill:color(display-p3 0.0039 0.3020 0.6706);fill-opacity:1;"/>
<path d="M9.86602 92.9242C10.4721 92.9242 10.9635 92.4328 10.9635 91.8267C10.9635 91.2206 10.4721 90.7292 9.86602 90.7292C9.25991 90.7292 8.76855 91.2206 8.76855 91.8267C8.76855 92.4328 9.25991 92.9242 9.86602 92.9242Z" fill="#014DAB" style="fill:#014DAB;fill:color(display-p3 0.0039 0.3020 0.6706);fill-opacity:1;"/>
<path opacity="0.1" d="M9.86602 92.9242C10.4721 92.9242 10.9635 92.4328 10.9635 91.8267C10.9635 91.2206 10.4721 90.7292 9.86602 90.7292C9.25991 90.7292 8.76855 91.2206 8.76855 91.8267C8.76855 92.4328 9.25991 92.9242 9.86602 92.9242Z" fill="black" style="fill:black;fill-opacity:1;"/>
<path d="M19.992 81.3489C20.5981 81.3489 21.0895 80.8575 21.0895 80.2514C21.0895 79.6453 20.5981 79.1539 19.992 79.1539C19.3859 79.1539 18.8945 79.6453 18.8945 80.2514C18.8945 80.8575 19.3859 81.3489 19.992 81.3489Z" fill="#014DAB" style="fill:#014DAB;fill:color(display-p3 0.0039 0.3020 0.6706);fill-opacity:1;"/>
<path opacity="0.1" d="M19.992 81.3489C20.5981 81.3489 21.0895 80.8575 21.0895 80.2514C21.0895 79.6453 20.5981 79.1539 19.992 79.1539C19.3859 79.1539 18.8945 79.6453 18.8945 80.2514C18.8945 80.8575 19.3859 81.3489 19.992 81.3489Z" fill="black" style="fill:black;fill-opacity:1;"/>
<path opacity="0.1" d="M21.1629 98.2873C21.8918 97.9188 22.1117 96.8763 21.6862 95.9132C21.7086 95.9539 21.731 95.9926 21.7513 96.0333C22.2542 97.029 22.0466 98.1468 21.2851 98.5316C20.5236 98.9165 19.5014 98.4217 18.9985 97.426C18.9781 97.3853 18.9578 97.3446 18.9395 97.3018C19.4627 98.216 20.434 98.6559 21.1629 98.2873Z" fill="black" style="fill:black;fill-opacity:1;"/>
<path opacity="0.1" d="M22.2439 100.429C22.9728 100.061 23.1947 99.0163 22.7692 98.0553C22.7916 98.094 22.814 98.1347 22.8343 98.1754C23.3373 99.1711 23.1296 100.289 22.3681 100.674C21.6066 101.059 20.5844 100.564 20.0815 99.5681C20.0591 99.5274 20.0408 99.4847 20.0225 99.4439C20.5457 100.362 21.519 100.798 22.2439 100.429Z" fill="black" style="fill:black;fill-opacity:1;"/>
<path opacity="0.1" d="M23.3269 102.569C24.0558 102.201 24.2777 101.158 23.8502 100.195C23.8746 100.236 23.8949 100.275 23.9173 100.317C24.4203 101.311 24.2105 102.431 23.4511 102.814C22.6916 103.196 21.6674 102.704 21.1645 101.708C21.1421 101.667 21.1238 101.627 21.1055 101.584C21.6267 102.498 22.5979 102.938 23.3269 102.569Z" fill="black" style="fill:black;fill-opacity:1;"/>
<path opacity="0.1" d="M24.4099 104.711C25.1388 104.343 25.3607 103.3 24.9332 102.337C24.9556 102.376 24.978 102.417 24.9983 102.457C25.5033 103.453 25.2936 104.571 24.5341 104.956C23.7746 105.34 22.7484 104.846 22.2455 103.85C22.2251 103.809 22.2068 103.767 22.1885 103.726C22.7097 104.638 23.681 105.08 24.4099 104.711Z" fill="black" style="fill:black;fill-opacity:1;"/>
<path opacity="0.1" d="M25.493 106.851C26.2219 106.483 26.4418 105.44 26.0162 104.479C26.0386 104.518 26.061 104.559 26.0814 104.599C26.5843 105.595 26.3766 106.713 25.6172 107.098C24.8577 107.482 23.8315 106.986 23.3286 105.992C23.3082 105.949 23.2899 105.908 23.2695 105.868C23.7928 106.78 24.764 107.22 25.493 106.851Z" fill="black" style="fill:black;fill-opacity:1;"/>
<path opacity="0.1" d="M26.577 108.993C27.3059 108.625 27.5258 107.582 27.1002 106.619C27.1226 106.66 27.145 106.699 27.1654 106.739C27.6683 107.735 27.4606 108.853 26.7012 109.238C25.9417 109.622 24.9155 109.128 24.4126 108.132C24.3922 108.091 24.3718 108.051 24.3535 108.008C24.8768 108.914 25.848 109.362 26.577 108.993Z" fill="black" style="fill:black;fill-opacity:1;"/>
<path opacity="0.1" d="M27.66 111.135C28.3869 110.767 28.6088 109.722 28.1832 108.761C28.2056 108.8 28.228 108.841 28.2484 108.881C28.7513 109.877 28.5436 110.995 27.7821 111.38C27.0206 111.764 25.9985 111.268 25.4956 110.274C25.4752 110.231 25.4548 110.19 25.4365 110.15C25.9598 111.062 26.931 111.504 27.66 111.135Z" fill="black" style="fill:black;fill-opacity:1;"/>
<path opacity="0.1" d="M28.7409 113.275C29.4699 112.907 29.6918 111.864 29.2642 110.901C29.2886 110.942 29.309 110.981 29.3314 111.023C29.8343 112.017 29.6246 113.137 28.8651 113.52C28.1057 113.902 27.0815 113.41 26.5786 112.414C26.5562 112.373 26.5379 112.333 26.5195 112.29C27.0428 113.204 28.012 113.644 28.7409 113.275Z" fill="black" style="fill:black;fill-opacity:1;"/>
<path opacity="0.1" d="M29.4598 114.682C30.1887 114.314 30.4086 113.271 29.983 112.308C30.0054 112.349 30.0278 112.388 30.0482 112.43C30.5511 113.424 30.3434 114.544 29.584 114.927C28.8245 115.309 27.7983 114.817 27.2954 113.821C27.275 113.78 27.2547 113.739 27.2363 113.697C27.7535 114.615 28.7247 115.051 29.4598 114.682Z" fill="black" style="fill:black;fill-opacity:1;"/>
<path d="M9.88416 105.153C9.77108 104.829 9.70258 104.492 9.68055 104.149C9.60526 104.149 9.53083 104.133 9.46192 104.103C9.393 104.073 9.33108 104.028 9.28001 103.973C9.22894 103.918 9.18983 103.853 9.16511 103.781C9.1404 103.71 9.13061 103.635 9.13637 103.56C9.14212 103.485 9.16329 103.412 9.19855 103.345C9.23381 103.279 9.28241 103.22 9.34131 103.173C9.40022 103.126 9.46815 103.092 9.54088 103.073C9.61362 103.053 9.68958 103.049 9.76403 103.06C9.8862 102.505 10.1303 101.984 10.4785 101.535C10.8268 101.086 11.2706 100.72 11.7777 100.464C11.7121 100.334 11.7008 100.183 11.7462 100.045C11.7917 99.907 11.8902 99.7925 12.02 99.7269C12.1499 99.6613 12.3005 99.65 12.4388 99.6954C12.577 99.7408 12.6915 99.8393 12.7571 99.9692C12.781 100.015 12.7974 100.065 12.806 100.116C13.4085 100.005 14.0286 100.04 14.6151 100.217C15.2015 100.394 15.7372 100.708 16.1778 101.134C16.5143 101.079 16.8568 101.069 17.1959 101.105L17.6397 103.125L17.6499 101.177C18.1548 101.293 18.6307 101.511 19.0492 101.817C19.4676 102.122 19.8198 102.509 20.0846 102.955C20.3494 103.4 20.5212 103.895 20.5898 104.408C20.6584 104.922 20.6222 105.444 20.4835 105.943C20.3449 106.443 20.1065 106.909 19.7829 107.313C19.4593 107.718 19.0571 108.053 18.6005 108.298C18.144 108.543 17.6425 108.693 17.1264 108.739C16.6103 108.785 16.0902 108.726 15.5975 108.566C15.5439 108.66 15.464 108.737 15.3674 108.788C15.2668 108.838 15.153 108.857 15.0414 108.841C14.9298 108.825 14.8259 108.775 14.7436 108.698C14.6614 108.621 14.6049 108.52 14.5817 108.41C14.5585 108.3 14.5698 108.185 14.6141 108.081C14.4395 107.959 14.2753 107.823 14.1234 107.674C13.3225 107.804 12.501 107.676 11.7768 107.311C11.0526 106.945 10.4628 106.359 10.0918 105.638L12.1585 105.29L9.88416 105.153Z" fill="#014DAB" style="fill:#014DAB;fill:color(display-p3 0.0039 0.3020 0.6706);fill-opacity:1;"/>
<g opacity="0.1">
<path d="M13.0776 106.135C13.8411 105.117 14.3094 103.936 14.847 102.791C15.0622 102.32 15.3042 101.862 15.5718 101.419L15.979 100.949C16.0483 101.008 16.1155 101.067 16.1826 101.128C16.5192 101.073 16.8616 101.063 17.2007 101.099L17.6446 103.119L17.6507 101.177C18.1555 101.293 18.6315 101.511 19.05 101.817C19.4684 102.122 19.8206 102.509 20.0854 102.955C20.3502 103.4 20.522 103.895 20.5906 104.408C20.6591 104.922 20.623 105.444 20.4843 105.943C20.3456 106.443 20.1073 106.909 19.7837 107.313C19.4601 107.718 19.0579 108.053 18.6013 108.298C18.1447 108.543 17.6433 108.693 17.1272 108.739C16.6111 108.785 16.091 108.726 15.5983 108.566C15.5447 108.66 15.4648 108.738 15.3682 108.788C15.2676 108.838 15.1537 108.857 15.0422 108.841C14.9306 108.825 14.8266 108.775 14.7444 108.698C14.6622 108.621 14.6057 108.52 14.5825 108.41C14.5593 108.3 14.5706 108.185 14.6148 108.081C14.4403 107.959 14.2761 107.823 14.1241 107.674C13.3398 107.8 12.5358 107.681 11.8213 107.334C12.3019 107.004 12.7261 106.599 13.0776 106.135Z" fill="black" style="fill:black;fill-opacity:1;"/>
</g>
<path d="M26.5904 101.806C26.5578 101.742 26.5383 101.672 26.5328 101.6C26.5274 101.528 26.5362 101.456 26.5587 101.388C26.5812 101.32 26.617 101.256 26.664 101.202C26.711 101.148 26.7684 101.103 26.8327 101.071C26.9095 101.031 26.9948 101.011 27.0811 101.012C27.2364 100.187 27.6577 99.4362 28.2804 98.8738C28.1797 98.4825 28.1419 98.0777 28.1684 97.6745L30.1821 97.3366L28.2254 97.2124C28.2608 97.0285 28.3098 96.8474 28.372 96.6707C28.2951 96.6196 28.2327 96.5494 28.1908 96.4671C28.1418 96.369 28.1233 96.2586 28.1376 96.1499C28.1519 96.0412 28.1984 95.9393 28.271 95.8572C28.3437 95.7751 28.4392 95.7166 28.5454 95.6892C28.6516 95.6619 28.7635 95.6669 28.8668 95.7036C29.2264 95.192 29.7069 94.7772 30.2656 94.4962C30.9236 94.1623 31.664 94.0252 32.3979 94.1015C33.1318 94.1777 33.8282 94.4641 34.4035 94.9261C34.9789 95.3882 35.4087 96.0064 35.6415 96.7066C35.8744 97.4068 35.9003 98.1592 35.7163 98.8738C35.812 98.9148 35.894 98.9823 35.9527 99.0683C36.0115 99.1542 36.0445 99.2552 36.0479 99.3592C36.0513 99.4633 36.025 99.5662 35.972 99.6559C35.9191 99.7455 35.8416 99.8182 35.7488 99.8654C35.6793 99.9007 35.603 99.9207 35.525 99.9243C35.4471 99.9278 35.3693 99.9146 35.2968 99.8858C35.1003 100.215 34.8553 100.513 34.5699 100.769C34.7786 101.581 34.7164 102.439 34.3928 103.213L31.699 102.504L34.1077 103.773C33.7461 104.35 33.2375 104.82 32.6341 105.136C32.0306 105.452 31.3541 105.601 30.6738 105.569C29.9935 105.538 29.3339 105.325 28.7627 104.954C28.1915 104.584 27.7292 104.068 27.4232 103.459C27.2101 103.036 27.0762 102.577 27.0282 102.105C26.9357 102.097 26.8469 102.065 26.7703 102.012C26.6937 101.96 26.6317 101.889 26.5904 101.806Z" fill="#014DAB" style="fill:#014DAB;fill:color(display-p3 0.0039 0.3020 0.6706);fill-opacity:1;"/>
<path opacity="0.1" d="M26.5904 101.806C26.5578 101.742 26.5383 101.672 26.5328 101.6C26.5274 101.528 26.5362 101.456 26.5587 101.388C26.5812 101.32 26.617 101.256 26.664 101.202C26.711 101.148 26.7684 101.103 26.8327 101.071C26.9095 101.031 26.9948 101.011 27.0811 101.012C27.2364 100.187 27.6577 99.4362 28.2804 98.8738C28.2641 98.8106 28.2498 98.7455 28.2376 98.6824C28.3106 98.7345 28.3788 98.7931 28.4412 98.8575C28.8057 99.2647 28.993 99.7921 29.3514 100.195C29.8004 100.658 30.404 100.94 31.0474 100.987C31.6847 101.031 32.325 100.98 32.9471 100.835C33.4602 100.702 33.9895 100.644 34.519 100.661L34.6697 100.682L34.576 100.769C34.7847 101.581 34.7225 102.439 34.3989 103.213L31.699 102.504L34.1077 103.773C33.7461 104.35 33.2375 104.82 32.6341 105.136C32.0306 105.452 31.3541 105.601 30.6738 105.569C29.9935 105.538 29.3339 105.325 28.7627 104.954C28.1915 104.584 27.7292 104.068 27.4232 103.459C27.2101 103.036 27.0762 102.577 27.0282 102.105C26.9357 102.097 26.8469 102.065 26.7703 102.012C26.6937 101.96 26.6317 101.889 26.5904 101.806Z" fill="black" style="fill:black;fill-opacity:1;"/>
</g>
<path opacity="0.1" d="M71.4038 10.5695C70.5988 10.4167 69.7666 10.5074 69.0134 10.8301C68.5616 11.0314 68.0726 11.1355 67.5779 11.1355C67.0833 11.1355 66.5943 11.0314 66.1425 10.8301C65.6085 10.596 65.0301 10.4808 64.4472 10.4924C63.8643 10.504 63.2908 10.6422 62.7666 10.8973C62.4672 11.0554 62.134 11.1386 61.7954 11.1396C60.4271 11.1396 59.2889 9.76115 59.0527 7.94289C59.3256 7.74292 59.5577 7.49276 59.7369 7.20582C60.5391 5.91289 61.773 5.08215 63.1759 5.08215C64.5788 5.08215 65.8004 5.8966 66.6027 7.18139C66.8423 7.56722 67.1772 7.8849 67.5752 8.10384C67.9732 8.32279 68.4208 8.43565 68.875 8.43156H68.9116C69.9908 8.42545 70.9335 9.29895 71.4038 10.5695Z" fill="#014DAB" style="fill:#014DAB;fill:color(display-p3 0.0039 0.3020 0.6706);fill-opacity:1;"/>
<path opacity="0.1" d="M75.5619 4.86835L73.3507 6.27124L74.6925 3.8279C74.312 3.52469 73.8412 3.35703 73.3547 3.35145H73.3201C73.1667 3.35332 73.0134 3.34174 72.862 3.31683L72.1107 3.79328L72.4324 3.20892C71.9029 3.02467 71.4444 2.67936 71.1211 2.2214L69.7753 3.06232L70.6223 1.52098C69.8384 0.578256 68.7796 0 67.617 0C66.2222 0 64.97 0.830734 64.1759 2.12367C63.9383 2.50986 63.6028 2.8263 63.2033 3.04087C62.8039 3.25543 62.3548 3.36048 61.9016 3.34534H61.8344C60.2951 3.34534 59.0449 5.09029 59.0449 7.24654C59.0449 9.40278 60.2951 11.1457 61.8344 11.1457C62.173 11.1447 62.5062 11.0615 62.8056 10.9034C63.3298 10.6481 63.9034 10.51 64.4864 10.4987C65.0694 10.4875 65.6478 10.6033 66.1815 10.8382C66.6335 11.0389 67.1225 11.1427 67.617 11.1427C68.1115 11.1427 68.6005 11.0389 69.0524 10.8382C69.582 10.6083 70.1549 10.4951 70.7322 10.5064C71.3095 10.5176 71.8775 10.653 72.3978 10.9034C72.6948 11.0573 73.0243 11.1383 73.3588 11.1396C74.9002 11.1396 76.1483 9.39464 76.1483 7.24043C76.1537 6.41321 75.9521 5.59777 75.5619 4.86835Z" fill="#014DAB" style="fill:#014DAB;fill:color(display-p3 0.0039 0.3020 0.6706);fill-opacity:1;"/>
<path opacity="0.1" d="M25.3872 38.7778C24.2374 38.5602 23.0489 38.6892 21.9726 39.1483C21.3267 39.4347 20.6277 39.5818 19.9211 39.58C19.2146 39.5783 18.5164 39.4277 17.8719 39.1382C17.1093 38.8038 16.2831 38.6392 15.4506 38.6557C14.6181 38.6722 13.7991 38.8695 13.0503 39.2339C12.6221 39.4595 12.1457 39.5782 11.6617 39.58C9.70704 39.58 8.08018 37.6111 7.74219 35.013C8.13278 34.7284 8.46465 34.3709 8.71952 33.9603C9.86586 32.1136 11.6413 30.9265 13.6347 30.9265C15.6281 30.9265 17.3812 32.0993 18.5214 33.9257C18.8641 34.4793 19.3442 34.9347 19.9151 35.2476C20.486 35.5605 21.1282 35.7203 21.7792 35.7114H21.8301C23.3734 35.7093 24.7214 36.9575 25.3872 38.7778Z" fill="#014DAB" style="fill:#014DAB;fill:color(display-p3 0.0039 0.3020 0.6706);fill-opacity:1;"/>
<path opacity="0.1" d="M31.3325 30.6232L28.1724 32.6267L30.0904 29.1389C29.5469 28.705 28.874 28.4649 28.1785 28.4568H28.1276C27.9081 28.46 27.6887 28.4436 27.472 28.4079L26.4051 29.0981L26.8652 28.2633C26.106 27.998 25.4502 27.4991 24.992 26.8381L23.074 28.0597L24.2814 25.8404C23.1595 24.4945 21.6487 23.6699 19.9872 23.6699C17.9939 23.6699 16.2184 24.8549 15.0721 26.7016C14.7325 27.2558 14.2521 27.71 13.6798 28.018C13.1075 28.326 12.4638 28.4767 11.8143 28.4547H11.7064C9.50532 28.4547 7.72168 30.949 7.72168 34.0276C7.72168 37.1062 9.50532 39.6004 11.7064 39.6004C12.1907 39.5991 12.6674 39.4796 13.095 39.2523C13.8439 38.8882 14.6629 38.6913 15.4954 38.6751C16.328 38.6589 17.1541 38.8239 17.9165 39.1586C18.561 39.4481 19.2593 39.5987 19.9658 39.6004C20.6723 39.6022 21.3713 39.4551 22.0172 39.1688C22.7741 38.8403 23.5927 38.6785 24.4176 38.6943C25.2425 38.7101 26.0544 38.9032 26.798 39.2604C27.2216 39.4821 27.6923 39.5987 28.1704 39.6004C30.3714 39.6004 32.1551 37.1042 32.1551 34.0276C32.1704 32.8418 31.8876 31.6712 31.3325 30.6232Z" fill="#014DAB" style="fill:#014DAB;fill:color(display-p3 0.0039 0.3020 0.6706);fill-opacity:1;"/>
<path opacity="0.1" d="M153.178 18.5103C153.983 18.3576 154.815 18.4484 155.568 18.771C156.02 18.9724 156.508 19.0764 157.003 19.0764C157.497 19.0764 157.986 18.9724 158.437 18.771C158.971 18.5369 159.549 18.4217 160.132 18.4333C160.715 18.4449 161.289 18.583 161.813 18.8381C162.112 18.996 162.446 19.0792 162.784 19.0804C164.152 19.0804 165.293 17.702 165.529 15.8837C165.256 15.6843 165.023 15.434 164.845 15.1467C164.047 13.8497 162.798 13.0128 161.4 13.0128C160.001 13.0128 158.777 13.8273 157.975 15.1121C157.736 15.4996 157.4 15.8189 157.002 16.039C156.603 16.259 156.154 16.3725 155.698 16.3683H155.664C154.581 16.3663 153.636 17.2398 153.178 18.5103Z" fill="#014DAB" style="fill:#014DAB;fill:color(display-p3 0.0039 0.3020 0.6706);fill-opacity:1;"/>
<path opacity="0.1" d="M149.008 12.8092L151.219 14.208L149.876 11.7647C150.256 11.4618 150.727 11.2941 151.213 11.2882H151.25C151.403 11.29 151.557 11.2784 151.708 11.2536L152.457 11.7301L152.136 11.1457C152.669 10.9645 153.132 10.6206 153.459 10.1623L154.801 11.0134L153.952 9.47203C154.738 8.52931 155.784 7.95105 156.959 7.95105C158.354 7.95105 159.606 8.78179 160.4 10.0747C160.638 10.4611 160.973 10.7776 161.373 10.9922C161.772 11.2068 162.221 11.3117 162.675 11.2964H162.748C164.289 11.2964 165.537 13.0413 165.537 15.1976C165.537 17.3538 164.289 19.0967 162.748 19.0967C162.409 19.0952 162.076 19.0121 161.777 18.8544C161.252 18.5991 160.679 18.461 160.096 18.4498C159.513 18.4385 158.934 18.5544 158.401 18.7893C157.949 18.99 157.461 19.0936 156.966 19.0936C156.472 19.0936 155.984 18.99 155.532 18.7893C155.002 18.5593 154.429 18.4461 153.851 18.4574C153.274 18.4686 152.705 18.604 152.185 18.8544C151.888 19.0086 151.558 19.0895 151.224 19.0906C149.684 19.0906 148.434 17.3457 148.434 15.1915C148.423 14.3619 148.621 13.5428 149.008 12.8092Z" fill="#014DAB" style="fill:#014DAB;fill:color(display-p3 0.0039 0.3020 0.6706);fill-opacity:1;"/>
<path opacity="0.1" d="M126.232 158.182C139.164 158.182 149.647 156.359 149.647 154.11C149.647 151.861 139.164 150.037 126.232 150.037C113.3 150.037 102.816 151.861 102.816 154.11C102.816 156.359 113.3 158.182 126.232 158.182Z" fill="#014DAB" style="fill:#014DAB;fill:color(display-p3 0.0039 0.3020 0.6706);fill-opacity:1;"/>
<path d="M113.977 134.766L77.6953 134.3L77.8032 133.37L79.5563 118.019H111.419L113.763 133.37L113.942 134.534L113.977 134.766Z" fill="#D0D2D5" style="fill:#D0D2D5;fill:color(display-p3 0.8157 0.8235 0.8353);fill-opacity:1;"/>
<path opacity="0.1" d="M113.942 134.534H95.8371L77.6953 134.3L77.8032 133.37H113.763L113.942 134.534Z" fill="black" style="fill:black;fill-opacity:1;"/>
<path d="M119.792 133.604H71.6484V134.766H119.792V133.604Z" fill="#D0D2D5" style="fill:#D0D2D5;fill:color(display-p3 0.8157 0.8235 0.8353);fill-opacity:1;"/>
<path d="M165.725 25.8241C165.727 25.0218 165.412 24.2512 164.847 23.6816C164.282 23.112 163.514 22.79 162.711 22.7862H28.2625C27.8649 22.7881 27.4716 22.8682 27.1049 23.0221C26.7383 23.176 26.4056 23.4006 26.1258 23.6831C25.8459 23.9655 25.6245 24.3004 25.4741 24.6684C25.3236 25.0365 25.2472 25.4305 25.2491 25.8282V107.324H165.725V25.8241Z" fill="#3F3D56" style="fill:#3F3D56;fill:color(display-p3 0.2471 0.2392 0.3373);fill-opacity:1;"/>
<path d="M25.249 106.509V116.054C25.249 116.854 25.5665 117.62 26.1316 118.185C26.6968 118.75 27.4633 119.068 28.2625 119.068H162.711C163.51 119.068 164.277 118.75 164.842 118.185C165.407 117.62 165.725 116.854 165.725 116.054V106.509H25.249Z" fill="#D0D2D5" style="fill:#D0D2D5;fill:color(display-p3 0.8157 0.8235 0.8353);fill-opacity:1;"/>
<path d="M160.608 27.8969H31.0645V101.158H160.608V27.8969Z" fill="white" style="fill:white;fill-opacity:1;"/>
<path d="M96.1851 115.446C96.6608 115.446 97.1304 115.339 97.5583 115.131C97.9862 114.923 98.3612 114.621 98.6549 114.246C98.7442 114.132 98.8258 114.013 98.8993 113.888L97.1747 113.597L99.0377 113.609C99.2163 113.221 99.3137 112.8 99.3239 112.372C99.334 111.945 99.2567 111.52 99.0968 111.123L96.5984 112.418L98.9033 110.724C98.6869 110.352 98.3962 110.028 98.0494 109.773C97.7026 109.518 97.3071 109.337 96.8874 109.242C96.4677 109.146 96.0328 109.138 95.6098 109.217C95.1867 109.297 94.7845 109.462 94.4282 109.704C94.0718 109.945 93.7689 110.257 93.5383 110.621C93.3077 110.984 93.1543 111.391 93.0877 111.817C93.021 112.242 93.0425 112.676 93.1508 113.093C93.2592 113.509 93.452 113.899 93.7173 114.238C94.0101 114.614 94.3844 114.917 94.812 115.127C95.2395 115.336 95.7091 115.445 96.1851 115.446Z" fill="#014DAB" style="fill:#014DAB;fill:color(display-p3 0.0039 0.3020 0.6706);fill-opacity:1;"/>
<path opacity="0.1" d="M99.3252 119.066L113.8 133.604L111.579 119.066H99.3252Z" fill="black" style="fill:black;fill-opacity:1;"/>
<path opacity="0.1" d="M160.646 27.9049H30.9619V32.1848H160.646V27.9049Z" fill="#444053" style="fill:#444053;fill:color(display-p3 0.2667 0.2510 0.3255);fill-opacity:1;"/>
<path opacity="0.3" d="M114.944 28.6501H76.1074C76.0421 28.6501 75.9893 28.703 75.9893 28.7682V31.1362C75.9893 31.2015 76.0421 31.2543 76.1074 31.2543H114.944C115.009 31.2543 115.062 31.2015 115.062 31.1362V28.7682C115.062 28.703 115.009 28.6501 114.944 28.6501Z" fill="#014DAB" style="fill:#014DAB;fill:color(display-p3 0.0039 0.3020 0.6706);fill-opacity:1;"/>
<path d="M113.901 30.2221H113.806L113.771 30.1916C113.89 30.0492 113.954 29.8698 113.954 29.6846C113.953 29.5325 113.907 29.3842 113.822 29.2584C113.736 29.1326 113.615 29.0349 113.475 28.9777C113.334 28.9204 113.179 28.9062 113.03 28.9367C112.881 28.9673 112.745 29.0412 112.638 29.1493C112.531 29.2574 112.458 29.3947 112.429 29.544C112.4 29.6933 112.416 29.8478 112.475 29.988C112.534 30.1283 112.633 30.248 112.759 30.332C112.886 30.4161 113.035 30.4607 113.187 30.4603C113.372 30.4597 113.552 30.3941 113.694 30.275L113.728 30.3056V30.4013L114.325 30.9979L114.502 30.8187L113.901 30.2221ZM113.187 30.2221C113.08 30.2225 112.976 30.1913 112.888 30.1325C112.799 30.0737 112.73 29.9899 112.689 29.8917C112.648 29.7935 112.637 29.6854 112.657 29.5809C112.678 29.4765 112.729 29.3806 112.804 29.3052C112.879 29.2298 112.975 29.1784 113.079 29.1575C113.183 29.1366 113.292 29.1471 113.39 29.1878C113.488 29.2284 113.572 29.2973 113.631 29.3857C113.691 29.4742 113.722 29.5782 113.722 29.6846C113.723 29.7551 113.709 29.8251 113.683 29.8904C113.656 29.9558 113.616 30.0151 113.567 30.0651C113.517 30.1151 113.458 30.1547 113.392 30.1817C113.327 30.2086 113.257 30.2224 113.187 30.2221Z" fill="#3F3D56" style="fill:#3F3D56;fill:color(display-p3 0.2471 0.2392 0.3373);fill-opacity:1;"/>
<path opacity="0.8" d="M33.2937 30.8288C33.7266 30.8288 34.0776 30.4778 34.0776 30.0449C34.0776 29.612 33.7266 29.261 33.2937 29.261C32.8607 29.261 32.5098 29.612 32.5098 30.0449C32.5098 30.4778 32.8607 30.8288 33.2937 30.8288Z" fill="#FA5959" style="fill:#FA5959;fill:color(display-p3 0.9804 0.3490 0.3490);fill-opacity:1;"/>
<path opacity="0.8" d="M35.4499 30.8288C35.8829 30.8288 36.2338 30.4778 36.2338 30.0449C36.2338 29.612 35.8829 29.261 35.4499 29.261C35.017 29.261 34.666 29.612 34.666 30.0449C34.666 30.4778 35.017 30.8288 35.4499 30.8288Z" fill="#FED253" style="fill:#FED253;fill:color(display-p3 0.9961 0.8235 0.3255);fill-opacity:1;"/>
<path opacity="0.8" d="M37.6081 30.8288C38.0411 30.8288 38.392 30.4778 38.392 30.0449C38.392 29.612 38.0411 29.261 37.6081 29.261C37.1752 29.261 36.8242 29.612 36.8242 30.0449C36.8242 30.4778 37.1752 30.8288 37.6081 30.8288Z" fill="#8CCF4D" style="fill:#8CCF4D;fill:color(display-p3 0.5490 0.8118 0.3020);fill-opacity:1;"/>
<path d="M102.699 59.3324C100.921 56.9705 98.3457 55.4801 95.4788 55.4801C92.612 55.4801 90.0363 56.9705 88.2588 59.3324C88.6517 60.2963 89.2332 61.172 89.9691 61.9081C90.8785 62.8171 91.9987 63.487 93.2298 63.8581C94.4609 64.2291 95.7646 64.2899 97.0249 64.0349C98.2852 63.7799 99.4628 63.2171 100.453 62.3966C101.443 61.5761 102.214 60.5235 102.699 59.3324Z" fill="#014DAB" style="fill:#014DAB;fill:color(display-p3 0.0039 0.3020 0.6706);fill-opacity:1;"/>
<path d="M87.3199 60.7149C87.1933 60.6605 87.0731 60.5922 86.9615 60.5113C86.7928 60.3731 86.6577 60.1984 86.5665 60.0002C86.683 59.7609 86.732 59.4944 86.7081 59.2293C86.6842 58.9642 86.5885 58.7107 86.4311 58.496C86.2738 58.2814 86.0608 58.1138 85.8152 58.0112C85.5696 57.9087 85.3006 57.8752 85.0374 57.9143C84.7741 57.9534 84.5265 58.0636 84.3213 58.233C84.116 58.4025 83.9609 58.6248 83.8727 58.8759C83.7845 59.127 83.7666 59.3974 83.8207 59.658C83.8749 59.9185 83.9992 60.1594 84.1802 60.3545C84.2823 60.4629 84.3987 60.5567 84.5263 60.6335C84.6921 60.7294 84.827 60.8707 84.9152 61.0407C85.0818 61.377 85.3113 61.6784 85.5912 61.9284C85.8784 62.1748 86.1887 62.393 86.5176 62.58C86.0648 63.8616 85.808 65.2043 85.7561 66.5626C85.2297 66.5715 84.7072 66.6559 84.2046 66.8131C83.9473 66.8931 83.7046 67.0141 83.4859 67.1714C83.4271 67.1643 83.3679 67.1603 83.3087 67.1592C83.0416 67.1592 82.7795 67.2323 82.5509 67.3706C82.3223 67.5089 82.1359 67.7071 82.0119 67.9438C81.8879 68.1804 81.8311 68.4465 81.8475 68.7132C81.8639 68.9798 81.953 69.2369 82.1051 69.4566C82.2572 69.6762 82.4665 69.8501 82.7103 69.9593C82.9541 70.0685 83.2232 70.1089 83.4883 70.0761C83.7535 70.0433 84.0046 69.9386 84.2145 69.7733C84.4244 69.608 84.585 69.3884 84.679 69.1383C84.7369 68.977 84.8379 68.8348 84.9711 68.727C85.1044 68.6193 85.2646 68.5503 85.4344 68.5275C85.5594 68.5124 85.6852 68.5042 85.8111 68.5031C85.986 70.419 86.5804 72.2729 87.552 73.9334C86.6887 74.6033 86.1573 75.3342 85.9333 76.1446C85.8915 76.1678 85.8525 76.1958 85.8172 76.2281C85.7559 76.2761 85.6986 76.3292 85.6462 76.3869C85.4717 76.5788 85.3514 76.8136 85.2977 77.0672C85.2439 77.3209 85.2585 77.5843 85.3401 77.8305C85.4217 78.0766 85.5673 78.2966 85.762 78.468C85.9567 78.6393 86.1934 78.7557 86.448 78.8053C86.7025 78.855 86.9656 78.836 87.2104 78.7504C87.4552 78.6648 87.6728 78.5156 87.8409 78.3182C88.009 78.1207 88.1216 77.8821 88.1671 77.6268C88.2125 77.3715 88.1893 77.1087 88.0997 76.8654C88.0332 76.6887 88.0203 76.4962 88.0627 76.3122C88.1051 76.1282 88.2008 75.9608 88.3379 75.831C88.4357 75.7394 88.5415 75.6417 88.6841 75.5338C90.3354 77.462 92.3002 78.6979 94.7537 78.8445V65.7624C91.5102 65.5853 88.6841 63.4739 87.3199 60.7149ZM107.646 67.1735C107.587 67.1743 107.528 67.1784 107.469 67.1857C107.248 67.0318 107.006 66.9111 106.751 66.8273C106.248 66.6696 105.726 66.5852 105.199 66.5769C105.142 65.2198 104.886 63.8784 104.437 62.5963C104.766 62.4093 105.077 62.1911 105.364 61.9447C105.653 61.6804 105.89 61.365 106.064 61.0142C106.146 60.8619 106.272 60.7377 106.425 60.6579C106.673 60.5183 106.875 60.3091 107.006 60.0561C107.137 59.8031 107.192 59.5173 107.163 59.2338C107.133 58.9504 107.022 58.6816 106.842 58.4606C106.662 58.2397 106.422 58.076 106.15 57.9899C105.878 57.9038 105.588 57.899 105.313 57.976C105.039 58.053 104.793 58.2085 104.606 58.4234C104.419 58.6382 104.299 58.9031 104.26 59.1855C104.221 59.4678 104.266 59.7552 104.389 60.0125C104.299 60.2115 104.164 60.3866 103.994 60.5235C103.879 60.6179 103.76 60.7056 103.635 60.7862C102.271 63.5431 99.447 65.5955 96.2075 65.7726V78.8669C98.6509 78.7203 100.628 77.4783 102.277 75.5562C102.405 75.658 102.513 75.7496 102.605 75.8351C102.748 75.9676 102.848 76.1394 102.894 76.3288C102.94 76.5183 102.928 76.717 102.862 76.9C102.772 77.1431 102.749 77.4054 102.795 77.6603C102.841 77.9152 102.953 78.1533 103.121 78.3505C103.289 78.5477 103.506 78.6968 103.75 78.7825C103.994 78.8683 104.257 78.8877 104.511 78.8386C104.765 78.7896 105.002 78.6739 105.197 78.5035C105.392 78.333 105.538 78.1139 105.62 77.8685C105.702 77.623 105.718 77.3601 105.666 77.1066C105.613 76.8531 105.494 76.6181 105.321 76.4256C105.269 76.3679 105.212 76.3148 105.15 76.2668C105.083 76.2138 105.034 76.1833 105.034 76.1833C104.81 75.3688 104.281 74.6419 103.405 73.9721C104.377 72.3116 104.971 70.4576 105.146 68.5417C105.267 68.5432 105.387 68.5513 105.506 68.5662C105.68 68.5886 105.844 68.6571 105.982 68.7645C106.12 68.872 106.226 69.0144 106.29 69.177C106.412 69.4868 106.636 69.7459 106.924 69.9114C107.213 70.0768 107.55 70.1388 107.879 70.0871C108.207 70.0353 108.509 69.8729 108.733 69.6267C108.957 69.3806 109.09 69.0653 109.11 68.7331C109.121 68.5337 109.09 68.3342 109.022 68.1467C108.953 67.9592 108.847 67.7875 108.71 67.6418C108.574 67.4962 108.409 67.3797 108.226 67.2992C108.043 67.2187 107.846 67.176 107.646 67.1735Z" fill="#014DAB" style="fill:#014DAB;fill:color(display-p3 0.0039 0.3020 0.6706);fill-opacity:1;"/>
<path d="M139.542 151.735C139.424 151.548 139.274 151.382 139.1 151.245C138.21 150.404 137.797 149.17 137.577 147.96C137.357 146.751 137.294 145.517 136.942 144.334C136.75 143.728 136.511 143.137 136.225 142.569C136.022 142.133 135.765 141.28 135.392 140.975C135.319 140.911 135.231 140.868 135.136 140.85C134.96 140.476 134.709 140.142 134.399 139.869C133.816 139.342 133.106 138.922 132.717 138.24C132.61 138.003 132.478 137.779 132.324 137.57C132.061 137.281 131.646 137.163 131.404 136.857C131.088 136.462 131.159 135.896 131.2 135.394C131.241 134.891 131.2 134.288 130.764 134.023C130.504 133.862 130.168 133.879 129.897 133.736C129.49 133.532 129.329 133.019 129.337 132.561C129.345 132.103 129.488 131.657 129.524 131.199C129.638 129.741 128.677 128.292 129.048 126.878C129.188 126.343 129.51 125.879 129.748 125.38C129.831 125.214 129.9 125.041 129.952 124.863C130.587 125.115 131.255 125.276 131.935 125.341C130.813 122.825 131.098 119.901 130.575 117.197L130.642 117.105C131.171 116.408 131.471 115.565 131.501 114.69C131.501 113.684 131.031 112.744 130.819 111.758C130.638 110.921 130.646 110.046 130.412 109.223C130.25 108.712 130.034 108.219 129.769 107.753C129.515 107.282 129.248 106.819 128.968 106.363C128.708 105.499 128.447 104.636 128.185 103.773C127.818 102.561 127.441 101.329 126.729 100.283C126.468 99.8999 126.389 99.1222 125.988 98.89C125.662 98.7215 125.292 98.6568 124.929 98.7047C124.363 98.3871 123.866 97.929 123.795 97.3019C123.788 97.1648 123.801 97.0275 123.835 96.8946H123.905C124.801 96.8132 125.255 96.0232 125.721 95.3309C126.474 94.211 126.187 92.6962 125.721 91.4216C125.605 91.0193 125.396 90.6501 125.11 90.3445C124.456 89.7336 123.422 89.868 122.579 89.5728C122.296 89.475 122.031 89.3264 121.742 89.2572C121.182 89.1269 120.596 89.3101 120.083 89.5687C119.57 89.8273 119.091 90.1612 118.554 90.3648C118.016 90.5684 117.352 90.7293 117.22 91.2811C117.183 91.4669 117.199 91.6594 117.265 91.8369C117.389 92.191 117.606 92.5048 117.894 92.745C117.665 93.2169 117.541 93.7328 117.531 94.2572C117.521 94.7816 117.625 95.3019 117.835 95.7823C118.046 96.2627 118.358 96.6918 118.75 97.0399C119.142 97.388 119.605 97.6469 120.107 97.7987C120.262 98.0471 120.407 98.2996 120.539 98.5581C120.775 99.0142 120.975 99.5518 120.893 100.04C120.746 100.197 120.61 100.364 120.486 100.539C119.902 101.354 119.57 102.309 119.264 103.262C118.854 104.478 118.526 105.721 118.281 106.982C117.784 108.038 117.177 109.048 116.817 110.158C116.172 110.159 115.529 110.072 114.907 109.901L113.189 109.512C112.59 109.376 111.967 109.229 111.499 108.834C111.25 108.631 111.057 108.36 110.804 108.158C110.552 107.957 110.045 107.721 109.768 107.888C109.717 107.918 109.67 107.955 109.627 107.996C109.375 107.484 109.135 106.977 108.841 106.483C108.42 105.79 107.793 105.157 106.999 105.025C106.514 104.947 106.017 105.062 105.616 105.347C105.152 105.676 104.861 106.365 105.209 106.829C105.296 106.932 105.391 107.029 105.492 107.118C105.728 107.39 105.938 107.682 106.121 107.991C106.778 108.913 107.759 109.55 108.868 109.775L108.797 109.979C108.652 110.402 108.345 110.913 108.422 111.353L116.066 113.97C116.556 114.169 117.076 114.283 117.605 114.31C117.811 114.308 118.016 114.28 118.216 114.228V114.619V114.635C118.236 117.321 117.809 119.988 117.729 122.672C117.715 123.163 117.729 123.69 118.039 124.073C118.385 124.492 119 124.576 119.535 124.48C119.664 124.458 119.79 124.43 119.914 124.394C120.095 125.07 120.226 125.758 120.305 126.453L120.81 130.089C120.875 130.462 120.901 130.84 120.889 131.217C120.83 132.071 120.38 132.834 120.054 133.622C119.729 134.41 119.535 135.353 119.963 136.09C120.097 136.318 120.282 136.511 120.403 136.748C120.555 137.113 120.625 137.508 120.606 137.904C120.637 139.001 120.667 140.099 120.696 141.198C120.607 141.184 120.516 141.202 120.439 141.249C120.016 141.579 120.063 143.149 120.032 143.636C119.999 144.45 120.032 145.281 119.987 146.103C119.934 147.212 119.756 148.311 119.456 149.38C119.382 149.727 119.222 150.05 118.989 150.318C118.751 150.525 118.467 150.673 118.161 150.748C117.146 151.066 116.086 151.21 115.023 151.175C114.594 151.161 114.146 151.12 113.746 151.283C113.347 151.446 113.026 151.894 113.17 152.301C113.294 152.643 113.671 152.806 114.011 152.935C114.788 153.208 115.538 153.553 116.251 153.965C116.525 154.152 116.815 154.316 117.116 154.456C117.405 154.559 117.704 154.633 118.008 154.676L121.618 155.299C122.357 155.425 123.247 155.502 123.717 154.891C123.972 154.562 124.009 154.114 123.996 153.694C123.976 152.88 123.813 152.051 123.919 151.237C123.999 150.755 124.126 150.283 124.298 149.825C124.657 148.757 125.018 147.69 125.381 146.623C125.743 145.552 126.11 144.471 126.25 143.347C126.301 142.939 126.297 142.475 125.986 142.221C125.907 142.156 125.815 142.109 125.717 142.082C125.705 141.101 125.576 140.117 125.631 139.136C125.646 138.892 125.67 138.647 125.69 138.401C125.879 138.58 126.048 138.78 126.193 138.995C126.541 139.541 126.67 140.262 127.201 140.624C127.653 140.934 128.323 140.917 128.641 141.365C128.743 141.537 128.82 141.723 128.869 141.917C129.053 142.397 129.33 142.837 129.683 143.21C129.804 143.657 129.973 144.09 130.186 144.501C130.486 145.135 130.785 145.767 131.082 146.397C131.388 147.077 131.727 147.74 132.1 148.386C132.385 148.792 132.614 149.235 132.782 149.701C133.069 150.707 132.601 151.811 131.86 152.552C131.119 153.293 130.141 153.719 129.178 154.116C129.077 154.15 128.984 154.205 128.905 154.278C128.822 154.377 128.778 154.503 128.781 154.633C128.781 155.103 129.168 155.506 129.612 155.651C130.066 155.773 130.541 155.79 131.003 155.702C133.605 155.386 136.199 154.751 138.5 153.486C138.844 153.323 139.149 153.088 139.393 152.796C139.512 152.649 139.588 152.473 139.614 152.286C139.64 152.1 139.615 151.909 139.542 151.735Z" fill="url(#paint0_linear_79_9316)" style=""/>
<path d="M128.545 106.076C128.979 106.742 129.386 107.425 129.766 108.124C130.033 108.586 130.249 109.076 130.412 109.584C130.648 110.398 130.642 111.268 130.819 112.098C131.023 113.076 131.499 114.008 131.499 115.01C131.468 115.878 131.168 116.715 130.64 117.405C130.114 118.088 129.511 118.71 128.844 119.257C127.307 115.274 126.448 111.061 126.303 106.794C126.283 106.204 126.279 105.595 126.494 105.043C126.627 104.697 127.262 103.748 127.671 104.121C127.82 104.257 127.859 104.872 127.95 105.078C128.122 105.426 128.321 105.759 128.545 106.076Z" fill="#2F2E41" style="fill:#2F2E41;fill:color(display-p3 0.1843 0.1804 0.2549);fill-opacity:1;"/>
<path opacity="0.1" d="M128.545 106.076C128.979 106.742 129.386 107.425 129.766 108.124C130.033 108.586 130.249 109.076 130.412 109.584C130.648 110.398 130.642 111.268 130.819 112.098C131.023 113.076 131.499 114.008 131.499 115.01C131.468 115.878 131.168 116.715 130.64 117.405C130.114 118.088 129.511 118.71 128.844 119.257C127.307 115.274 126.448 111.061 126.303 106.794C126.283 106.204 126.279 105.595 126.494 105.043C126.627 104.697 127.262 103.748 127.671 104.121C127.82 104.257 127.859 104.872 127.95 105.078C128.122 105.426 128.321 105.759 128.545 106.076Z" fill="black" style="fill:black;fill-opacity:1;"/>
<path d="M74.8647 78.2968C73.2542 79.9054 73.0607 80.6139 72.0936 80.9336C71.1264 81.2533 67.6467 83.0552 68.7401 85.0527L71.6803 86.9951L71.7658 87.0521L72.2158 88.4041L67.7689 96.3205C67.7689 96.3205 60.4389 92.9691 59.7201 97.927C59.0014 102.885 59.4575 104.239 59.264 106.886C59.0706 109.533 59.3271 110.298 58.6817 110.298C58.0362 110.298 57.7817 108.56 57.7817 108.56C57.7817 108.56 57.741 108.48 57.6697 108.332C56.7107 106.338 50.2013 91.7047 60.6282 81.6462C60.6282 81.6462 65.4579 81.3286 66.6205 75.7904C67.4227 71.9625 70.2285 72.2923 72.0936 73.0722C72.6998 73.3099 73.2646 73.6418 73.7673 74.0556C74.2196 74.4839 74.6219 74.962 74.9665 75.4809C75.498 76.3198 75.7871 77.3724 74.8647 78.2968Z" fill="#D0D2D5" style="fill:#D0D2D5;fill:color(display-p3 0.8157 0.8235 0.8353);fill-opacity:1;"/>
<path opacity="0.1" d="M71.7663 87.0521L72.2162 88.4041L67.7694 96.3205C67.7694 96.3205 60.4394 92.969 59.7206 97.927C59.0019 102.885 59.4579 104.239 59.2645 106.886C59.0711 109.533 59.3276 110.298 58.6822 110.298C58.0367 110.298 57.7822 108.56 57.7822 108.56C57.7822 108.56 57.7415 108.48 57.6702 108.332C57.3465 105.856 55.7054 91.3727 61.6549 92.1424C61.6549 92.1424 66.4825 94.3984 67.2542 93.4984C67.8651 92.7858 70.5772 88.6871 71.6807 87.0052L71.7663 87.0521Z" fill="black" style="fill:black;fill-opacity:1;"/>
<path opacity="0.1" d="M74.9668 75.4686L72.0266 78.8098C72.0266 78.8098 68.6121 83.3789 67.9035 83.1855C67.6914 83.1392 67.4752 83.114 67.2581 83.1101C67.0217 83.092 66.7953 83.0073 66.6051 82.8658C66.4149 82.7243 66.2687 82.5317 66.1835 82.3105C66.0983 82.0893 66.0775 81.8485 66.1235 81.616C66.1695 81.3834 66.2805 81.1687 66.4436 80.9966C67.6083 79.775 69.7543 77.4558 69.8948 76.9407C70.0353 76.4256 71.4016 74.1675 72.0857 73.0619C72.6919 73.2996 73.2567 73.6315 73.7594 74.0453C74.2144 74.4725 74.6195 74.95 74.9668 75.4686Z" fill="black" style="fill:black;fill-opacity:1;"/>
<path d="M158.154 123.539C157.655 124.537 155.1 128.279 153.982 129.914L153.459 130.684C153.459 130.684 153.255 132.036 149.918 130.36C146.581 128.685 68.1721 95.5998 68.1721 95.5998L67.6406 94.0034L71.5092 88.2107L157.448 121.414C157.448 121.414 158.8 122.25 158.154 123.539Z" fill="#454B69" style="fill:#454B69;fill:color(display-p3 0.2706 0.2941 0.4118);fill-opacity:1;"/>
<path opacity="0.1" d="M153.982 129.914L153.459 130.684C153.459 130.684 153.255 132.036 149.918 130.36C146.581 128.685 68.1721 95.5997 68.1721 95.5997L67.6406 94.0034L153.982 129.914Z" fill="black" style="fill:black;fill-opacity:1;"/>
<path d="M106.688 108.303C105.892 108.173 105.008 108.236 104.389 108.753C104.015 109.07 103.778 109.519 103.729 110.007C103.676 110.571 104.004 111.241 104.57 111.284C104.706 111.285 104.842 111.277 104.977 111.257C105.335 111.256 105.692 111.286 106.044 111.347C106.738 111.412 107.437 111.31 108.083 111.049C108.728 110.789 109.302 110.377 109.756 109.848C110.243 109.238 109.601 108.973 109.027 108.851C108.241 108.684 107.474 108.429 106.688 108.303Z" fill="#FBBEBE" style="fill:#FBBEBE;fill:color(display-p3 0.9843 0.7451 0.7451);fill-opacity:1;"/>
<path d="M120.305 126.691L120.81 130.279C120.874 130.649 120.9 131.025 120.888 131.401C120.828 132.246 120.378 133.003 120.055 133.785C119.731 134.567 119.533 135.503 119.963 136.228C120.095 136.454 120.281 136.648 120.401 136.882C120.554 137.244 120.623 137.636 120.604 138.028L120.743 143.119C122.315 143.226 123.892 143.217 125.463 143.092C125.524 143.095 125.585 143.076 125.634 143.039C125.675 142.987 125.696 142.921 125.693 142.854C125.762 141.663 125.554 140.47 125.621 139.278C125.646 138.843 125.707 138.409 125.715 137.971C125.74 136.198 124.864 134.461 125.129 132.708C125.212 132.265 125.321 131.828 125.455 131.399C126.291 128.344 126.114 125.136 125.929 121.982C125.932 121.931 125.918 121.881 125.888 121.839C125.858 121.809 125.82 121.788 125.778 121.78C124.887 121.513 123.945 121.464 123.032 121.638C122.118 121.811 121.26 122.202 120.529 122.778C120.307 122.957 119.747 123.13 119.601 123.344C119.397 123.641 119.664 123.938 119.782 124.254C120.043 125.045 120.219 125.862 120.305 126.691Z" fill="#3F3D56" style="fill:#3F3D56;fill:color(display-p3 0.2471 0.2392 0.3373);fill-opacity:1;"/>
<path opacity="0.1" d="M120.305 126.691L120.81 130.279C120.874 130.649 120.9 131.025 120.888 131.401C120.828 132.246 120.378 133.003 120.055 133.785C119.731 134.567 119.533 135.503 119.963 136.228C120.095 136.454 120.281 136.648 120.401 136.882C120.554 137.244 120.623 137.636 120.604 138.028L120.743 143.119C122.315 143.226 123.892 143.217 125.463 143.092C125.524 143.095 125.585 143.076 125.634 143.039C125.675 142.987 125.696 142.921 125.693 142.854C125.762 141.663 125.554 140.47 125.621 139.278C125.646 138.843 125.707 138.409 125.715 137.971C125.74 136.198 124.864 134.461 125.129 132.708C125.212 132.265 125.321 131.828 125.455 131.399C126.291 128.344 126.114 125.136 125.929 121.982C125.932 121.931 125.918 121.881 125.888 121.839C125.858 121.809 125.82 121.788 125.778 121.78C124.887 121.513 123.945 121.464 123.032 121.638C122.118 121.811 121.26 122.202 120.529 122.778C120.307 122.957 119.747 123.13 119.601 123.344C119.397 123.641 119.664 123.938 119.782 124.254C120.043 125.045 120.219 125.862 120.305 126.691Z" fill="black" style="fill:black;fill-opacity:1;"/>
<path d="M129.747 125.61C129.509 126.105 129.189 126.565 129.046 127.096C128.676 128.499 129.635 129.947 129.521 131.384C129.484 131.838 129.344 132.28 129.334 132.734C129.323 133.188 129.49 133.693 129.893 133.903C130.164 134.042 130.504 134.027 130.759 134.186C131.188 134.449 131.237 135.045 131.195 135.546C131.152 136.047 131.081 136.607 131.398 136.998C131.64 137.301 132.056 137.419 132.316 137.707C132.471 137.913 132.603 138.135 132.709 138.37C133.098 139.05 133.809 139.466 134.391 139.999C134.974 140.533 135.466 141.315 135.206 142.054C135.014 142.595 134.477 142.929 133.96 143.184C133.016 143.65 132.02 144.002 130.993 144.232C130.883 144.266 130.766 144.272 130.653 144.251C130.538 144.209 130.436 144.139 130.356 144.047C129.755 143.459 129.134 142.842 128.857 142.05C128.808 141.858 128.731 141.674 128.629 141.504C128.311 141.058 127.642 141.074 127.189 140.767C126.66 140.406 126.532 139.692 126.186 139.152C125.84 138.613 125.333 138.291 124.964 137.817C124.341 137.026 124.188 135.972 123.742 135.07C123.553 134.687 123.311 134.329 123.16 133.93C123.008 133.451 122.914 132.956 122.881 132.455C122.594 130.077 121.863 127.683 122.323 125.329C122.425 124.812 122.582 124.311 122.647 123.777C122.759 122.855 122.582 121.91 122.718 120.99C122.722 120.875 122.751 120.761 122.804 120.659C122.857 120.556 122.933 120.467 123.026 120.398C123.136 120.348 123.255 120.324 123.376 120.326C124.583 120.262 125.793 120.289 126.996 120.408C127.607 120.467 128.291 120.591 128.658 121.09C128.969 121.517 128.953 122.09 129.053 122.609C129.177 123.248 129.5 123.596 129.841 124.097C130.181 124.598 129.997 125.093 129.747 125.61Z" fill="#3F3D56" style="fill:#3F3D56;fill:color(display-p3 0.2471 0.2392 0.3373);fill-opacity:1;"/>
<path d="M125.049 142.155C125.371 142.155 125.727 142.135 125.975 142.339C126.285 142.593 126.289 143.059 126.24 143.457C126.098 144.572 125.733 145.645 125.369 146.714L124.285 149.893C124.114 150.346 123.987 150.815 123.907 151.294C123.801 152.108 123.964 152.922 123.984 153.737C123.984 154.144 123.958 154.596 123.703 154.924C123.243 155.516 122.345 155.447 121.606 155.331L118 154.72C117.696 154.68 117.397 154.607 117.108 154.502C116.807 154.364 116.518 154.201 116.243 154.016C115.529 153.608 114.779 153.267 114.003 152.998C113.665 152.872 113.286 152.711 113.164 152.371C113.02 151.963 113.341 151.515 113.74 151.353C114.139 151.19 114.585 151.23 115.017 151.243C116.078 151.276 117.138 151.133 118.153 150.819C118.458 150.744 118.742 150.598 118.979 150.392C119.221 150.12 119.385 149.789 119.456 149.433C119.763 148.371 119.946 147.278 120.001 146.175C120.044 145.36 120.016 144.546 120.048 143.731C120.069 143.249 120.022 141.695 120.445 141.363C120.769 141.115 122.101 141.801 122.538 141.901C123.361 142.09 124.205 142.175 125.049 142.155Z" fill="#2F2E41" style="fill:#2F2E41;fill:color(display-p3 0.1843 0.1804 0.2549);fill-opacity:1;"/>
<path d="M136.928 144.42C137.28 145.586 137.335 146.82 137.563 148.019C137.791 149.219 138.194 150.442 139.084 151.277C139.257 151.415 139.406 151.58 139.526 151.766C139.601 151.94 139.626 152.132 139.599 152.32C139.572 152.508 139.494 152.685 139.373 152.831C139.127 153.12 138.822 153.354 138.479 153.517C136.18 154.771 133.592 155.404 130.984 155.718C130.523 155.804 130.049 155.787 129.596 155.667C129.152 155.516 128.759 155.117 128.767 154.649C128.763 154.521 128.806 154.395 128.889 154.297C128.968 154.224 129.062 154.17 129.164 154.136C130.125 153.741 131.1 153.311 131.843 152.582C132.587 151.853 133.053 150.75 132.766 149.76C132.596 149.297 132.365 148.858 132.08 148.455C131.707 147.815 131.368 147.157 131.062 146.482L130.166 144.603C129.903 144.053 129.638 143.487 129.594 142.88C130.719 142.931 131.843 142.751 132.896 142.351C133.388 142.15 133.846 141.876 134.254 141.536C134.6 141.247 134.916 140.708 135.382 141.084C135.757 141.386 135.993 142.235 136.213 142.665C136.499 143.229 136.738 143.816 136.928 144.42Z" fill="#2F2E41" style="fill:#2F2E41;fill:color(display-p3 0.1843 0.1804 0.2549);fill-opacity:1;"/>
<path d="M123.799 97.7539C123.889 98.5358 124.646 99.0509 125.369 99.3604L120.794 100.82C121.089 100.254 120.851 99.562 120.558 98.9878C120.319 98.5332 120.047 98.0969 119.743 97.6826C119.699 97.6195 119.648 97.5401 119.68 97.4668C119.709 97.4189 119.755 97.3834 119.809 97.367C120.749 96.9476 121.718 96.5139 122.747 96.3612C123.044 96.3184 123.606 96.2003 123.828 96.5017C124.05 96.803 123.757 97.3935 123.799 97.7539Z" fill="#FBBEBE" style="fill:#FBBEBE;fill:color(display-p3 0.9843 0.7451 0.7451);fill-opacity:1;"/>
<path opacity="0.1" d="M123.799 97.7539C123.889 98.5358 124.646 99.0509 125.369 99.3604L120.794 100.82C121.089 100.254 120.851 99.562 120.558 98.9878C120.319 98.5332 120.047 98.0969 119.743 97.6826C119.699 97.6195 119.648 97.5401 119.68 97.4668C119.709 97.4189 119.755 97.3834 119.809 97.367C120.749 96.9476 121.718 96.5139 122.747 96.3612C123.044 96.3184 123.606 96.2003 123.828 96.5017C124.05 96.803 123.757 97.3935 123.799 97.7539Z" fill="black" style="fill:black;fill-opacity:1;"/>
<path d="M121.139 98.3872C123.121 98.3872 124.727 96.7809 124.727 94.7995C124.727 92.8182 123.121 91.2119 121.139 91.2119C119.158 91.2119 117.552 92.8182 117.552 94.7995C117.552 96.7809 119.158 98.3872 121.139 98.3872Z" fill="#FBBEBE" style="fill:#FBBEBE;fill:color(display-p3 0.9843 0.7451 0.7451);fill-opacity:1;"/>
<path d="M118.031 124.323C118.379 124.741 118.992 124.822 119.527 124.73C120.779 124.527 121.804 123.604 123.029 123.273C124.532 122.865 126.122 123.389 127.541 124.03C128.961 124.671 130.372 125.455 131.923 125.565C130.52 122.438 131.322 118.675 129.981 115.521C129.653 114.749 129.195 114.006 129.121 113.171C129.03 112.135 129.547 111.135 129.626 110.105C129.7 109.187 129.423 108.272 129.158 107.397C128.831 106.322 128.504 105.247 128.177 104.172C127.81 102.968 127.433 101.745 126.723 100.71C126.46 100.33 126.381 99.5579 125.982 99.3278C125.11 98.8249 123.789 99.4582 122.844 99.4928C121.899 99.5274 121.038 100.199 120.486 100.959C119.902 101.761 119.57 102.716 119.265 103.661C118.778 105.067 118.415 106.514 118.179 107.983C118.149 108.203 118.122 108.423 118.102 108.645C117.898 110.736 118.196 112.84 118.212 114.941V114.955C118.232 117.62 117.805 120.269 117.725 122.933C117.717 123.419 117.729 123.951 118.031 124.323Z" fill="#2F2E41" style="fill:#2F2E41;fill:color(display-p3 0.1843 0.1804 0.2549);fill-opacity:1;"/>
<path opacity="0.1" d="M118.218 114.943C118.921 114.766 119.556 114.312 120.102 113.815C120.574 113.392 120.994 112.913 121.352 112.39C121.802 111.685 122.164 110.928 122.429 110.136C123.183 108.015 123.662 105.807 123.854 103.565C123.907 102.954 123.923 102.299 123.559 101.814C123.354 101.551 123.067 101.366 122.743 101.288C122.42 101.209 122.079 101.243 121.777 101.382C121.297 101.616 120.985 102.091 120.696 102.545C120.124 103.445 119.548 104.357 119.179 105.359C119.016 105.803 118.896 106.259 118.737 106.705C118.576 107.145 118.39 107.575 118.18 107.994C118.149 108.213 118.123 108.433 118.102 108.655C117.913 110.746 118.202 112.842 118.218 114.943Z" fill="black" style="fill:black;fill-opacity:1;"/>
<path d="M123.548 101.421C123.913 101.906 123.896 102.567 123.846 103.17C123.653 105.412 123.174 107.62 122.42 109.741C122.158 110.54 121.796 111.303 121.343 112.013C120.985 112.536 120.565 113.015 120.093 113.438C119.401 114.069 118.558 114.633 117.619 114.641C117.091 114.617 116.57 114.503 116.08 114.305L108.434 111.703C108.357 111.268 108.664 110.759 108.809 110.339L109.216 109.132C109.332 108.798 109.466 108.437 109.77 108.256C110.073 108.075 110.554 108.323 110.806 108.525C111.059 108.727 111.25 108.991 111.499 109.197C111.969 109.588 112.59 109.734 113.188 109.869L114.905 110.254C115.527 110.424 116.17 110.51 116.815 110.508C117.293 109.046 118.203 107.759 118.719 106.31C118.877 105.866 118.998 105.408 119.162 104.964C119.529 103.962 120.107 103.052 120.679 102.15C120.966 101.698 121.278 101.223 121.761 100.987C122.063 100.846 122.406 100.812 122.73 100.89C123.055 100.969 123.344 101.156 123.548 101.421Z" fill="#2F2E41" style="fill:#2F2E41;fill:color(display-p3 0.1843 0.1804 0.2549);fill-opacity:1;"/>
<path d="M122.284 95.6099C122.257 95.3739 122.184 95.1456 122.068 94.938C122.008 94.834 121.917 94.7519 121.807 94.7036C121.697 94.6552 121.575 94.6432 121.458 94.6692C121.099 94.7812 120.979 95.335 120.604 95.3534C120.352 95.3656 120.171 95.109 120.091 94.8688C120.012 94.6285 119.969 94.3536 119.78 94.1846C119.648 94.086 119.497 94.0166 119.336 93.981C118.466 93.7061 117.569 93.1991 117.279 92.3338C117.211 92.1581 117.195 91.9666 117.233 91.782C117.365 91.2343 118.047 91.0694 118.566 90.8719C119.085 90.6744 119.584 90.3364 120.093 90.0798C120.602 89.8233 121.193 89.642 121.753 89.7724C122.037 89.8617 122.316 89.9657 122.59 90.0839C123.433 90.3771 124.465 90.2407 125.118 90.8495C125.404 91.1514 125.613 91.5172 125.729 91.9164C126.185 93.1828 126.474 94.6855 125.719 95.7972C125.253 96.4834 124.801 97.2673 123.905 97.3508C122.862 97.4383 122.449 96.4936 122.284 95.6099Z" fill="#2F2E41" style="fill:#2F2E41;fill:color(display-p3 0.1843 0.1804 0.2549);fill-opacity:1;"/>
<g opacity="0.1">
<path d="M120.692 94.4371C120.612 94.1968 120.569 93.9219 120.382 93.7529C120.25 93.6544 120.099 93.585 119.938 93.5493C119.067 93.2745 118.171 92.7675 117.88 91.9021C117.813 91.726 117.798 91.5348 117.835 91.3503C117.855 91.2633 117.892 91.1811 117.943 91.108C117.611 91.2526 117.322 91.444 117.24 91.782C117.203 91.9666 117.219 92.1581 117.287 92.3338C117.576 93.1991 118.474 93.7061 119.344 93.981C119.504 94.0166 119.656 94.086 119.788 94.1846C119.977 94.3536 120.018 94.6264 120.099 94.8687C120.181 95.111 120.36 95.3656 120.612 95.3533C120.865 95.3411 120.987 95.111 121.148 94.9176C120.926 94.8891 120.765 94.6611 120.692 94.4371Z" fill="black" style="fill:black;fill-opacity:1;"/>
<path d="M124.504 96.913C123.457 97.0087 123.044 96.0558 122.875 95.1782C122.852 94.9429 122.783 94.7144 122.671 94.5063C122.611 94.4025 122.519 94.3206 122.41 94.2723C122.3 94.224 122.177 94.2118 122.06 94.2375C121.875 94.3276 121.718 94.4689 121.61 94.6447C121.704 94.6537 121.794 94.6841 121.874 94.7335C121.954 94.7829 122.021 94.8501 122.071 94.9298C122.186 95.1374 122.259 95.3657 122.286 95.6017C122.451 96.4793 122.865 97.4342 123.915 97.3365C124.331 97.2907 124.714 97.0918 124.99 96.7786C124.837 96.8502 124.672 96.8956 124.504 96.913Z" fill="black" style="fill:black;fill-opacity:1;"/>
</g>
<path d="M166.442 134.789C170.073 134.789 173.016 134.223 173.016 133.524C173.016 132.826 170.073 132.26 166.442 132.26C162.811 132.26 159.867 132.826 159.867 133.524C159.867 134.223 162.811 134.789 166.442 134.789Z" fill="#014DAB" style="fill:#014DAB;fill:color(display-p3 0.0039 0.3020 0.6706);fill-opacity:1;"/>
<path d="M166.331 133.989C166.754 133.989 167.097 133.54 167.097 132.987C167.097 132.434 166.754 131.985 166.331 131.985C165.908 131.985 165.565 132.434 165.565 132.987C165.565 133.54 165.908 133.989 166.331 133.989Z" fill="#3F3D56" style="fill:#3F3D56;fill:color(display-p3 0.2471 0.2392 0.3373);fill-opacity:1;"/>
<path d="M166.331 132.763C166.754 132.763 167.097 132.314 167.097 131.761C167.097 131.208 166.754 130.759 166.331 130.759C165.908 130.759 165.565 131.208 165.565 131.761C165.565 132.314 165.908 132.763 166.331 132.763Z" fill="#3F3D56" style="fill:#3F3D56;fill:color(display-p3 0.2471 0.2392 0.3373);fill-opacity:1;"/>
<path d="M166.331 131.539C166.754 131.539 167.097 131.091 167.097 130.537C167.097 129.984 166.754 129.536 166.331 129.536C165.908 129.536 165.565 129.984 165.565 130.537C165.565 131.091 165.908 131.539 166.331 131.539Z" fill="#3F3D56" style="fill:#3F3D56;fill:color(display-p3 0.2471 0.2392 0.3373);fill-opacity:1;"/>
<path d="M166.331 130.313C166.754 130.313 167.097 129.865 167.097 129.312C167.097 128.758 166.754 128.31 166.331 128.31C165.908 128.31 165.565 128.758 165.565 129.312C165.565 129.865 165.908 130.313 166.331 130.313Z" fill="#3F3D56" style="fill:#3F3D56;fill:color(display-p3 0.2471 0.2392 0.3373);fill-opacity:1;"/>
<path d="M166.331 129.088C166.754 129.088 167.097 128.639 167.097 128.086C167.097 127.533 166.754 127.084 166.331 127.084C165.908 127.084 165.565 127.533 165.565 128.086C165.565 128.639 165.908 129.088 166.331 129.088Z" fill="#3F3D56" style="fill:#3F3D56;fill:color(display-p3 0.2471 0.2392 0.3373);fill-opacity:1;"/>
<path d="M166.331 127.864C166.754 127.864 167.097 127.416 167.097 126.862C167.097 126.309 166.754 125.86 166.331 125.86C165.908 125.86 165.565 126.309 165.565 126.862C165.565 127.416 165.908 127.864 166.331 127.864Z" fill="#3F3D56" style="fill:#3F3D56;fill:color(display-p3 0.2471 0.2392 0.3373);fill-opacity:1;"/>
<path d="M166.331 126.638C166.754 126.638 167.097 126.19 167.097 125.637C167.097 125.083 166.754 124.635 166.331 124.635C165.908 124.635 165.565 125.083 165.565 125.637C165.565 126.19 165.908 126.638 166.331 126.638Z" fill="#3F3D56" style="fill:#3F3D56;fill:color(display-p3 0.2471 0.2392 0.3373);fill-opacity:1;"/>
<path d="M169.196 117.262C169.301 117.129 169.396 116.989 169.481 116.843L167.469 116.513L169.646 116.527C169.854 116.073 169.967 115.581 169.979 115.081C169.991 114.582 169.901 114.085 169.715 113.621L166.796 115.136L169.487 113.157C169.235 112.722 168.895 112.344 168.49 112.046C168.085 111.748 167.623 111.537 167.133 111.425C166.643 111.313 166.135 111.303 165.641 111.396C165.147 111.489 164.677 111.683 164.261 111.965C163.845 112.247 163.491 112.612 163.222 113.037C162.953 113.462 162.774 113.937 162.697 114.434C162.619 114.931 162.645 115.438 162.772 115.925C162.899 116.411 163.125 116.867 163.436 117.262C163.272 117.469 163.132 117.693 163.016 117.93L165.629 119.288L162.843 118.353C162.649 118.93 162.601 119.547 162.705 120.147C162.808 120.747 163.059 121.312 163.436 121.79C163.011 122.331 162.747 122.98 162.674 123.664C162.601 124.348 162.721 125.038 163.022 125.657C163.322 126.275 163.791 126.796 164.374 127.161C164.957 127.526 165.63 127.719 166.318 127.719C167.006 127.719 167.679 127.526 168.262 127.161C168.845 126.796 169.314 126.275 169.614 125.657C169.915 125.038 170.035 124.348 169.962 123.664C169.889 122.98 169.625 122.331 169.2 121.79C169.709 121.144 169.986 120.346 169.986 119.523C169.986 118.701 169.709 117.902 169.2 117.256L169.196 117.262Z" fill="#014DAB" style="fill:#014DAB;fill:color(display-p3 0.0039 0.3020 0.6706);fill-opacity:1;"/>
<path opacity="0.1" d="M162.646 119.522C162.646 120.346 162.925 121.145 163.436 121.79C163.012 122.331 162.748 122.98 162.674 123.664C162.601 124.348 162.722 125.038 163.022 125.657C163.323 126.275 163.792 126.796 164.374 127.161C164.957 127.526 165.631 127.719 166.319 127.719C167.006 127.719 167.68 127.526 168.263 127.161C168.846 126.796 169.314 126.275 169.615 125.657C169.915 125.038 170.036 124.348 169.963 123.664C169.89 122.98 169.625 122.331 169.201 121.79C169.687 121.165 162.646 119.111 162.646 119.522Z" fill="black" style="fill:black;fill-opacity:1;"/>
<path d="M31.1026 160C36.3305 160 40.5685 159.185 40.5685 158.18C40.5685 157.174 36.3305 156.359 31.1026 156.359C25.8747 156.359 21.6367 157.174 21.6367 158.18C21.6367 159.185 25.8747 160 31.1026 160Z" fill="#014DAB" style="fill:#014DAB;fill:color(display-p3 0.0039 0.3020 0.6706);fill-opacity:1;"/>
<path d="M30.9443 158.85C31.5527 158.85 32.0459 158.203 32.0459 157.406C32.0459 156.609 31.5527 155.962 30.9443 155.962C30.3359 155.962 29.8428 156.609 29.8428 157.406C29.8428 158.203 30.3359 158.85 30.9443 158.85Z" fill="#3F3D56" style="fill:#3F3D56;fill:color(display-p3 0.2471 0.2392 0.3373);fill-opacity:1;"/>
<path d="M30.9443 157.086C31.5527 157.086 32.0459 156.44 32.0459 155.643C32.0459 154.845 31.5527 154.199 30.9443 154.199C30.3359 154.199 29.8428 154.845 29.8428 155.643C29.8428 156.44 30.3359 157.086 30.9443 157.086Z" fill="#3F3D56" style="fill:#3F3D56;fill:color(display-p3 0.2471 0.2392 0.3373);fill-opacity:1;"/>
<path d="M30.9443 155.323C31.5527 155.323 32.0459 154.677 32.0459 153.879C32.0459 153.082 31.5527 152.436 30.9443 152.436C30.3359 152.436 29.8428 153.082 29.8428 153.879C29.8428 154.677 30.3359 155.323 30.9443 155.323Z" fill="#3F3D56" style="fill:#3F3D56;fill:color(display-p3 0.2471 0.2392 0.3373);fill-opacity:1;"/>
<path d="M30.9443 153.56C31.5527 153.56 32.0459 152.914 32.0459 152.116C32.0459 151.319 31.5527 150.673 30.9443 150.673C30.3359 150.673 29.8428 151.319 29.8428 152.116C29.8428 152.914 30.3359 153.56 30.9443 153.56Z" fill="#3F3D56" style="fill:#3F3D56;fill:color(display-p3 0.2471 0.2392 0.3373);fill-opacity:1;"/>
<path d="M30.9443 151.797C31.5527 151.797 32.0459 151.15 32.0459 150.353C32.0459 149.556 31.5527 148.909 30.9443 148.909C30.3359 148.909 29.8428 149.556 29.8428 150.353C29.8428 151.15 30.3359 151.797 30.9443 151.797Z" fill="#3F3D56" style="fill:#3F3D56;fill:color(display-p3 0.2471 0.2392 0.3373);fill-opacity:1;"/>
<path d="M30.9443 150.031C31.5527 150.031 32.0459 149.385 32.0459 148.588C32.0459 147.79 31.5527 147.144 30.9443 147.144C30.3359 147.144 29.8428 147.79 29.8428 148.588C29.8428 149.385 30.3359 150.031 30.9443 150.031Z" fill="#3F3D56" style="fill:#3F3D56;fill:color(display-p3 0.2471 0.2392 0.3373);fill-opacity:1;"/>
<path d="M30.9443 148.268C31.5527 148.268 32.0459 147.622 32.0459 146.824C32.0459 146.027 31.5527 145.381 30.9443 145.381C30.3359 145.381 29.8428 146.027 29.8428 146.824C29.8428 147.622 30.3359 148.268 30.9443 148.268Z" fill="#3F3D56" style="fill:#3F3D56;fill:color(display-p3 0.2471 0.2392 0.3373);fill-opacity:1;"/>
<path d="M35.0696 134.758C35.2187 134.564 35.3547 134.36 35.4768 134.147L32.5815 133.671L35.713 133.695C36.0132 133.041 36.1768 132.333 36.194 131.614C36.2111 130.894 36.0814 130.179 35.8128 129.511L31.6143 131.698L35.4829 128.847C35.1207 128.219 34.6327 127.672 34.0496 127.24C33.4665 126.808 32.8006 126.502 32.0937 126.339C31.3867 126.176 30.6537 126.161 29.9406 126.294C29.2274 126.427 28.5493 126.705 27.9485 127.112C27.3478 127.519 26.8373 128.045 26.449 128.658C26.0607 129.271 25.8028 129.957 25.6915 130.674C25.5802 131.391 25.6178 132.123 25.802 132.824C25.9863 133.526 26.3131 134.182 26.7623 134.752C26.5245 135.049 26.3196 135.372 26.1514 135.713L29.9121 137.668L25.903 136.322C25.622 137.156 25.5542 138.048 25.7057 138.915C25.8572 139.783 26.2232 140.598 26.7704 141.288C26.1578 142.067 25.7767 143.002 25.6707 143.987C25.5646 144.973 25.738 145.968 26.1708 146.859C26.6037 147.75 27.2787 148.502 28.1185 149.027C28.9583 149.553 29.9292 149.832 30.92 149.832C31.9108 149.832 32.8817 149.553 33.7215 149.027C34.5613 148.502 35.2363 147.75 35.6692 146.859C36.102 145.968 36.2754 144.973 36.1693 143.987C36.0633 143.002 35.6822 142.067 35.0696 141.288C35.8018 140.358 36.1999 139.208 36.1999 138.024C36.1999 136.84 35.8018 135.691 35.0696 134.76V134.758Z" fill="#014DAB" style="fill:#014DAB;fill:color(display-p3 0.0039 0.3020 0.6706);fill-opacity:1;"/>
<path opacity="0.1" d="M25.6397 138.03C25.6398 139.212 26.0379 140.36 26.7697 141.288C26.1571 142.067 25.776 143.002 25.67 143.987C25.5639 144.973 25.7373 145.968 26.1701 146.859C26.603 147.75 27.278 148.502 28.1178 149.027C28.9576 149.553 29.9285 149.832 30.9193 149.832C31.9101 149.832 32.881 149.553 33.7208 149.027C34.5606 148.502 35.2356 147.75 35.6685 146.859C36.1013 145.968 36.2747 144.973 36.1686 143.987C36.0626 143.002 35.6815 142.067 35.0689 141.288C35.7714 140.388 25.6397 137.43 25.6397 138.03Z" fill="black" style="fill:black;fill-opacity:1;"/>
</g>
<defs>
<linearGradient id="paint0_linear_79_9316" x1="123.433" y1="156.037" x2="120.738" y2="89.2273" gradientUnits="userSpaceOnUse">
<stop stop-color="#808080" stop-opacity="0.25" style="stop-color:#808080;stop-color:color(display-p3 0.5020 0.5020 0.5020);stop-opacity:0.25;"/>
<stop offset="0.54" stop-color="#808080" stop-opacity="0.12" style="stop-color:#808080;stop-color:color(display-p3 0.5020 0.5020 0.5020);stop-opacity:0.12;"/>
<stop offset="1" stop-color="#808080" stop-opacity="0.1" style="stop-color:#808080;stop-color:color(display-p3 0.5020 0.5020 0.5020);stop-opacity:0.1;"/>
</linearGradient>
<clipPath id="clip0_79_9316">
<rect width="208.234" height="160" fill="white" style="fill:white;fill-opacity:1;" transform="translate(0.882812)"/>
</clipPath>
</defs>
</svg>
