<svg width="220" height="160" viewBox="0 0 220 160" fill="none" xmlns="http://www.w3.org/2000/svg">
<g clip-path="url(#clip0_39_36458)">
<path d="M207.102 1.05901H39.2283C39.2236 0.776625 39.1082 0.507401 38.9069 0.309322C38.7055 0.111243 38.4345 0.000159435 38.1521 0H31.5403C31.2579 0.000120309 30.9868 0.111188 30.7855 0.309276C30.5841 0.507363 30.4687 0.776612 30.464 1.05901H28.8449C28.8401 0.776625 28.7247 0.507401 28.5234 0.309322C28.3221 0.111243 28.051 0.000159435 27.7686 0H21.1568C20.8744 0.000159435 20.6033 0.111243 20.402 0.309322C20.2007 0.507401 20.0853 0.776625 20.0805 1.05901H14.1892C10.7702 1.06284 7.49244 2.4227 5.07487 4.84023C2.6573 7.25776 1.29739 10.5355 1.2935 13.9545V14.0814C1.27328 14.0803 1.25391 14.0754 1.23327 14.0754H1.08208C0.940489 14.0754 0.800285 14.1032 0.669474 14.1574C0.538663 14.2116 0.419804 14.291 0.319686 14.3911C0.219568 14.4913 0.140151 14.6101 0.085969 14.7409C0.0317875 14.8717 0.00390226 15.0119 0.00390625 15.1535V27.7648C0.00390226 27.9064 0.0317875 28.0466 0.085969 28.1774C0.140151 28.3082 0.219568 28.4271 0.319686 28.5272C0.419804 28.6273 0.538663 28.7067 0.669474 28.7609C0.800285 28.8151 0.940489 28.843 1.08208 28.843H1.23327C1.25391 28.843 1.27328 28.838 1.2935 28.8369V147.105C1.29739 150.523 2.6573 153.801 5.07487 156.219C7.49244 158.636 10.7702 159.996 14.1892 160H207.102C210.521 159.996 213.798 158.636 216.216 156.219C218.633 153.801 219.993 150.523 219.997 147.105V13.9545C219.993 10.5356 218.633 7.25782 216.216 4.84029C213.798 2.42276 210.521 1.06289 207.102 1.05901ZM216.116 147.105C216.113 149.494 215.162 151.786 213.473 153.475C211.783 155.165 209.492 156.116 207.102 156.119H14.1892C11.7993 156.116 9.50807 155.165 7.81815 153.475C6.12823 151.786 5.17763 149.494 5.1749 147.105V13.9545C5.17763 11.5646 6.12823 9.2734 7.81815 7.58352C9.50807 5.89364 11.7993 4.94309 14.1892 4.94041H207.102C209.492 4.94314 211.783 5.89371 213.473 7.58359C215.162 9.27346 216.113 11.5646 216.116 13.9545V147.105Z" fill="#CCCCCC" style="fill:#CCCCCC;fill:color(display-p3 0.8000 0.8000 0.8000);fill-opacity:1;"/>
<path d="M207.102 158.275H14.19C11.2284 158.272 8.38912 157.094 6.29498 155C4.20083 152.905 3.02288 150.066 3.01953 147.105V13.9545C3.02287 10.9929 4.20083 8.15361 6.29498 6.05948C8.38912 3.96534 11.2284 2.78739 14.19 2.78406H207.102C210.064 2.78738 212.903 3.96532 214.997 6.05945C217.092 8.15359 218.27 10.9929 218.273 13.9545V147.105C218.27 150.066 217.092 152.905 214.998 155C212.903 157.094 210.064 158.272 207.102 158.275Z" fill="#E6E6E6" style="fill:#E6E6E6;fill:color(display-p3 0.9020 0.9020 0.9020);fill-opacity:1;"/>
<path d="M207.161 149.276H14.1304C13.4786 149.275 12.8537 149.016 12.3928 148.555C11.9319 148.094 11.6726 147.469 11.6719 146.817V14.2415C11.6726 13.5896 11.9319 12.9647 12.3928 12.5038C12.8537 12.0429 13.4786 11.7837 14.1304 11.783H207.161C207.813 11.7837 208.438 12.0429 208.899 12.5038C209.36 12.9647 209.619 13.5896 209.62 14.2415V146.817C209.619 147.469 209.36 148.094 208.899 148.555C208.438 149.016 207.813 149.275 207.161 149.276Z" fill="white" style="fill:white;fill-opacity:1;"/>
<path d="M7.38782 81.2217C7.89756 81.2217 8.31079 80.8085 8.31079 80.2987C8.31079 79.789 7.89756 79.3757 7.38782 79.3757C6.87807 79.3757 6.46484 79.789 6.46484 80.2987C6.46484 80.8085 6.87807 81.2217 7.38782 81.2217Z" fill="white" style="fill:white;fill-opacity:1;"/>
<path d="M84.243 29.3257H43.2363C40.0195 29.3294 36.9356 30.6088 34.661 32.8834C32.3864 35.158 31.1069 38.242 31.1033 41.4588V45.1653C31.0191 45.1421 30.9307 45.1388 30.845 45.1557C30.7594 45.1726 30.6788 45.2091 30.6097 45.2624C30.5406 45.3158 30.4849 45.3844 30.4469 45.463C30.4088 45.5416 30.3896 45.6279 30.3907 45.7152V48.5655C30.3896 48.6528 30.4088 48.7392 30.4469 48.8177C30.4849 48.8963 30.5406 48.965 30.6097 49.0183C30.6788 49.0717 30.7594 49.1082 30.845 49.125C30.9307 49.1419 31.0191 49.1386 31.1033 49.1155V53.4313C31.0191 53.4081 30.9307 53.4048 30.845 53.4217C30.7594 53.4385 30.6788 53.4751 30.6097 53.5284C30.5406 53.5817 30.4849 53.6504 30.4468 53.729C30.4088 53.8076 30.3896 53.8939 30.3907 53.9812V61.107C30.3896 61.1943 30.4088 61.2807 30.4468 61.3593C30.4849 61.4378 30.5406 61.5065 30.6097 61.5598C30.6788 61.6132 30.7594 61.6497 30.845 61.6666C30.9307 61.6834 31.0191 61.6801 31.1033 61.6569V64.2626C31.0191 64.2394 30.9307 64.2361 30.845 64.253C30.7594 64.2698 30.6788 64.3064 30.6097 64.3597C30.5406 64.413 30.4849 64.4817 30.4468 64.5603C30.4088 64.6389 30.3896 64.7252 30.3907 64.8125V71.9383C30.3896 72.0256 30.4088 72.112 30.4468 72.1906C30.4848 72.2691 30.5406 72.3378 30.6097 72.3911C30.6788 72.4445 30.7594 72.481 30.845 72.4979C30.9307 72.5147 31.0191 72.5114 31.1033 72.4882V147.738C31.1069 150.955 32.3864 154.039 34.661 156.314C36.9355 158.588 40.0195 159.868 43.2363 159.871H84.243C87.4598 159.868 90.5438 158.588 92.8184 156.314C95.093 154.039 96.3724 150.955 96.3761 147.738V41.4588C96.3724 38.242 95.093 35.158 92.8184 32.8834C90.5438 30.6088 87.4598 29.3294 84.243 29.3257ZM93.8108 147.738C93.8079 150.275 92.7989 152.707 91.0053 154.501C89.2116 156.294 86.7797 157.303 84.243 157.306H43.2363C40.6996 157.303 38.2677 156.294 36.4741 154.501C34.6804 152.707 33.6714 150.275 33.6686 147.738V41.4588C33.6714 38.9221 34.6804 36.4902 36.4741 34.6965C38.2677 32.9029 40.6996 31.8939 43.2363 31.891H84.243C86.7797 31.8939 89.2116 32.9029 91.0053 34.6965C92.7989 36.4902 93.8079 38.9221 93.8108 41.4588V147.738Z" fill="#CCCCCC" style="fill:#CCCCCC;fill:color(display-p3 0.8000 0.8000 0.8000);fill-opacity:1;"/>
<path d="M84.2418 158.731H43.2351C40.3206 158.728 37.5264 157.569 35.4656 155.508C33.4047 153.447 32.2455 150.653 32.2422 147.738V41.4588C32.2455 38.5443 33.4047 35.7501 35.4656 33.6893C37.5264 31.6284 40.3206 30.4692 43.2351 30.4659H84.2418C87.1563 30.4692 89.9505 31.6284 92.0113 33.6893C94.0722 35.7501 95.2314 38.5443 95.2347 41.4588V147.738C95.2314 150.653 94.0722 153.447 92.0113 155.508C89.9505 157.569 87.1563 158.728 84.2418 158.731Z" fill="#E6E6E6" style="fill:#E6E6E6;fill:color(display-p3 0.9020 0.9020 0.9020);fill-opacity:1;"/>
<path d="M85.2563 157.021H42.2229C40.2572 157.019 38.3726 156.237 36.9827 154.847C35.5927 153.457 34.8108 151.573 34.8086 149.607V39.5903C34.8108 37.6246 35.5927 35.7401 36.9826 34.3501C38.3726 32.9602 40.2571 32.1783 42.2228 32.1761H47.8349C48.1598 32.1765 48.4713 32.3057 48.701 32.5354C48.9307 32.7652 49.0599 33.0766 49.0603 33.4015C49.0614 34.3613 49.4431 35.2815 50.1218 35.9602C50.8005 36.6388 51.7206 37.0206 52.6804 37.0217H74.2286C75.1884 37.0206 76.1086 36.6389 76.7872 35.9602C77.4659 35.2815 77.8477 34.3613 77.8488 33.4015C77.8491 33.0766 77.9783 32.7652 78.2081 32.5354C78.4378 32.3057 78.7493 32.1765 79.0742 32.1761H85.2563C87.222 32.1783 89.1065 32.9602 90.4965 34.3501C91.8864 35.7401 92.6683 37.6246 92.6705 39.5903V149.607C92.6683 151.572 91.8864 153.457 90.4965 154.847C89.1065 156.237 87.222 157.019 85.2563 157.021Z" fill="white" style="fill:white;fill-opacity:1;"/>
<path d="M65.5913 34.6701H60.4607C60.3095 34.6701 60.1645 34.61 60.0576 34.5031C59.9507 34.3962 59.8906 34.2512 59.8906 34.1C59.8906 33.9488 59.9507 33.8038 60.0576 33.6969C60.1645 33.59 60.3095 33.53 60.4607 33.53H65.5913C65.7423 33.5303 65.8869 33.5905 65.9936 33.6974C66.1002 33.8043 66.1601 33.9491 66.1601 34.1C66.1601 34.251 66.1002 34.3958 65.9936 34.5027C65.8869 34.6095 65.7423 34.6698 65.5913 34.6701Z" fill="white" style="fill:white;fill-opacity:1;"/>
<path d="M69.1542 34.5276C69.3116 34.5276 69.4392 34.4 69.4392 34.2426C69.4392 34.0851 69.3116 33.9575 69.1542 33.9575C68.9968 33.9575 68.8691 34.0851 68.8691 34.2426C68.8691 34.4 68.9968 34.5276 69.1542 34.5276Z" fill="white" style="fill:white;fill-opacity:1;"/>
<path d="M69.4434 61.4602L69.5029 62.7863C76.2822 62.4825 84.1324 63.0732 92.4876 64.4676V63.1229C84.1198 61.7394 76.2518 61.1553 69.4434 61.4602Z" fill="#CCCCCC" style="fill:#CCCCCC;fill:color(display-p3 0.8000 0.8000 0.8000);fill-opacity:1;"/>
<path d="M61.0129 87.4338C60.9603 87.9413 60.9174 88.4519 60.8842 88.9656C60.8143 89.9758 60.7793 90.9939 60.7793 92.02C60.7846 101.574 63.8732 110.87 69.586 118.528C75.2988 126.185 83.3305 131.794 92.4868 134.521V49.5109C84.0782 52.0106 76.5998 56.9478 70.9974 63.6981C65.395 70.4484 61.9204 78.7086 61.0129 87.4338Z" fill="#014DAB" style="fill:#014DAB;fill:color(display-p3 0.0039 0.3020 0.6706);fill-opacity:1;"/>
<path d="M38.8877 61.734C39.3704 61.734 39.7617 61.3427 39.7617 60.86C39.7617 60.3773 39.3704 59.986 38.8877 59.986C38.405 59.986 38.0137 60.3773 38.0137 60.86C38.0137 61.3427 38.405 61.734 38.8877 61.734Z" fill="#CCCCCC" style="fill:#CCCCCC;fill:color(display-p3 0.8000 0.8000 0.8000);fill-opacity:1;"/>
<path d="M37.0254 96.7949C37.979 96.7949 38.752 96.0218 38.752 95.0683C38.752 94.1147 37.979 93.3417 37.0254 93.3417C36.0718 93.3417 35.2988 94.1147 35.2988 95.0683C35.2988 96.0218 36.0718 96.7949 37.0254 96.7949Z" fill="#CCCCCC" style="fill:#CCCCCC;fill:color(display-p3 0.8000 0.8000 0.8000);fill-opacity:1;"/>
<path d="M69.5396 51.0998C70.2302 51.0998 70.7901 50.5399 70.7901 49.8493C70.7901 49.1586 70.2302 48.5988 69.5396 48.5988C68.8489 48.5988 68.2891 49.1586 68.2891 49.8493C68.2891 50.5399 68.8489 51.0998 69.5396 51.0998Z" fill="#CCCCCC" style="fill:#CCCCCC;fill:color(display-p3 0.8000 0.8000 0.8000);fill-opacity:1;"/>
<path d="M41.0895 120.452C41.6405 120.452 42.0872 120.005 42.0872 119.454C42.0872 118.903 41.6405 118.457 41.0895 118.457C40.5385 118.457 40.0918 118.903 40.0918 119.454C40.0918 120.005 40.5385 120.452 41.0895 120.452Z" fill="#CCCCCC" style="fill:#CCCCCC;fill:color(display-p3 0.8000 0.8000 0.8000);fill-opacity:1;"/>
<path d="M61.2426 134.421C61.8393 134.421 62.323 133.938 62.323 133.341C62.323 132.744 61.8393 132.26 61.2426 132.26C60.6458 132.26 60.1621 132.744 60.1621 133.341C60.1621 133.938 60.6458 134.421 61.2426 134.421Z" fill="#CCCCCC" style="fill:#CCCCCC;fill:color(display-p3 0.8000 0.8000 0.8000);fill-opacity:1;"/>
<path d="M92.6515 24.5523H90.5193V22.42H89.3753V24.5523H87.2422V25.6969H89.3753V27.8291H90.5193V25.6969H92.6515V24.5523Z" fill="#CCCCCC" style="fill:#CCCCCC;fill:color(display-p3 0.8000 0.8000 0.8000);fill-opacity:1;"/>
<path opacity="0.1" d="M77.1612 88.2943C79.2188 88.2943 80.8868 86.6263 80.8868 84.5687C80.8868 82.511 79.2188 80.843 77.1612 80.843C75.1036 80.843 73.4355 82.511 73.4355 84.5687C73.4355 86.6263 75.1036 88.2943 77.1612 88.2943Z" fill="black" style="fill:black;fill-opacity:1;"/>
<path opacity="0.1" d="M79.0245 114.543C81.0821 114.543 82.7501 112.875 82.7501 110.818C82.7501 108.76 81.0821 107.092 79.0245 107.092C76.9669 107.092 75.2988 108.76 75.2988 110.818C75.2988 112.875 76.9669 114.543 79.0245 114.543Z" fill="black" style="fill:black;fill-opacity:1;"/>
<path d="M62.588 87.4602C58.0163 84.3904 54.6111 81.3619 52.4671 78.4586C50.3283 75.5624 49.5656 72.946 50.2001 70.682C50.8346 68.4181 52.8461 66.5792 56.1787 65.2165C59.5193 63.8505 64.0024 63.0328 69.5035 62.7863L69.4442 61.4602C57.6644 61.9881 50.376 65.1359 48.922 70.3237C47.468 75.5115 52.0584 81.9888 61.848 88.5623C69.8312 93.9229 80.5237 98.8735 92.4884 102.794V101.397C80.8061 97.5366 70.3819 92.6938 62.588 87.4602Z" fill="#CCCCCC" style="fill:#CCCCCC;fill:color(display-p3 0.8000 0.8000 0.8000);fill-opacity:1;"/>
<path opacity="0.1" d="M62.5864 88.5223C62.0462 88.159 61.5219 87.7962 61.0135 87.4338C60.9608 87.9413 60.9179 88.4519 60.8848 88.9657C61.1997 89.1856 61.5205 89.405 61.8472 89.624C69.8304 94.9849 80.5226 99.9354 92.4874 103.856V102.459C80.8055 98.5983 70.3814 93.7557 62.5864 88.5223Z" fill="black" style="fill:black;fill-opacity:1;"/>
<path d="M112.027 67.142C106.806 65.6786 101.63 64.4867 96.6094 63.5693V64.9183C101.514 65.8227 106.568 66.9906 111.668 68.4202C127.907 72.9715 142.6 79.6044 151.982 86.6178L152.777 85.5547C143.269 78.4469 128.416 71.7358 112.027 67.142Z" fill="#CCCCCC" style="fill:#CCCCCC;fill:color(display-p3 0.8000 0.8000 0.8000);fill-opacity:1;"/>
<path d="M151.008 92.02C151.004 85.3433 149.493 78.7536 146.588 72.7422C143.682 66.7307 139.458 61.4525 134.229 57.301C129 53.1494 122.901 50.2317 116.387 48.7651C109.874 47.2986 103.113 47.3212 96.6094 48.8311V135.206C106.388 137.482 116.65 136.374 125.716 132.062C134.783 127.75 142.119 120.49 146.525 111.468C146.754 111.002 146.974 110.531 147.185 110.056C149.714 104.38 151.016 98.2338 151.008 92.02Z" fill="#014DAB" style="fill:#014DAB;fill:color(display-p3 0.0039 0.3020 0.6706);fill-opacity:1;"/>
<path d="M107.846 39.6884C108.127 39.6884 108.354 39.4609 108.354 39.1804C108.354 38.8998 108.127 38.6723 107.846 38.6723C107.565 38.6723 107.338 38.8998 107.338 39.1804C107.338 39.4609 107.565 39.6884 107.846 39.6884Z" fill="#F2F2F2" style="fill:#F2F2F2;fill:color(display-p3 0.9490 0.9490 0.9490);fill-opacity:1;"/>
<path d="M142.223 43.3793C142.859 43.3793 143.374 42.8641 143.374 42.2286C143.374 41.5931 142.859 41.0779 142.223 41.0779C141.587 41.0779 141.072 41.5931 141.072 42.2286C141.072 42.8641 141.587 43.3793 142.223 43.3793Z" fill="#CCCCCC" style="fill:#CCCCCC;fill:color(display-p3 0.8000 0.8000 0.8000);fill-opacity:1;"/>
<path d="M183.036 91.8562C184.068 91.8562 184.905 91.0197 184.905 89.9878C184.905 88.956 184.068 88.1195 183.036 88.1195C182.004 88.1195 181.168 88.956 181.168 89.9878C181.168 91.0197 182.004 91.8562 183.036 91.8562Z" fill="#CCCCCC" style="fill:#CCCCCC;fill:color(display-p3 0.8000 0.8000 0.8000);fill-opacity:1;"/>
<path d="M168.427 60.9491C168.869 60.9491 169.228 60.5902 169.228 60.1475C169.228 59.7048 168.869 59.3459 168.427 59.3459C167.984 59.3459 167.625 59.7048 167.625 60.1475C167.625 60.5902 167.984 60.9491 168.427 60.9491Z" fill="#CCCCCC" style="fill:#CCCCCC;fill:color(display-p3 0.8000 0.8000 0.8000);fill-opacity:1;"/>
<path d="M165.622 87.001C166.065 87.001 166.424 86.6421 166.424 86.1994C166.424 85.7567 166.065 85.3978 165.622 85.3978C165.179 85.3978 164.82 85.7567 164.82 86.1994C164.82 86.6421 165.179 87.001 165.622 87.001Z" fill="#CCCCCC" style="fill:#CCCCCC;fill:color(display-p3 0.8000 0.8000 0.8000);fill-opacity:1;"/>
<path d="M143.668 139.922H142.328V138.583H141.61V139.922H140.271V140.64H141.61V141.979H142.328V140.64H143.668V139.922Z" fill="#CCCCCC" style="fill:#CCCCCC;fill:color(display-p3 0.8000 0.8000 0.8000);fill-opacity:1;"/>
<path d="M174.568 133.069H173.568V132.068H173.03V133.069H172.029V133.606H173.03V134.607H173.568V133.606H174.568V133.069Z" fill="#CCCCCC" style="fill:#CCCCCC;fill:color(display-p3 0.8000 0.8000 0.8000);fill-opacity:1;"/>
<path opacity="0.1" d="M107.337 61.0294C109.395 61.0294 111.063 59.3614 111.063 57.3038C111.063 55.2462 109.395 53.5781 107.337 53.5781C105.279 53.5781 103.611 55.2462 103.611 57.3038C103.611 59.3614 105.279 61.0294 107.337 61.0294Z" fill="black" style="fill:black;fill-opacity:1;"/>
<path opacity="0.1" d="M107.337 94.0521C109.395 94.0521 111.063 92.3841 111.063 90.3265C111.063 88.2689 109.395 86.6008 107.337 86.6008C105.279 86.6008 103.611 88.2689 103.611 90.3265C103.611 92.3841 105.279 94.0521 107.337 94.0521Z" fill="black" style="fill:black;fill-opacity:1;"/>
<path opacity="0.1" d="M127.321 74.0692C129.379 74.0692 131.047 72.4011 131.047 70.3435C131.047 68.2859 129.379 66.6179 127.321 66.6179C125.264 66.6179 123.596 68.2859 123.596 70.3435C123.596 72.4011 125.264 74.0692 127.321 74.0692Z" fill="black" style="fill:black;fill-opacity:1;"/>
<path opacity="0.1" d="M139.683 99.3019C141.74 99.3019 143.408 97.6339 143.408 95.5762C143.408 93.5186 141.74 91.8506 139.683 91.8506C137.625 91.8506 135.957 93.5186 135.957 95.5762C135.957 97.6339 137.625 99.3019 139.683 99.3019Z" fill="black" style="fill:black;fill-opacity:1;"/>
<path d="M161.146 93.886C159.396 91.2016 156.58 88.3985 152.777 85.5548L151.982 86.6179C159.374 92.144 162.817 97.4262 161.677 101.491C161.043 103.755 159.031 105.594 155.699 106.957C152.358 108.323 147.875 109.14 142.374 109.387C141.205 109.439 140.006 109.465 138.776 109.465C128.012 109.465 115.034 107.472 101.765 103.753C100.025 103.265 98.3066 102.755 96.6094 102.223V103.613C98.1901 104.104 99.7892 104.577 101.407 105.031C114.792 108.783 127.895 110.793 138.783 110.793C140.029 110.793 141.248 110.766 142.434 110.713C154.213 110.185 161.502 107.037 162.956 101.85C163.63 99.4433 163.021 96.7639 161.146 93.886Z" fill="#CCCCCC" style="fill:#CCCCCC;fill:color(display-p3 0.8000 0.8000 0.8000);fill-opacity:1;"/>
<path opacity="0.1" d="M142.374 110.448C141.206 110.501 140.006 110.527 138.776 110.527C128.013 110.527 115.034 108.534 101.765 104.815C100.025 104.327 98.3065 103.817 96.6094 103.285V104.675C98.1899 105.166 99.7889 105.639 101.406 106.093C114.792 109.844 127.895 111.854 138.782 111.854C140.029 111.854 141.249 111.828 142.434 111.775C143.866 111.711 145.23 111.609 146.525 111.468C146.754 111.002 146.974 110.531 147.185 110.056C145.68 110.241 144.076 110.371 142.374 110.448Z" fill="black" style="fill:black;fill-opacity:1;"/>
<path d="M127.307 59.6584C129.99 59.6584 132.165 57.4836 132.165 54.8007C132.165 52.1179 129.99 49.9431 127.307 49.9431C124.624 49.9431 122.449 52.1179 122.449 54.8007C122.449 57.4836 124.624 59.6584 127.307 59.6584Z" fill="white" style="fill:white;fill-opacity:1;"/>
<path d="M127.32 47.6509C125.479 47.6509 123.713 48.3825 122.411 49.6846C121.108 50.9867 120.377 52.7527 120.377 54.5942C120.377 58.4288 127.32 71.0209 127.32 71.0209C127.32 71.0209 134.263 58.4288 134.263 54.5942C134.263 52.7527 133.532 50.9867 132.23 49.6846C130.928 48.3825 129.162 47.6509 127.32 47.6509ZM127.32 57.9811C126.684 57.9811 126.062 57.7924 125.533 57.4389C125.003 57.0853 124.591 56.5828 124.348 55.9949C124.104 55.4069 124.04 54.76 124.164 54.1358C124.289 53.5117 124.595 52.9383 125.045 52.4883C125.495 52.0383 126.068 51.7319 126.692 51.6077C127.317 51.4836 127.964 51.5473 128.552 51.7908C129.139 52.0344 129.642 52.4468 129.996 52.9759C130.349 53.5051 130.538 54.1271 130.538 54.7635C130.538 55.6169 130.199 56.4353 129.595 57.0387C128.992 57.6421 128.174 57.9811 127.32 57.9811Z" fill="#301F92" style="fill:#301F92;fill:color(display-p3 0.1894 0.1204 0.5743);fill-opacity:1;"/>
<path d="M107.268 77.2676C109.951 77.2676 112.126 75.0928 112.126 72.4099C112.126 69.7271 109.951 67.5522 107.268 67.5522C104.585 67.5522 102.41 69.7271 102.41 72.4099C102.41 75.0928 104.585 77.2676 107.268 77.2676Z" fill="white" style="fill:white;fill-opacity:1;"/>
<path d="M107.283 65.2601C105.442 65.2601 103.676 65.9916 102.373 67.2937C101.071 68.5958 100.34 70.3619 100.34 72.2033C100.34 76.038 107.283 88.63 107.283 88.63C107.283 88.63 114.226 76.038 114.226 72.2033C114.226 70.3619 113.495 68.5958 112.193 67.2937C110.891 65.9916 109.125 65.2601 107.283 65.2601ZM107.283 75.5903C106.647 75.5903 106.025 75.4016 105.495 75.048C104.966 74.6944 104.554 74.1919 104.31 73.604C104.067 73.016 104.003 72.3691 104.127 71.7449C104.251 71.1208 104.558 70.5475 105.008 70.0975C105.458 69.6475 106.031 69.341 106.655 69.2169C107.28 69.0927 107.926 69.1564 108.514 69.4C109.102 69.6435 109.605 70.0559 109.958 70.5851C110.312 71.1142 110.501 71.7363 110.501 72.3727C110.501 73.226 110.162 74.0444 109.558 74.6478C108.955 75.2513 108.136 75.5903 107.283 75.5903Z" fill="#301F92" style="fill:#301F92;fill:color(display-p3 0.1894 0.1204 0.5743);fill-opacity:1;"/>
<path d="M107.268 45.9962C109.951 45.9962 112.126 43.8213 112.126 41.1385C112.126 38.4557 109.951 36.2808 107.268 36.2808C104.585 36.2808 102.41 38.4557 102.41 41.1385C102.41 43.8213 104.585 45.9962 107.268 45.9962Z" fill="white" style="fill:white;fill-opacity:1;"/>
<path d="M107.283 33.9887C105.442 33.9887 103.676 34.7202 102.373 36.0223C101.071 37.3244 100.34 39.0905 100.34 40.9319C100.34 44.7666 107.283 57.3587 107.283 57.3587C107.283 57.3587 114.226 44.7666 114.226 40.9319C114.226 39.0905 113.495 37.3244 112.193 36.0223C110.891 34.7202 109.125 33.9887 107.283 33.9887ZM107.283 44.3189C106.647 44.3189 106.025 44.1302 105.495 43.7766C104.966 43.4231 104.554 42.9206 104.31 42.3326C104.067 41.7447 104.003 41.0977 104.127 40.4736C104.251 39.8494 104.558 39.2761 105.008 38.8261C105.458 38.3761 106.031 38.0697 106.655 37.9455C107.28 37.8214 107.926 37.8851 108.514 38.1286C109.102 38.3721 109.605 38.7846 109.958 39.3137C110.312 39.8428 110.501 40.4649 110.501 41.1013C110.501 41.5238 110.417 41.9422 110.256 42.3326C110.094 42.723 109.857 43.0777 109.558 43.3765C109.259 43.6753 108.905 43.9123 108.514 44.074C108.124 44.2357 107.706 44.3189 107.283 44.3189Z" fill="#CCCCCC" style="fill:#CCCCCC;fill:color(display-p3 0.8000 0.8000 0.8000);fill-opacity:1;"/>
<path d="M139.754 83.6432C142.437 83.6432 144.612 81.4684 144.612 78.7855C144.612 76.1027 142.437 73.9279 139.754 73.9279C137.071 73.9279 134.896 76.1027 134.896 78.7855C134.896 81.4684 137.071 83.6432 139.754 83.6432Z" fill="white" style="fill:white;fill-opacity:1;"/>
<path d="M139.769 71.6357C137.928 71.6357 136.162 72.3673 134.86 73.6694C133.558 74.9715 132.826 76.7375 132.826 78.579C132.826 82.4136 139.769 95.0057 139.769 95.0057C139.769 95.0057 146.713 82.4136 146.713 78.579C146.713 76.7375 145.981 74.9715 144.679 73.6694C143.377 72.3673 141.611 71.6357 139.769 71.6357ZM139.769 81.9659C139.133 81.9659 138.511 81.7772 137.982 81.4237C137.453 81.0701 137.04 80.5676 136.797 79.9797C136.553 79.3917 136.489 78.7448 136.614 78.1206C136.738 77.4965 137.044 76.9231 137.494 76.4731C137.944 76.0231 138.518 75.7167 139.142 75.5925C139.766 75.4684 140.413 75.5321 141.001 75.7756C141.589 76.0192 142.091 76.4316 142.445 76.9607C142.798 77.4899 142.987 78.1119 142.987 78.7483C142.987 79.6017 142.648 80.4201 142.045 81.0235C141.441 81.6269 140.623 81.9659 139.769 81.9659Z" fill="#CCCCCC" style="fill:#CCCCCC;fill:color(display-p3 0.8000 0.8000 0.8000);fill-opacity:1;"/>
<path d="M77.2112 72.7135C79.894 72.7135 82.0689 70.5386 82.0689 67.8558C82.0689 65.173 79.894 62.9981 77.2112 62.9981C74.5284 62.9981 72.3535 65.173 72.3535 67.8558C72.3535 70.5386 74.5284 72.7135 77.2112 72.7135Z" fill="white" style="fill:white;fill-opacity:1;"/>
<path d="M77.2264 60.706C75.385 60.706 73.6189 61.4375 72.3168 62.7396C71.0147 64.0417 70.2832 65.8078 70.2832 67.6492C70.2832 71.4839 77.2264 84.0759 77.2264 84.0759C77.2264 84.0759 84.1697 71.4839 84.1697 67.6492C84.1697 65.8078 83.4381 64.0417 82.136 62.7396C80.8339 61.4375 79.0679 60.706 77.2264 60.706ZM77.2264 71.0362C76.59 71.0362 75.968 70.8475 75.4388 70.4939C74.9097 70.1404 74.4973 69.6378 74.2537 69.0499C74.0102 68.462 73.9465 67.815 74.0706 67.1909C74.1948 66.5667 74.5012 65.9934 74.9512 65.5434C75.4012 65.0934 75.9746 64.7869 76.5987 64.6628C77.2229 64.5386 77.8698 64.6024 78.4578 64.8459C79.0457 65.0894 79.5482 65.5018 79.9018 66.031C80.2553 66.5601 80.444 67.1822 80.444 67.8186C80.444 68.6719 80.105 69.4904 79.5016 70.0938C78.8982 70.6972 78.0798 71.0362 77.2264 71.0362Z" fill="#CCCCCC" style="fill:#CCCCCC;fill:color(display-p3 0.8000 0.8000 0.8000);fill-opacity:1;"/>
<path d="M79.0335 99.1271C81.7163 99.1271 83.8911 96.9523 83.8911 94.2694C83.8911 91.5866 81.7163 89.4117 79.0335 89.4117C76.3506 89.4117 74.1758 91.5866 74.1758 94.2694C74.1758 96.9523 76.3506 99.1271 79.0335 99.1271Z" fill="white" style="fill:white;fill-opacity:1;"/>
<path d="M79.0467 87.1196C77.2053 87.1196 75.4392 87.8512 74.1371 89.1533C72.835 90.4554 72.1035 92.2214 72.1035 94.0629C72.1035 97.8975 79.0467 110.49 79.0467 110.49C79.0467 110.49 85.99 97.8975 85.99 94.0629C85.99 92.2214 85.2585 90.4554 83.9564 89.1533C82.6542 87.8512 80.8882 87.1196 79.0467 87.1196ZM79.0467 97.4498C78.4104 97.4498 77.7883 97.2611 77.2591 96.9076C76.73 96.554 76.3176 96.0515 76.0741 95.4635C75.8305 94.8756 75.7668 94.2287 75.891 93.6045C76.0151 92.9803 76.3216 92.407 76.7715 91.957C77.2215 91.507 77.7949 91.2006 78.419 91.0764C79.0432 90.9523 79.6901 91.016 80.2781 91.2595C80.866 91.5031 81.3685 91.9155 81.7221 92.4446C82.0756 92.9737 82.2644 93.5958 82.2644 94.2322C82.2644 95.0856 81.9254 95.904 81.3219 96.5074C80.7185 97.1108 79.9001 97.4498 79.0467 97.4498Z" fill="#301F92" style="fill:#301F92;fill:color(display-p3 0.1894 0.1204 0.5743);fill-opacity:1;"/>
</g>
<defs>
<clipPath id="clip0_39_36458">
<rect width="219.993" height="160" fill="white" style="fill:white;fill-opacity:1;" transform="translate(0.00390625)"/>
</clipPath>
</defs>
</svg>
