<svg width="164" height="161" viewBox="0 0 164 161" fill="none" xmlns="http://www.w3.org/2000/svg">
<g clip-path="url(#clip0_39_36958)">
<path d="M104.102 36.4834H59.9347C58.9282 36.4847 57.9633 36.885 57.2516 37.5967C56.5399 38.3084 56.1395 39.2734 56.1383 40.2799V138.443L55.6321 138.597L44.7971 141.915C44.2836 142.072 43.7289 142.018 43.2549 141.766C42.7809 141.514 42.4262 141.085 42.2687 140.571L10.0395 35.2964C9.88268 34.7829 9.93614 34.2281 10.1881 33.754C10.4402 33.2799 10.8701 32.9253 11.3835 32.768L28.0802 27.6555L76.4846 12.8393L93.1812 7.72679C93.4353 7.64858 93.7023 7.62126 93.967 7.64637C94.2317 7.67148 94.4888 7.74854 94.7236 7.87313C94.9585 7.99773 95.1665 8.16741 95.3357 8.37247C95.5049 8.57754 95.632 8.81395 95.7097 9.06819L103.948 35.9772L104.102 36.4834Z" fill="#F2F2F2" style="fill:#F2F2F2;fill:color(display-p3 0.9490 0.9490 0.9490);fill-opacity:1;"/>
<path d="M113.74 35.9773L103.811 3.54572C103.646 3.00535 103.376 2.50282 103.017 2.06686C102.657 1.6309 102.215 1.27004 101.716 1.00492C101.217 0.739788 100.671 0.575581 100.109 0.521685C99.546 0.467788 98.9785 0.525259 98.4382 0.690806L74.9636 7.87617L26.5618 22.6949L3.08728 29.8828C1.99678 30.2176 1.08369 30.9715 0.548425 31.9789C0.0131644 32.9863 -0.100532 34.1649 0.232296 35.256L34.1673 146.094C34.4377 146.975 34.9832 147.746 35.7239 148.294C36.4645 148.842 37.3613 149.138 38.2827 149.139C38.7091 149.139 39.1331 149.075 39.5405 148.949L55.6323 144.024L56.1385 143.867V143.338L55.6323 143.492L39.3912 148.465C38.4286 148.759 37.389 148.658 36.5003 148.186C35.6116 147.714 34.9465 146.909 34.6507 145.947L0.718342 35.1067C0.571822 34.6301 0.520757 34.1292 0.568067 33.6329C0.615376 33.1365 0.760129 32.6544 0.994044 32.214C1.22796 31.7737 1.54644 31.3838 1.93125 31.0667C2.31605 30.7497 2.75962 30.5116 3.23656 30.3662L26.7111 23.1783L75.1131 8.36212L98.5876 1.17422C98.9494 1.06382 99.3255 1.00753 99.7037 1.00718C100.515 1.009 101.305 1.27069 101.957 1.75392C102.61 2.23714 103.09 2.91651 103.328 3.69252L113.211 35.9773L113.368 36.4835H113.895L113.74 35.9773Z" fill="#3F3D56" style="fill:#3F3D56;fill:color(display-p3 0.2471 0.2392 0.3373);fill-opacity:1;"/>
<path d="M31.092 32.8508C30.6042 32.8505 30.1293 32.6938 29.7371 32.4038C29.3449 32.1138 29.0559 31.7057 28.9125 31.2395L25.6526 20.5913C25.565 20.3053 25.5346 20.0048 25.5631 19.707C25.5917 19.4092 25.6786 19.12 25.8189 18.8558C25.9593 18.5916 26.1503 18.3577 26.381 18.1674C26.6118 17.977 26.8778 17.834 27.1639 17.7465L71.6931 4.1138C72.2708 3.93753 72.8948 3.99765 73.4282 4.28096C73.9615 4.56428 74.3607 5.04764 74.5381 5.62496L77.7981 16.2732C77.9742 16.8509 77.9141 17.4748 77.6308 18.0082C77.3475 18.5415 76.8642 18.9407 76.2869 19.1182L31.7575 32.7509C31.5419 32.817 31.3176 32.8507 31.092 32.8508Z" fill="#014DAB" style="fill:#014DAB;fill:color(display-p3 0.0039 0.3020 0.6706);fill-opacity:1;"/>
<path d="M48.1693 11.8778C50.9649 11.8778 53.2312 9.61154 53.2312 6.81593C53.2312 4.02032 50.9649 1.75403 48.1693 1.75403C45.3737 1.75403 43.1074 4.02032 43.1074 6.81593C43.1074 9.61154 45.3737 11.8778 48.1693 11.8778Z" fill="#014DAB" style="fill:#014DAB;fill:color(display-p3 0.0039 0.3020 0.6706);fill-opacity:1;"/>
<path d="M48.1702 10.0213C49.9405 10.0213 51.3755 8.58621 51.3755 6.81595C51.3755 5.04568 49.9405 3.6106 48.1702 3.6106C46.3999 3.6106 44.9648 5.04568 44.9648 6.81595C44.9648 8.58621 46.3999 10.0213 48.1702 10.0213Z" fill="white" style="fill:white;fill-opacity:1;"/>
<path d="M152.567 147.845H67.0204C66.4501 147.845 65.9033 147.618 65.5 147.214C65.0967 146.811 64.8698 146.264 64.8691 145.694V43.1905C64.8698 42.6201 65.0966 42.0733 65.4999 41.67C65.9033 41.2667 66.4501 41.0398 67.0204 41.0392H152.567C153.137 41.0398 153.684 41.2667 154.087 41.67C154.49 42.0733 154.717 42.6201 154.718 43.1905V145.694C154.717 146.264 154.49 146.811 154.087 147.214C153.684 147.618 153.137 147.845 152.567 147.845Z" fill="#E6E6E6" style="fill:#E6E6E6;fill:color(display-p3 0.9020 0.9020 0.9020);fill-opacity:1;"/>
<path d="M113.21 35.9773H59.9335C58.7928 35.9789 57.6994 36.4327 56.8929 37.2393C56.0863 38.0458 55.6325 39.1393 55.6309 40.2799V143.492L56.137 143.338V40.2799C56.1383 39.2734 56.5386 38.3085 57.2503 37.5968C57.9621 36.8851 58.927 36.4847 59.9335 36.4835H113.367L113.21 35.9773ZM159.653 35.9773H59.9335C58.7928 35.9789 57.6994 36.4327 56.8929 37.2393C56.0863 38.0458 55.6325 39.1393 55.6309 40.2799V156.197C55.6325 157.338 56.0863 158.431 56.8929 159.238C57.6994 160.045 58.7928 160.498 59.9335 160.5H159.653C160.794 160.498 161.887 160.045 162.694 159.238C163.5 158.431 163.954 157.338 163.955 156.197V40.2799C163.954 39.1393 163.5 38.0458 162.694 37.2393C161.887 36.4327 160.794 35.9789 159.653 35.9773ZM163.449 156.197C163.448 157.204 163.048 158.169 162.336 158.881C161.624 159.592 160.659 159.993 159.653 159.994H59.9335C58.927 159.993 57.9621 159.592 57.2503 158.881C56.5386 158.169 56.1383 157.204 56.137 156.197V40.2799C56.1383 39.2734 56.5386 38.3085 57.2503 37.5968C57.9621 36.8851 58.927 36.4847 59.9335 36.4835H159.653C160.659 36.4847 161.624 36.8851 162.336 37.5968C163.048 38.3085 163.448 39.2734 163.449 40.2799V156.197Z" fill="#3F3D56" style="fill:#3F3D56;fill:color(display-p3 0.2471 0.2392 0.3373);fill-opacity:1;"/>
<path d="M133.08 47.1135H86.5103C85.9064 47.1128 85.3274 46.8726 84.9003 46.4456C84.4733 46.0186 84.2331 45.4396 84.2324 44.8357V33.6995C84.2331 33.0956 84.4733 32.5166 84.9003 32.0896C85.3274 31.6625 85.9064 31.4223 86.5103 31.4216H133.08C133.684 31.4223 134.263 31.6625 134.69 32.0896C135.117 32.5166 135.357 33.0956 135.358 33.6995V44.8357C135.357 45.4396 135.117 46.0186 134.69 46.4456C134.263 46.8726 133.684 47.1128 133.08 47.1135Z" fill="#014DAB" style="fill:#014DAB;fill:color(display-p3 0.0039 0.3020 0.6706);fill-opacity:1;"/>
<path d="M109.794 32.1808C112.59 32.1808 114.856 29.9145 114.856 27.1189C114.856 24.3233 112.59 22.057 109.794 22.057C106.999 22.057 104.732 24.3233 104.732 27.1189C104.732 29.9145 106.999 32.1808 109.794 32.1808Z" fill="#014DAB" style="fill:#014DAB;fill:color(display-p3 0.0039 0.3020 0.6706);fill-opacity:1;"/>
<path d="M109.794 30.2021C111.497 30.2021 112.877 28.8217 112.877 27.1189C112.877 25.4161 111.497 24.0358 109.794 24.0358C108.091 24.0358 106.711 25.4161 106.711 27.1189C106.711 28.8217 108.091 30.2021 109.794 30.2021Z" fill="white" style="fill:white;fill-opacity:1;"/>
</g>
<defs>
<clipPath id="clip0_39_36958">
<rect width="163.913" height="160" fill="white" style="fill:white;fill-opacity:1;" transform="translate(0.0429688 0.5)"/>
</clipPath>
</defs>
</svg>
