<?xml version="1.0" encoding="UTF-8"?>
<svg version="1.1" xmlns="http://www.w3.org/2000/svg" width="2160" height="96">
<path d="M0 0 C712.8 0 1425.6 0 2160 0 C2160 31.68 2160 63.36 2160 96 C1447.2 96 734.4 96 0 96 C0 64.32 0 32.64 0 0 Z " fill="#2E64DC" transform="translate(0,0)"/>
<path d="M0 0 C4.25810962 1.34935313 8.28388825 2.94927061 12.34765625 4.80078125 C12.94935638 5.07378555 13.55105652 5.34678986 14.17098999 5.62806702 C16.1360392 6.52023696 18.09923809 7.41640486 20.0625 8.3125 C22.12879208 9.25159141 24.1955839 10.18957685 26.2624054 11.12750244 C27.68352597 11.77247436 29.1044941 12.41778225 30.52531433 13.06341553 C38.15076937 16.52726902 45.79320098 19.95298374 53.4375 23.375 C54.71168106 23.94569452 55.98585129 24.51641324 57.26000977 25.0871582 C60.17315927 26.39184278 63.08647992 27.69614323 66 29 C65.67 30.32 65.34 31.64 65 33 C38.93 33 12.86 33 -14 33 C-11 24 -11 24 -8 21 C-7.01 22.65 -6.02 24.3 -5 26 C-7.3627295 22.30823515 -7.315714 19.31475795 -7 15 C-6.07248446 12.22602878 -4.82387351 9.66679943 -3.5 7.0625 C-3.16613281 6.37865234 -2.83226562 5.69480469 -2.48828125 4.99023438 C-1.67106961 3.32078773 -0.8372253 1.65950015 0 0 Z " fill="#3C72DE" transform="translate(2034,63)"/>
<path d="M0 0 C16.5 0 33 0 50 0 C49.01521324 8.86308081 48.6368144 11.70954887 42.375 17.375 C35.74119404 20.56905472 30.1464695 19.56079917 23.30273438 17.20288086 C20.51431741 16.18618222 17.75228283 15.11043111 15 14 C15 13.34 15 12.68 15 12 C11.7 12.66 8.4 13.32 5 14 C5.33 12.02 5.66 10.04 6 8 C5.38125 7.731875 4.7625 7.46375 4.125 7.1875 C2 6 2 6 0 3 C0 2.01 0 1.02 0 0 Z " fill="#396FDE" transform="translate(593,0)"/>
<path d="M0 0 C4.69431105 2.28229669 9.53819189 4.79699107 12.87304688 8.91064453 C12.87304688 10.23064453 12.87304688 11.55064453 12.87304688 12.91064453 C-3.29695313 12.91064453 -19.46695312 12.91064453 -36.12695312 12.91064453 C-36.12695312 2.32090094 -36.12695312 2.32090094 -32.12695312 -2.08935547 C-21.44913549 -10.20449687 -10.91093761 -5.07896462 0 0 Z " fill="#3C71DE" transform="translate(1927.126953125,83.08935546875)"/>
<path d="M0 0 C11.22 0 22.44 0 34 0 C33.0925 2.51625 32.185 5.0325 31.25 7.625 C30.83476074 8.79603271 30.83476074 8.79603271 30.41113281 9.99072266 C28.76283322 14.46841375 26.80335991 18.13623873 24 22 C18.35389796 21.37367873 13.51029648 19.41342868 8.3125 17.25 C7.03149414 16.74726562 7.03149414 16.74726562 5.72460938 16.234375 C2.14266234 14.74869705 -0.53340066 13.45331259 -3.33203125 10.734375 C-4 8 -4 8 0 0 Z " fill="#3D72DE" transform="translate(1636,0)"/>
<path d="M0 0 C15.51 0 31.02 0 47 0 C46.20810561 3.95947194 45.34781922 7.07318374 43.8125 10.75 C43.42707031 11.71421875 43.04164063 12.6784375 42.64453125 13.671875 C41 16 41 16 38.484375 17.11328125 C33.20032123 16.94149026 29.13895457 14.72782915 24.4375 12.4375 C23.46474121 11.97875488 22.49198242 11.52000977 21.48974609 11.04736328 C19.54965974 10.13163221 17.61240696 9.20987058 15.67822266 8.28173828 C12.1779653 6.60659233 8.65359956 4.98951909 5.125 3.375 C3.41634152 2.58403533 1.70785329 1.79270172 0 1 C0 0.67 0 0.34 0 0 Z " fill="#396FDE" transform="translate(103,0)"/>
<path d="M0 0 C15.18 0 30.36 0 46 0 C44.95496901 6.27018593 44.67297619 7.24130176 40 11 C35.14905797 13.60513553 31.47967834 14.73062378 26 14 C23.21218914 12.8179343 20.50739839 11.50523594 17.78515625 10.1796875 C12.59988395 7.98340105 7.5541412 8 2 8 C2.33 6.02 2.66 4.04 3 2 C2.01 1.67 1.02 1.34 0 1 C0 0.67 0 0.34 0 0 Z " fill="#396FDE" transform="translate(1307,0)"/>
<path d="M0 0 C4.97447953 0.43451779 9.06985929 2.20915343 13.5 4.375 C14.13808594 4.67921875 14.77617188 4.9834375 15.43359375 5.296875 C16.69183213 5.8989768 17.94706947 6.50739689 19.19897461 7.12255859 C20.92326166 7.96261386 22.66644345 8.76354797 24.41015625 9.5625 C27 11 27 11 27.9375 13.625 C27.958125 14.40875 27.97875 15.1925 28 16 C27 17 27 17 23.67358398 17.11352539 C22.19774444 17.11336629 20.72189931 17.10767314 19.24609375 17.09765625 C18.47064713 17.0962413 17.6952005 17.09482635 16.89625549 17.09336853 C14.40996506 17.08775345 11.9237634 17.07519846 9.4375 17.0625 C7.75586067 17.05748694 6.07421994 17.0529237 4.39257812 17.04882812 C0.26168434 17.03777913 -3.86914276 17.02050445 -8 17 C-6.85700498 14.35290709 -5.71075628 11.70730948 -4.5625 9.0625 C-4.23701172 8.30775391 -3.91152344 7.55300781 -3.57617188 6.77539062 C-1.11328125 1.11328125 -1.11328125 1.11328125 0 0 Z " fill="#3D72DE" transform="translate(620,79)"/>
<path d="M0 0 C6.64632176 0.25562776 11.30410867 2.40851347 17.1484375 5.515625 C19.47932764 6.72896507 21.73082794 7.71512146 24.1875 8.625 C25.115625 9.07875 26.04375 9.5325 27 10 C27.495 11.98 27.495 11.98 28 14 C16.45 14 4.9 14 -7 14 C-4.69 9.38 -2.38 4.76 0 0 Z " fill="#3C72DE" transform="translate(79,82)"/>
<path d="M0 0 C0.66 0 1.32 0 2 0 C3.48046875 1.8359375 3.48046875 1.8359375 5.1875 4.375 C6.10789062 5.73238281 6.10789062 5.73238281 7.046875 7.1171875 C7.69140625 8.06851563 8.3359375 9.01984375 9 10 C10.9006219 12.65939731 12.80500588 15.31596422 14.71484375 17.96875 C16 20 16 20 16 22 C7.75 22 -0.5 22 -9 22 C-6.50812334 15.14733917 -4.27813755 9.33019664 -1 3 C-0.67 2.01 -0.34 1.02 0 0 Z " fill="#3D72DE" transform="translate(1251,74)"/>
<path d="M0 0 C28.05 0 56.1 0 85 0 C85 0.33 85 0.66 85 1 C83.78098999 1.03758423 83.78098999 1.03758423 82.53735352 1.07592773 C78.87889248 1.19149118 75.22071472 1.31439584 71.5625 1.4375 C70.28310547 1.47681641 69.00371094 1.51613281 67.68554688 1.55664062 C65.86313477 1.61948242 65.86313477 1.61948242 64.00390625 1.68359375 C62.87799072 1.72025146 61.7520752 1.75690918 60.59204102 1.79467773 C58.07146559 1.71218045 58.07146559 1.71218045 57 3 C56.87485589 5.70753726 56.81392872 8.39082104 56.79467773 11.09985352 C56.78477814 11.94856018 56.77487854 12.79726685 56.76467896 13.67169189 C56.73296753 16.49073449 56.70826861 19.30979398 56.68359375 22.12890625 C56.66303254 24.07804311 56.6420363 26.02717544 56.62062073 27.9763031 C56.56531402 33.11701793 56.5159428 38.25777357 56.46777344 43.39855957 C56.41762103 48.64009247 56.36190237 53.8815658 56.30664062 59.12304688 C56.19895394 69.41531375 56.09753247 79.70763225 56 90 C55.67 90 55.34 90 55 90 C55 60.63 55 31.26 55 1 C45.43 1 35.86 1 26 1 C26 10.24 26 19.48 26 29 C25.67 29 25.34 29 25 29 C25 19.76 25 10.52 25 1 C16.75 1 8.5 1 0 1 C0 0.67 0 0.34 0 0 Z " fill="#376DDE" transform="translate(297,0)"/>
<path d="M0 0 C3.71888239 0.50712033 6.73454239 1.11608215 10 3 C9.42732628 7.10416164 8.5731146 10.0672135 7 14 C3.37 14 -0.26 14 -4 14 C-3.525625 12.618125 -3.05125 11.23625 -2.5625 9.8125 C-1.47489892 6.55995715 -0.54743956 3.39412527 0 0 Z " fill="#396FDE" transform="translate(1452,82)"/>
<path d="M0 0 C5.30018387 0.59355371 9.58136893 2.37372632 14.375 4.5625 C15.11105469 4.89185547 15.84710937 5.22121094 16.60546875 5.56054688 C18.40644557 6.36747805 20.20362181 7.1828826 22 8 C22 8.33 22 8.66 22 9 C13.75 9 5.5 9 -3 9 C-2.01 6.03 -1.02 3.06 0 0 Z " fill="#3D72DE" transform="translate(863,87)"/>
<path d="M0 0 C1.65 0 3.3 0 5 0 C5 0.66 5 1.32 5 2 C5.78375 2.061875 6.5675 2.12375 7.375 2.1875 C11.52302544 3.11722984 14.7702878 4.7657894 18.51953125 6.72265625 C21.62060161 8.3195854 24.77740657 9.6689288 28 11 C27.67 12.32 27.34 13.64 27 15 C22.493725 13.20285461 17.99390333 11.39033115 13.5 9.5625 C12.75363281 9.26279297 12.00726562 8.96308594 11.23828125 8.65429688 C3.18217787 5.36769187 3.18217787 5.36769187 0 3 C0 2.01 0 1.02 0 0 Z " fill="#396FDE" transform="translate(894,9)"/>
<path d="M0 0 C2.97 0 5.94 0 9 0 C9.5326514 6.258654 7.81849506 10.45108785 5 16 C4.01 16 3.02 16 2 16 C2.66 13.69 3.32 11.38 4 9 C2.02 8.34 0.04 7.68 -2 7 C-1.125 2.25 -1.125 2.25 0 0 Z " fill="#376DDE" transform="translate(916,0)"/>
<path d="M0 0 C0.99 0.33 1.98 0.66 3 1 C2.67 1.66 2.34 2.32 2 3 C1.87732078 5.80632402 1.81426341 8.5894352 1.79467773 11.39697266 C1.78477814 12.26533249 1.77487854 13.13369232 1.76467896 14.02836609 C1.73301842 16.90690355 1.70828855 19.78545753 1.68359375 22.6640625 C1.66302815 24.65661047 1.64203179 26.64915405 1.62062073 28.64169312 C1.56535933 33.89254192 1.51596801 39.14343036 1.46777344 44.39434814 C1.41758809 49.74991392 1.36188656 55.10542196 1.30664062 60.4609375 C1.1990093 70.97390904 1.09757539 81.48693066 1 92 C0.67 92 0.34 92 0 92 C0 61.64 0 31.28 0 0 Z " fill="#386EDE" transform="translate(838,0)"/>
<path d="M0 0 C3.62351253 1.20783751 4.15215236 2.29653142 6.1875 5.4375 C6.71730469 6.24058594 7.24710938 7.04367188 7.79296875 7.87109375 C9 10 9 10 9 12 C4.71 12 0.42 12 -4 12 C-1.125 2.25 -1.125 2.25 0 0 Z " fill="#3C71DE" transform="translate(1604,84)"/>
<path d="M0 0 C-0.66 2.31 -1.32 4.62 -2 7 C-4.475 6.01 -4.475 6.01 -7 5 C-6.2265625 6.1446875 -6.2265625 6.1446875 -5.4375 7.3125 C-4.963125 8.199375 -4.48875 9.08625 -4 10 C-4.33 10.99 -4.66 11.98 -5 13 C-5.33773438 12.50628906 -5.67546875 12.01257813 -6.0234375 11.50390625 C-6.46945312 10.86324219 -6.91546875 10.22257812 -7.375 9.5625 C-7.81585937 8.92441406 -8.25671875 8.28632812 -8.7109375 7.62890625 C-9.92160853 5.86259072 -9.92160853 5.86259072 -12 5 C-12.20496094 5.69867188 -12.40992188 6.39734375 -12.62109375 7.1171875 C-12.89050781 8.02726562 -13.15992188 8.93734375 -13.4375 9.875 C-13.83775391 11.23238281 -13.83775391 11.23238281 -14.24609375 12.6171875 C-15 15 -15 15 -16 17 C-16.66 17 -17.32 17 -18 17 C-17.03662017 13.98687584 -16.02874163 10.99141 -15 8 C-14.77183594 7.30003906 -14.54367187 6.60007812 -14.30859375 5.87890625 C-13.625 4 -13.625 4 -12 1 C-8.22297211 -0.57376162 -4.05692518 -0.07954755 0 0 Z " fill="#2B5FD2" transform="translate(1616,79)"/>
<path d="M0 0 C1.65 0 3.3 0 5 0 C5 0.66 5 1.32 5 2 C5.69480469 2.10183594 6.38960938 2.20367187 7.10546875 2.30859375 C10.49052552 3.11717006 13.22287019 4.46675713 16.3125 6.0625 C17.38113281 6.61035156 18.44976562 7.15820312 19.55078125 7.72265625 C20.35902344 8.14417969 21.16726563 8.56570312 22 9 C21.67 9.66 21.34 10.32 21 11 C15.79714932 10.42460686 11.76043964 8.70581107 7.125 6.4375 C6.43664062 6.10814453 5.74828125 5.77878906 5.0390625 5.43945312 C3.3561267 4.63304639 1.67759707 3.81745506 0 3 C0 2.01 0 1.02 0 0 Z " fill="#3B70DE" transform="translate(265,9)"/>
<path d="M0 0 C5.01508715 1.54058233 9.6147081 3.02931839 14 6 C13.67 7.32 13.34 8.64 13 10 C12.01 10 11.02 10 10 10 C9.67 10.66 9.34 11.32 9 12 C9 10.68 9 9.36 9 8 C7.9171875 7.8453125 7.9171875 7.8453125 6.8125 7.6875 C3.75508007 6.94013068 1.61670365 5.71954811 -1 4 C-0.67 2.68 -0.34 1.36 0 0 Z " fill="#396EDE" transform="translate(1815,22)"/>
<path d="M0 0 C3.7602985 0.58107632 6.53035032 1.65199496 9.8125 3.5625 C10.60269531 4.01753906 11.39289063 4.47257812 12.20703125 4.94140625 C12.79871094 5.29074219 13.39039063 5.64007813 14 6 C13.67 6.99 13.34 7.98 13 9 C7.29290936 8.53411505 3.84060277 7.06242216 -1 4 C-0.67 2.68 -0.34 1.36 0 0 Z " fill="#3A6FDE" transform="translate(1454,75)"/>
<path d="M0 0 C3.96 0 7.92 0 12 0 C11.34 1.98 10.68 3.96 10 6 C8.68 6 7.36 6 6 6 C6 5.34 6 4.68 6 4 C2.27385847 5.11854586 2.27385847 5.11854586 0 8 C-0.66 8 -1.32 8 -2 8 C-1.34 5.36 -0.68 2.72 0 0 Z " fill="#3B70DE" transform="translate(901,0)"/>
<path d="M0 0 C3.63 0 7.26 0 11 0 C10.34 1.98 9.68 3.96 9 6 C4.545 5.01 4.545 5.01 0 4 C-0.33 5.32 -0.66 6.64 -1 8 C-1.66 8 -2.32 8 -3 8 C-1.125 2.25 -1.125 2.25 0 0 Z " fill="#3B71DE" transform="translate(273,0)"/>
<path d="M0 0 C1.32 0 2.64 0 4 0 C3.43623218 3.94637474 2.4640248 6.83196811 0 10 C-2.5625 10.9375 -2.5625 10.9375 -5 11 C-5.66 10.34 -6.32 9.68 -7 9 C-6.38125 8.95875 -5.7625 8.9175 -5.125 8.875 C-4.42375 8.58625 -3.7225 8.2975 -3 8 C-1.75 5.08333333 -1.75 5.08333333 -1 2 C-0.67 1.34 -0.34 0.68 0 0 Z " fill="#2C60D6" transform="translate(1122,0)"/>
<path d="M0 0 C1.67542976 0.28604898 3.34385343 0.61781233 5 1 C6.125 4.75 6.125 4.75 5 7 C3.33388095 7.042721 1.66617115 7.04063832 0 7 C-1 6 -1 6 -1.125 3.5 C-1 1 -1 1 0 0 Z " fill="#2D62D8" transform="translate(1902,88)"/>
<path d="M0 0 C7.18132603 0.32642391 12.74951347 3.67639856 19 7 C20.33112586 7.67106345 21.66349217 8.33972048 23 9 C19.51692062 10.16102646 19.04583779 9.8655959 15.83984375 8.41796875 C14.6497168 7.88526367 14.6497168 7.88526367 13.43554688 7.34179688 C12.61119141 6.96087891 11.78683594 6.57996094 10.9375 6.1875 C10.10927734 5.81818359 9.28105469 5.44886719 8.42773438 5.06835938 C2.28387742 2.28387742 2.28387742 2.28387742 0 0 Z " fill="#2D61D5" transform="translate(1981,0)"/>
<path d="M0 0 C1.65 0.33 3.3 0.66 5 1 C5.625 2.875 5.625 2.875 6 5 C5.34 5.66 4.68 6.32 4 7 C1.375 6.625 1.375 6.625 -1 6 C-0.67 4.02 -0.34 2.04 0 0 Z " fill="#2D61D8" transform="translate(627,1)"/>
<path d="M0 0 C0.33 0.66 0.66 1.32 1 2 C-1.64 2 -4.28 2 -7 2 C-7 1.34 -7 0.68 -7 0 C-4.30234372 -1.34882814 -2.84835666 -0.80338265 0 0 Z " fill="#3267D9" transform="translate(2061,94)"/>
</svg>
