<svg width="56" height="56" viewBox="0 0 56 56" fill="none" xmlns="http://www.w3.org/2000/svg">
<path d="M39.9357 34.8864C40.0525 35.0531 40.1725 35.2081 40.2926 35.3333C42.5407 37.5313 43.4779 39.0123 43.8814 39.6493C43.8814 39.6493 44.5819 41.0336 44.682 41.2437C45.0922 42.1143 45.0922 43.0182 45.0922 43.0182C45.1289 43.1883 45.0855 43.3317 44.9855 43.4685C44.3418 46.7172 35.7063 49.3022 25.1496 49.3022C14.176 49.3022 5.24365 46.5103 5.24365 43.0816C5.24365 42.8397 5.30037 42.5979 5.38711 42.3578C5.62738 41.0987 6.53795 38.8255 10.1135 35.32C10.6038 34.8164 12.5784 31.8979 14.0059 21.768C14.9966 14.7453 20.6535 12.6739 24.656 12.4972C27.2809 8.885 31.5236 6.52179 36.32 6.52179C44.2718 6.52179 50.7424 12.9926 50.7424 20.9442C50.7425 27.645 46.1396 33.2753 39.9357 34.8864Z" fill="#014DAB" style="fill:#014DAB;fill:color(display-p3 0.0039 0.3020 0.6706);fill-opacity:1;"/>
<path d="M29.3126 38.7772C29.7329 39.5052 29.993 40.3382 29.993 41.2395C29.993 43.6652 28.2418 45.6732 25.9405 46.095C25.6464 46.1562 25.3469 46.187 25.0465 46.1869C24.7462 46.1867 24.4467 46.1559 24.1527 46.095C21.8479 45.6723 20.1002 43.6644 20.1002 41.2395C20.1002 40.3449 20.357 39.5176 20.7739 38.7939C12.8556 39.4992 8.69965 41.9726 8.31934 42.9181C8.84635 44.1255 14.5666 47.1108 25.15 47.1108C35.8934 47.1108 41.6504 44.0289 42.0241 42.8548C41.7672 42.0483 37.5144 39.4685 29.3126 38.7772Z" fill="white" style="fill:white;fill-opacity:1;"/>
<path d="M38.6217 37.0411C38.1948 36.6025 37.7911 36.0154 37.4075 35.3082C37.0474 35.3351 36.6872 35.3634 36.3202 35.3634C28.3686 35.3634 21.901 28.896 21.901 20.9442C21.901 18.8512 22.358 16.8634 23.1652 15.0655C20.6403 15.5341 17.0814 17.0868 16.3742 22.105V22.1016C14.8499 32.8868 12.6853 36.1039 11.8248 36.9877C11.5411 37.2045 10.5506 38.2869 10.0269 38.8073C13.6558 37.3287 19.0226 36.3114 25.0197 36.2966C25.0298 36.2966 25.0364 36.294 25.0463 36.294C25.0532 36.294 25.0598 36.2957 25.0631 36.2957C25.0931 36.2957 25.1198 36.294 25.1498 36.294C31.2869 36.294 36.7838 37.3463 40.4362 38.8723C39.8991 38.3468 38.9785 37.4379 38.6217 37.0411Z" fill="#EAF3FF" style="fill:#EAF3FF;fill:color(display-p3 0.9161 0.9536 1.0000);fill-opacity:1;"/>
<path d="M48.1813 20.9442C48.1813 14.4033 42.8613 9.08337 36.3205 9.08337C29.783 9.08337 24.4629 14.4033 24.4629 20.9442C24.4629 27.4816 29.783 32.8018 36.3205 32.8018C42.8613 32.8018 48.1813 27.4816 48.1813 20.9442Z" fill="white" style="fill:white;fill-opacity:1;"/>
<path d="M37.6142 18.983C38.1446 19.4233 38.4915 20.077 38.4915 20.8207C38.4915 22.1417 37.4207 23.209 36.0999 23.209C35.3461 23.209 34.6857 22.8555 34.2455 22.3118H29.5591C28.8521 22.3118 28.2783 21.7381 28.2783 21.031C28.2783 20.3238 28.8521 19.7502 29.5591 19.7502H33.9719C34.2088 19.2865 34.5857 18.9096 35.0526 18.6794V11.4081C35.0526 10.7011 35.6264 10.1273 36.3334 10.1273C37.0406 10.1273 37.6142 10.7011 37.6142 11.4081V18.983Z" fill="#014DAB" style="fill:#014DAB;fill:color(display-p3 0.0039 0.3020 0.6706);fill-opacity:1;"/>
<path d="M25.0463 43.6235C26.3639 43.6235 27.4312 42.5536 27.4312 41.2395C27.4312 39.9254 26.3639 38.8555 25.0463 38.8555C23.7322 38.8555 22.6616 39.9255 22.6616 41.2395C22.6616 42.5536 23.7322 43.6235 25.0463 43.6235Z" fill="white" style="fill:white;fill-opacity:1;"/>
</svg>
