<svg width="56" height="56" viewBox="0 0 56 56" fill="none" xmlns="http://www.w3.org/2000/svg">
<g clip-path="url(#clip0_39_36091)">
<path d="M31.7261 56C30.6951 56 29.8594 55.1642 29.8594 54.1333V36.0375C29.8594 35.0065 30.6952 34.1708 31.7261 34.1708C32.7569 34.1708 33.5928 35.0066 33.5928 36.0375V54.1331C33.5928 55.1642 32.7569 56 31.7261 56Z" fill="#014DAB" style="fill:#014DAB;fill:color(display-p3 0.0039 0.3020 0.6706);fill-opacity:1;"/>
<path d="M42.3223 47.5935C39.0575 47.5935 36.4014 44.9373 36.4014 41.6725V26.9722C36.4014 25.9412 37.2372 25.1055 38.2681 25.1055C39.2989 25.1055 40.1348 25.9413 40.1348 26.9722V41.6726C40.1348 42.8788 41.1161 43.8601 42.3222 43.8601C43.5282 43.8601 44.5096 42.8787 44.5096 41.6726V34.8293C44.5096 33.7984 45.3455 32.9626 46.3763 32.9626H51.0526C52.0835 32.9626 52.9193 33.7985 52.9193 34.8293C52.9193 35.8602 52.0834 36.696 51.0526 36.696H48.243V41.6725C48.2433 44.9372 45.587 47.5935 42.3223 47.5935Z" fill="#014DAB" style="fill:#014DAB;fill:color(display-p3 0.0039 0.3020 0.6706);fill-opacity:1;"/>
<path d="M35.8511 23.8978L29.9703 7.56928C29.3108 5.73813 31.5716 4.23576 33.0019 5.57352L44.5723 16.3981C47.2839 18.9352 45.9925 23.4834 42.351 24.2156L37.9753 25.0953C37.0641 25.2783 36.1634 24.7651 35.8511 23.8978Z" fill="#014DAB" style="fill:#014DAB;fill:color(display-p3 0.0039 0.3020 0.6706);fill-opacity:1;"/>
<path d="M24.2739 56C23.243 56 22.4072 55.1642 22.4072 54.1333V36.0375C22.4072 35.0065 23.2431 34.1708 24.2739 34.1708C25.3048 34.1708 26.1406 35.0066 26.1406 36.0375V54.1331C26.1406 55.1642 25.305 56 24.2739 56Z" fill="#014DAB" style="fill:#014DAB;fill:color(display-p3 0.0039 0.3020 0.6706);fill-opacity:1;"/>
<path d="M13.6773 47.5935C10.4126 47.5935 7.75629 44.9373 7.75629 41.6725V36.6959H4.94678C3.91581 36.6959 3.08008 35.8601 3.08008 34.8292C3.08008 33.7984 3.91592 32.9625 4.94678 32.9625H9.62299C10.654 32.9625 11.4897 33.7984 11.4897 34.8292V41.6724C11.4897 42.8785 12.4711 43.8599 13.6772 43.8599C14.8833 43.8599 15.8646 42.8784 15.8646 41.6724V26.9722C15.8646 25.9412 16.7004 25.1055 17.7313 25.1055C18.7621 25.1055 19.598 25.9413 19.598 26.9722V41.6726C19.5982 44.9372 16.942 47.5935 13.6773 47.5935Z" fill="#014DAB" style="fill:#014DAB;fill:color(display-p3 0.0039 0.3020 0.6706);fill-opacity:1;"/>
<path d="M18.0251 25.0956L13.6495 24.2159C10.0092 23.4839 8.71591 18.9361 11.4283 16.3985L22.9985 5.57387C24.4193 4.24486 26.6938 5.72667 26.03 7.56963L20.1494 23.8979C19.8368 24.7656 18.9356 25.2782 18.0251 25.0956Z" fill="#D5E7FF" style="fill:#D5E7FF;fill:color(display-p3 0.8334 0.9048 1.0000);fill-opacity:1;"/>
<path d="M28.0001 38.5764C24.9106 38.5764 21.8212 37.4367 19.4137 35.1569C16.1128 32.0311 14.9926 27.1986 16.5601 22.8459L23.7005 3.01985C25.1514 -1.00831 30.85 -1.00492 32.2996 3.01985L39.44 22.8458C41.0077 27.1986 39.8876 32.031 36.5864 35.1569C34.1791 37.4367 31.0896 38.5764 28.0001 38.5764Z" fill="#EAF3FF" style="fill:#EAF3FF;fill:color(display-p3 0.9176 0.9529 1.0000);fill-opacity:1;"/>
<path d="M39.4401 22.8458L32.2996 3.01996C31.5747 1.00735 29.7874 0.00034082 28 0.00012207V38.5764C31.0894 38.5764 34.1789 37.4367 36.5864 35.1569C39.8874 32.0311 41.0075 27.1986 39.4401 22.8458Z" fill="#D5E7FF" style="fill:#D5E7FF;fill:color(display-p3 0.8334 0.9048 1.0000);fill-opacity:1;"/>
<path d="M22.8962 32.8012C24.2601 32.8012 25.3657 31.6956 25.3657 30.3317C25.3657 28.9679 24.2601 27.8622 22.8962 27.8622C21.5324 27.8622 20.4268 28.9679 20.4268 30.3317C20.4268 31.6956 21.5324 32.8012 22.8962 32.8012Z" fill="#5C6466" style="fill:#5C6466;fill:color(display-p3 0.3608 0.3922 0.4000);fill-opacity:1;"/>
<path d="M33.1042 32.8012C34.4681 32.8012 35.5737 31.6956 35.5737 30.3317C35.5737 28.9679 34.4681 27.8622 33.1042 27.8622C31.7404 27.8622 30.6348 28.9679 30.6348 30.3317C30.6348 31.6956 31.7404 32.8012 33.1042 32.8012Z" fill="#5C6466" style="fill:#5C6466;fill:color(display-p3 0.3608 0.3922 0.4000);fill-opacity:1;"/>
</g>
<defs>
<clipPath id="clip0_39_36091">
<rect width="56" height="56" fill="white" style="fill:white;fill-opacity:1;"/>
</clipPath>
</defs>
</svg>
