<svg width="24" height="24" viewBox="0 0 24 24" fill="none" xmlns="http://www.w3.org/2000/svg">
<mask id="mask0_784_10699" style="mask-type:alpha" maskUnits="userSpaceOnUse" x="0" y="0" width="24" height="24">
<rect width="24" height="24" fill="#D9D9D9" style="fill:#D9D9D9;fill:color(display-p3 0.8510 0.8510 0.8510);fill-opacity:1;"/>
</mask>
<g mask="url(#mask0_784_10699)">
<path d="M8.9998 13.0008C8.71647 13.0008 8.47897 12.9049 8.2873 12.7133C8.09564 12.5216 7.9998 12.2841 7.9998 12.0008V5.82578L6.1248 7.70078C5.94147 7.88411 5.7123 7.97578 5.4373 7.97578C5.1623 7.97578 4.9248 7.88411 4.7248 7.70078C4.5248 7.50078 4.4248 7.26328 4.4248 6.98828C4.4248 6.71328 4.5248 6.47578 4.7248 6.27578L8.2998 2.70078C8.3998 2.60078 8.50814 2.52995 8.6248 2.48828C8.74147 2.44661 8.86647 2.42578 8.9998 2.42578C9.13314 2.42578 9.25814 2.44661 9.3748 2.48828C9.49147 2.52995 9.5998 2.60078 9.6998 2.70078L13.2998 6.30078C13.4998 6.50078 13.5956 6.73411 13.5873 7.00078C13.579 7.26745 13.4748 7.50078 13.2748 7.70078C13.0748 7.88411 12.8415 7.97995 12.5748 7.98828C12.3081 7.99661 12.0748 7.90078 11.8748 7.70078L9.9998 5.82578V12.0008C9.9998 12.2841 9.90397 12.5216 9.7123 12.7133C9.52064 12.9049 9.28314 13.0008 8.9998 13.0008ZM14.9998 21.5758C14.8665 21.5758 14.7415 21.5549 14.6248 21.5133C14.5081 21.4716 14.3998 21.4008 14.2998 21.3008L10.6998 17.7008C10.4998 17.5008 10.404 17.2674 10.4123 17.0008C10.4206 16.7341 10.5248 16.5008 10.7248 16.3008C10.9248 16.1174 11.1581 16.0216 11.4248 16.0133C11.6915 16.0049 11.9248 16.1008 12.1248 16.3008L13.9998 18.1758V12.0008C13.9998 11.7174 14.0956 11.4799 14.2873 11.2883C14.479 11.0966 14.7165 11.0008 14.9998 11.0008C15.2831 11.0008 15.5206 11.0966 15.7123 11.2883C15.904 11.4799 15.9998 11.7174 15.9998 12.0008V18.1758L17.8748 16.3008C18.0581 16.1174 18.2873 16.0258 18.5623 16.0258C18.8373 16.0258 19.0748 16.1174 19.2748 16.3008C19.4748 16.5008 19.5748 16.7383 19.5748 17.0133C19.5748 17.2883 19.4748 17.5258 19.2748 17.7258L15.6998 21.3008C15.5998 21.4008 15.4915 21.4716 15.3748 21.5133C15.2581 21.5549 15.1331 21.5758 14.9998 21.5758Z" fill="#8C8C8C" style="fill:#8C8C8C;fill:color(display-p3 0.5474 0.5474 0.5474);fill-opacity:1;"/>
</g>
</svg>
