<svg width="512" height="512" viewBox="0 0 512 512" fill="none" xmlns="http://www.w3.org/2000/svg">
<g clip-path="url(#clip0_237_17260)">
<rect width="512" height="512" fill="#F7F6FD" style="fill:#F7F6FD;fill:color(display-p3 0.9686 0.9647 0.9922);fill-opacity:1;"/>
<rect width="512" height="512" fill="url(#paint0_linear_237_17260)" style=""/>
<path opacity="0.1" d="M124.765 306.19C131.946 301.097 140.976 298.067 150.782 298.067C174.209 298.067 193.197 315.349 193.197 336.67C193.197 357.99 174.209 375.272 150.782 375.272C140.976 375.272 131.946 372.242 124.765 367.15V388.02H124.782V401.815H202.756C198.959 403.781 195.557 406.462 192.712 409.684C187.029 416.117 183.559 424.713 183.559 434.159C183.559 454.089 199.015 470.244 218.088 470.244C237.16 470.244 252.617 454.089 252.617 434.159C252.617 424.713 249.147 416.117 243.458 409.684C240.613 406.462 237.217 403.781 233.415 401.815H310.408C326.332 346.156 312.887 291.217 269.52 260.304C197.579 209.015 139.804 268.894 124.765 287.043V306.19Z" fill="white" style="fill:white;fill-opacity:1;"/>
<path opacity="0.1" d="M-0.975402 401.816C-6.0674 394.634 -9.09781 385.604 -9.09781 375.797C-9.09781 352.37 8.18343 333.381 29.5033 333.381C50.8233 333.381 68.1045 352.37 68.1045 375.797C68.1045 385.604 65.0741 394.634 59.9821 401.816H116.895V352.004C118.861 355.8 121.542 359.202 124.764 362.047C131.197 367.731 139.792 371.201 149.238 371.201C169.167 371.201 185.322 355.744 185.322 336.671C185.322 317.597 169.167 302.141 149.238 302.141C139.792 302.141 131.197 305.61 124.764 311.3C121.542 314.144 118.861 317.541 116.895 321.343V286.785C101.529 268.332 43.957 209.259 -27.6408 260.305C-71.0072 291.218 -84.4582 346.151 -68.5401 401.816H-0.975402Z" fill="white" style="fill:white;fill-opacity:1;"/>
<path opacity="0.1" d="M116.911 517.42C109.729 522.512 100.7 525.543 90.8936 525.543C67.467 525.543 48.4791 508.261 48.4791 486.94C48.4791 465.619 67.467 448.338 90.8936 448.338C100.7 448.338 109.729 451.368 116.911 456.46V444.851H116.894V409.679H44.8347C48.6312 407.713 52.0334 405.031 54.8779 401.809C60.5613 395.376 64.0311 386.781 64.0311 377.334C64.0311 357.405 48.5748 341.249 29.5024 341.249C10.4299 341.249 -5.02629 357.405 -5.02629 377.334C-5.02629 386.781 -1.55653 395.376 4.13254 401.809C6.97707 405.031 10.3736 407.713 14.1757 409.679H-66.0908C-49.4911 459.13 -9.74654 508.284 52.7712 540.831C77.3638 553.635 98.6105 566.557 116.911 579.146V517.415V517.42Z" fill="white" style="fill:white;fill-opacity:1;"/>
<path opacity="0.1" d="M248.566 409.684C253.658 416.866 256.688 425.896 256.688 435.703C256.688 459.13 239.407 478.119 218.087 478.119C196.767 478.119 179.486 459.13 179.486 435.703C179.486 425.896 182.517 416.866 187.609 409.684H163.821H124.781V471.607C122.815 467.811 120.134 464.408 116.912 461.564C110.479 455.88 101.884 452.41 92.4378 452.41C72.5092 452.41 56.3545 467.867 56.3545 486.94C56.3545 506.013 72.5092 521.47 92.4378 521.47C101.884 521.47 110.479 518 116.912 512.311C120.134 509.466 122.815 506.07 124.781 502.267V579.276C143.127 566.647 164.43 553.68 189.107 540.836C198.53 535.93 207.43 530.652 215.817 525.047C221.799 521.053 227.511 516.896 232.963 512.587C234.602 511.303 236.219 509.996 237.813 508.672C245.164 502.583 252.008 496.229 258.333 489.661C260.569 487.346 262.732 485.008 264.833 482.648C272.961 473.517 280.143 464.031 286.373 454.331C295.712 439.781 302.911 424.747 307.969 409.684H248.566Z" fill="white" style="fill:white;fill-opacity:1;"/>
<g clip-path="url(#clip1_237_17260)">
<path d="M258.091 156.147C262.013 153.367 266.944 151.712 272.299 151.712C285.092 151.712 295.461 161.149 295.461 172.792C295.461 184.435 285.092 193.873 272.299 193.873C266.944 193.873 262.013 192.218 258.091 189.437V200.834H258.1V208.368H300.681C298.608 209.441 296.75 210.905 295.197 212.665C292.093 216.178 290.198 220.872 290.198 226.031C290.198 236.914 298.639 245.736 309.054 245.736C319.469 245.736 327.91 236.914 327.91 226.031C327.91 220.872 326.015 216.178 322.908 212.665C321.355 210.905 319.5 209.441 317.424 208.368H359.469C368.165 177.972 360.823 147.971 337.141 131.089C297.854 103.081 266.304 135.78 258.091 145.692V156.147Z" fill="url(#paint1_linear_237_17260)" style=""/>
<path d="M189.425 208.368C186.645 204.446 184.99 199.515 184.99 194.159C184.99 181.366 194.427 170.996 206.069 170.996C217.712 170.996 227.149 181.366 227.149 194.159C227.149 199.515 225.494 204.446 222.714 208.368H253.793V181.166C254.867 183.239 256.331 185.097 258.091 186.651C261.603 189.754 266.297 191.649 271.456 191.649C282.339 191.649 291.161 183.208 291.161 172.793C291.161 162.377 282.339 153.936 271.456 153.936C266.297 153.936 261.603 155.831 258.091 158.938C256.331 160.491 254.867 162.346 253.793 164.423V145.551C245.402 135.473 213.962 103.214 174.863 131.09C151.181 147.972 143.836 177.97 152.529 208.368H189.425Z" fill="url(#paint2_linear_237_17260)" style=""/>
<path d="M253.802 271.499C249.88 274.28 244.949 275.935 239.594 275.935C226.801 275.935 216.432 266.497 216.432 254.854C216.432 243.211 226.801 233.773 239.594 233.773C244.949 233.773 249.88 235.428 253.802 238.209V231.869H253.793V212.662H214.442C216.515 211.588 218.373 210.124 219.926 208.365C223.03 204.852 224.925 200.157 224.925 194.999C224.925 184.116 216.484 175.293 206.069 175.293C195.654 175.293 187.213 184.116 187.213 194.999C187.213 200.157 189.108 204.852 192.215 208.365C193.768 210.124 195.623 211.588 197.699 212.662H153.866C162.931 239.667 184.635 266.509 218.776 284.283C232.206 291.275 243.808 298.332 253.802 305.207V271.496V271.499Z" fill="url(#paint3_linear_237_17260)" style=""/>
<path d="M325.698 212.665C328.478 216.587 330.133 221.518 330.133 226.873C330.133 239.667 320.696 250.037 309.053 250.037C297.411 250.037 287.974 239.667 287.974 226.873C287.974 221.518 289.629 216.587 292.409 212.665H279.419H258.1V246.481C257.026 244.407 255.562 242.549 253.802 240.996C250.29 237.892 245.596 235.997 240.437 235.997C229.554 235.997 220.732 244.438 220.732 254.854C220.732 265.269 229.554 273.71 240.437 273.71C245.596 273.71 250.29 271.815 253.802 268.709C255.562 267.155 257.026 265.3 258.1 263.224V305.277C268.118 298.381 279.752 291.3 293.227 284.286C298.374 281.607 303.234 278.724 307.814 275.664C311.081 273.483 314.2 271.213 317.177 268.859C318.072 268.158 318.955 267.444 319.826 266.721C323.84 263.396 327.577 259.926 331.031 256.34C332.253 255.075 333.434 253.799 334.581 252.51C339.02 247.523 342.942 242.343 346.344 237.046C351.444 229.1 355.375 220.89 358.137 212.665H325.698Z" fill="url(#paint4_linear_237_17260)" style=""/>
<path d="M317.177 268.856C316.931 271.465 316.375 275.793 315.224 278.399C315.224 278.399 309.131 282.204 307.125 282.601C307.125 282.601 307.568 278.845 307.814 275.661C311.081 273.48 314.2 271.21 317.177 268.856Z" fill="#E3594A" style="fill:#E3594A;fill:color(display-p3 0.8902 0.3490 0.2902);fill-opacity:1;"/>
<path d="M331.031 256.337C330.72 259.182 330.013 265.119 329.204 268.352C329.204 268.352 321.095 275.07 318.312 276.704C318.312 276.704 319.431 270.804 319.825 266.719C323.839 263.393 327.576 259.923 331.031 256.337Z" fill="#E3594A" style="fill:#E3594A;fill:color(display-p3 0.8902 0.3490 0.2902);fill-opacity:1;"/>
<path d="M333.2 263.815C333.2 263.815 334.332 256.45 334.581 252.507C339.02 247.52 342.942 242.34 346.344 237.043C346.436 242.303 345.049 253.611 333.2 263.815Z" fill="#E3594A" style="fill:#E3594A;fill:color(display-p3 0.8902 0.3490 0.2902);fill-opacity:1;"/>
<path d="M353.003 235.714C351.64 239.366 350.838 248.065 340.284 261.48C329.733 274.892 314.685 282.071 308.297 284.628C301.908 287.184 288.136 288.531 288.419 284.203C288.702 279.872 304.535 273.837 308.509 265.676C312.483 257.512 307.752 252.258 307.752 252.258C307.752 252.258 301.895 258.216 291.446 264.759C280.997 271.302 264.885 278.235 258.099 297.083C257.155 299.707 256.475 302.343 256.002 304.939C255.528 302.343 254.848 299.707 253.904 297.083C247.118 278.235 231.006 271.302 220.557 264.759C210.108 258.216 204.251 252.258 204.251 252.258C204.251 252.258 199.52 257.512 203.494 265.676C207.469 273.837 223.301 279.872 223.584 284.203C223.867 288.531 210.095 287.184 203.707 284.628C197.318 282.071 182.27 274.892 171.719 261.48C161.166 248.065 160.363 239.366 159 235.714C157.637 232.06 155.872 227.387 152.839 231.069C152.839 231.069 154.546 264.627 174.7 284.145C194.854 303.666 214.5 310.384 227.303 322.172C232.898 327.324 235.869 331.055 237.441 333.627L253.904 335.476C253.904 335.476 255.116 331.984 256.002 326.534C256.887 331.988 258.099 335.476 258.099 335.476L274.562 333.627C276.134 331.055 279.105 327.324 284.701 322.172C297.503 310.384 317.149 303.666 337.303 284.145C357.457 264.627 359.164 231.069 359.164 231.069C356.131 227.387 354.366 232.06 353.003 235.714Z" fill="url(#paint5_radial_237_17260)" style=""/>
<path d="M194.826 268.856C195.072 271.465 195.629 275.793 196.779 278.399C196.779 278.399 202.873 282.204 204.879 282.601C204.879 282.601 204.436 278.845 204.189 275.661C200.923 273.48 197.804 271.21 194.826 268.856Z" fill="#E3594A" style="fill:#E3594A;fill:color(display-p3 0.8902 0.3490 0.2902);fill-opacity:1;"/>
<path d="M180.972 256.337C181.282 259.182 181.99 265.119 182.799 268.352C182.799 268.352 190.907 275.07 193.691 276.704C193.691 276.704 192.571 270.804 192.178 266.719C188.163 263.393 184.426 259.923 180.972 256.337Z" fill="#E3594A" style="fill:#E3594A;fill:color(display-p3 0.8902 0.3490 0.2902);fill-opacity:1;"/>
<path d="M178.803 263.815C178.803 263.815 177.671 256.45 177.422 252.507C172.983 247.52 169.061 242.34 165.659 237.043C165.567 242.303 166.954 253.611 178.803 263.815Z" fill="#E3594A" style="fill:#E3594A;fill:color(display-p3 0.8902 0.3490 0.2902);fill-opacity:1;"/>
</g>
<path d="M397.788 366.374L388.676 383.997V392.696H382.265V383.997L373.153 366.374H380.427L385.527 377.398L390.589 366.374H397.788Z" fill="white" style="fill:white;fill-opacity:1;"/>
<path d="M397.788 366.374L388.676 383.997V392.696H382.265V383.997L373.153 366.374H380.427L385.527 377.398L390.589 366.374H397.788Z" fill="white" style="fill:white;fill-opacity:1;"/>
<path d="M371.999 366.374V371.511H365.025V392.696H358.613V371.511H351.639V366.374H371.999Z" fill="white" style="fill:white;fill-opacity:1;"/>
<path d="M371.999 366.374V371.511H365.025V392.696H358.613V371.511H351.639V366.374H371.999Z" fill="white" style="fill:white;fill-opacity:1;"/>
<path d="M348.416 366.374V392.696H342.004V366.374H348.416Z" fill="white" style="fill:white;fill-opacity:1;"/>
<path d="M348.416 366.374V392.696H342.004V366.374H348.416Z" fill="white" style="fill:white;fill-opacity:1;"/>
<path d="M330.968 392.696L325.494 382.76H323.957V392.696H317.545V366.374H328.306C330.381 366.374 332.143 366.736 333.593 367.461C335.068 368.186 336.168 369.186 336.893 370.461C337.617 371.711 337.98 373.111 337.98 374.661C337.98 376.41 337.48 377.973 336.48 379.347C335.505 380.722 334.055 381.697 332.131 382.272L338.205 392.696H330.968ZM323.957 378.223H327.931C329.106 378.223 329.981 377.935 330.556 377.36C331.156 376.785 331.456 375.973 331.456 374.923C331.456 373.923 331.156 373.136 330.556 372.561C329.981 371.986 329.106 371.698 327.931 371.698H323.957V378.223Z" fill="white" style="fill:white;fill-opacity:1;"/>
<path d="M330.968 392.696L325.494 382.76H323.957V392.696H317.545V366.374H328.306C330.381 366.374 332.143 366.736 333.593 367.461C335.068 368.186 336.168 369.186 336.893 370.461C337.617 371.711 337.98 373.111 337.98 374.661C337.98 376.41 337.48 377.973 336.48 379.347C335.505 380.722 334.055 381.697 332.131 382.272L338.205 392.696H330.968ZM323.957 378.223H327.931C329.106 378.223 329.981 377.935 330.556 377.36C331.156 376.785 331.456 375.973 331.456 374.923C331.456 373.923 331.156 373.136 330.556 372.561C329.981 371.986 329.106 371.698 327.931 371.698H323.957V378.223Z" fill="white" style="fill:white;fill-opacity:1;"/>
<path d="M306.284 388.046H296.46L294.886 392.696H288.174L297.698 366.374H305.122L314.646 392.696H307.859L306.284 388.046ZM304.634 383.097L301.372 373.461L298.148 383.097H304.634Z" fill="white" style="fill:white;fill-opacity:1;"/>
<path d="M306.284 388.046H296.46L294.886 392.696H288.174L297.698 366.374H305.122L314.646 392.696H307.859L306.284 388.046ZM304.634 383.097L301.372 373.461L298.148 383.097H304.634Z" fill="white" style="fill:white;fill-opacity:1;"/>
<path d="M285.271 366.374V392.696H278.859V381.86H268.885V392.696H262.474V366.374H268.885V376.685H278.859V366.374H285.271Z" fill="white" style="fill:white;fill-opacity:1;"/>
<path d="M285.271 366.374V392.696H278.859V381.86H268.885V392.696H262.474V366.374H268.885V376.685H278.859V366.374H285.271Z" fill="white" style="fill:white;fill-opacity:1;"/>
<path d="M232.826 379.498C232.826 376.898 233.389 374.586 234.513 372.561C235.638 370.512 237.201 368.924 239.2 367.799C241.225 366.65 243.512 366.075 246.062 366.075C249.187 366.075 251.861 366.9 254.086 368.549C256.311 370.199 257.798 372.449 258.548 375.299H251.499C250.974 374.199 250.224 373.361 249.249 372.786C248.299 372.211 247.212 371.924 245.987 371.924C244.012 371.924 242.413 372.611 241.188 373.986C239.963 375.361 239.35 377.198 239.35 379.498C239.35 381.798 239.963 383.635 241.188 385.01C242.413 386.385 244.012 387.072 245.987 387.072C247.212 387.072 248.299 386.785 249.249 386.21C250.224 385.635 250.974 384.797 251.499 383.698H258.548C257.798 386.547 256.311 388.797 254.086 390.447C251.861 392.072 249.187 392.884 246.062 392.884C243.512 392.884 241.225 392.322 239.2 391.197C237.201 390.047 235.638 388.46 234.513 386.435C233.389 384.41 232.826 382.098 232.826 379.498Z" fill="white" style="fill:white;fill-opacity:1;"/>
<path d="M232.826 379.498C232.826 376.898 233.389 374.586 234.513 372.561C235.638 370.512 237.201 368.924 239.2 367.799C241.225 366.65 243.512 366.075 246.062 366.075C249.187 366.075 251.861 366.9 254.086 368.549C256.311 370.199 257.798 372.449 258.548 375.299H251.499C250.974 374.199 250.224 373.361 249.249 372.786C248.299 372.211 247.212 371.924 245.987 371.924C244.012 371.924 242.413 372.611 241.188 373.986C239.963 375.361 239.35 377.198 239.35 379.498C239.35 381.798 239.963 383.635 241.188 385.01C242.413 386.385 244.012 387.072 245.987 387.072C247.212 387.072 248.299 386.785 249.249 386.21C250.224 385.635 250.974 384.797 251.499 383.698H258.548C257.798 386.547 256.311 388.797 254.086 390.447C251.861 392.072 249.187 392.884 246.062 392.884C243.512 392.884 241.225 392.322 239.2 391.197C237.201 390.047 235.638 388.46 234.513 386.435C233.389 384.41 232.826 382.098 232.826 379.498Z" fill="white" style="fill:white;fill-opacity:1;"/>
<path d="M212.092 371.511V376.835H220.679V381.785H212.092V387.559H221.804V392.696H205.681V366.374H221.804V371.511H212.092Z" fill="white" style="fill:white;fill-opacity:1;"/>
<path d="M212.092 371.511V376.835H220.679V381.785H212.092V387.559H221.804V392.696H205.681V366.374H221.804V371.511H212.092Z" fill="white" style="fill:white;fill-opacity:1;"/>
<path d="M202.466 366.374L195.605 392.696H187.843L183.644 375.373L179.294 392.696H171.533L164.858 366.374H171.72L175.507 385.534L180.194 366.374H187.243L191.743 385.534L195.567 366.374H202.466Z" fill="white" style="fill:white;fill-opacity:1;"/>
<path d="M202.466 366.374L195.605 392.696H187.843L183.644 375.373L179.294 392.696H171.533L164.858 366.374H171.72L175.507 385.534L180.194 366.374H187.243L191.743 385.534L195.567 366.374H202.466Z" fill="white" style="fill:white;fill-opacity:1;"/>
<path d="M161.616 366.374V392.696H155.204V381.86H145.23V392.696H138.818V366.374H145.23V376.685H155.204V366.374H161.616Z" fill="white" style="fill:white;fill-opacity:1;"/>
<path d="M161.616 366.374V392.696H155.204V381.86H145.23V392.696H138.818V366.374H145.23V376.685H155.204V366.374H161.616Z" fill="white" style="fill:white;fill-opacity:1;"/>
<path d="M125.274 392.959C123.349 392.959 121.624 392.647 120.099 392.022C118.575 391.397 117.35 390.472 116.425 389.247C115.525 388.022 115.05 386.548 115 384.823H121.824C121.924 385.798 122.262 386.548 122.837 387.072C123.411 387.572 124.161 387.822 125.086 387.822C126.036 387.822 126.786 387.61 127.336 387.185C127.886 386.735 128.161 386.123 128.161 385.348C128.161 384.698 127.936 384.16 127.486 383.735C127.061 383.31 126.524 382.96 125.874 382.685C125.249 382.411 124.349 382.098 123.174 381.748C121.474 381.223 120.087 380.698 119.012 380.173C117.937 379.648 117.012 378.873 116.237 377.849C115.462 376.824 115.075 375.486 115.075 373.837C115.075 371.387 115.962 369.475 117.737 368.1C119.512 366.7 121.824 366 124.674 366C127.573 366 129.911 366.7 131.685 368.1C133.46 369.475 134.41 371.399 134.535 373.874H127.598C127.548 373.024 127.236 372.362 126.661 371.887C126.086 371.387 125.349 371.137 124.449 371.137C123.674 371.137 123.049 371.349 122.574 371.774C122.099 372.174 121.862 372.762 121.862 373.537C121.862 374.386 122.262 375.049 123.062 375.524C123.861 375.999 125.111 376.511 126.811 377.061C128.511 377.636 129.886 378.186 130.936 378.711C132.01 379.236 132.935 379.998 133.71 380.998C134.485 381.998 134.873 383.285 134.873 384.86C134.873 386.36 134.485 387.722 133.71 388.947C132.96 390.172 131.86 391.147 130.411 391.872C128.961 392.597 127.249 392.959 125.274 392.959Z" fill="white" style="fill:white;fill-opacity:1;"/>
<path d="M125.274 392.959C123.349 392.959 121.624 392.647 120.099 392.022C118.575 391.397 117.35 390.472 116.425 389.247C115.525 388.022 115.05 386.548 115 384.823H121.824C121.924 385.798 122.262 386.548 122.837 387.072C123.411 387.572 124.161 387.822 125.086 387.822C126.036 387.822 126.786 387.61 127.336 387.185C127.886 386.735 128.161 386.123 128.161 385.348C128.161 384.698 127.936 384.16 127.486 383.735C127.061 383.31 126.524 382.96 125.874 382.685C125.249 382.411 124.349 382.098 123.174 381.748C121.474 381.223 120.087 380.698 119.012 380.173C117.937 379.648 117.012 378.873 116.237 377.849C115.462 376.824 115.075 375.486 115.075 373.837C115.075 371.387 115.962 369.475 117.737 368.1C119.512 366.7 121.824 366 124.674 366C127.573 366 129.911 366.7 131.685 368.1C133.46 369.475 134.41 371.399 134.535 373.874H127.598C127.548 373.024 127.236 372.362 126.661 371.887C126.086 371.387 125.349 371.137 124.449 371.137C123.674 371.137 123.049 371.349 122.574 371.774C122.099 372.174 121.862 372.762 121.862 373.537C121.862 374.386 122.262 375.049 123.062 375.524C123.861 375.999 125.111 376.511 126.811 377.061C128.511 377.636 129.886 378.186 130.936 378.711C132.01 379.236 132.935 379.998 133.71 380.998C134.485 381.998 134.873 383.285 134.873 384.86C134.873 386.36 134.485 387.722 133.71 388.947C132.96 390.172 131.86 391.147 130.411 391.872C128.961 392.597 127.249 392.959 125.274 392.959Z" fill="white" style="fill:white;fill-opacity:1;"/>
</g>
<defs>
<linearGradient id="paint0_linear_237_17260" x1="0" y1="256" x2="512" y2="256" gradientUnits="userSpaceOnUse">
<stop stop-color="#170481" style="stop-color:#170481;stop-color:color(display-p3 0.0902 0.0157 0.5059);stop-opacity:1;"/>
<stop offset="1" stop-color="#290EBF" style="stop-color:#290EBF;stop-color:color(display-p3 0.1596 0.0540 0.7489);stop-opacity:1;"/>
</linearGradient>
<linearGradient id="paint1_linear_237_17260" x1="309.627" y1="245.7" x2="310.121" y2="120.033" gradientUnits="userSpaceOnUse">
<stop stop-color="#FBE960" style="stop-color:#FBE960;stop-color:color(display-p3 0.9843 0.9137 0.3765);stop-opacity:1;"/>
<stop offset="1" stop-color="#D4B93E" style="stop-color:#D4B93E;stop-color:color(display-p3 0.8314 0.7255 0.2431);stop-opacity:1;"/>
</linearGradient>
<linearGradient id="paint2_linear_237_17260" x1="291.111" y1="164.723" x2="149.05" y2="163.647" gradientUnits="userSpaceOnUse">
<stop stop-color="#FBE960" style="stop-color:#FBE960;stop-color:color(display-p3 0.9843 0.9137 0.3765);stop-opacity:1;"/>
<stop offset="1" stop-color="#D4B93E" style="stop-color:#D4B93E;stop-color:color(display-p3 0.8314 0.7255 0.2431);stop-opacity:1;"/>
</linearGradient>
<linearGradient id="paint3_linear_237_17260" x1="204.863" y1="175.328" x2="204.392" y2="305.178" gradientUnits="userSpaceOnUse">
<stop stop-color="#FBE960" style="stop-color:#FBE960;stop-color:color(display-p3 0.9843 0.9137 0.3765);stop-opacity:1;"/>
<stop offset="1" stop-color="#D4B93E" style="stop-color:#D4B93E;stop-color:color(display-p3 0.8314 0.7255 0.2431);stop-opacity:1;"/>
</linearGradient>
<linearGradient id="paint4_linear_237_17260" x1="220.78" y1="258.407" x2="358.091" y2="259.366" gradientUnits="userSpaceOnUse">
<stop stop-color="#FBE960" style="stop-color:#FBE960;stop-color:color(display-p3 0.9843 0.9137 0.3765);stop-opacity:1;"/>
<stop offset="1" stop-color="#D4B93E" style="stop-color:#D4B93E;stop-color:color(display-p3 0.8314 0.7255 0.2431);stop-opacity:1;"/>
</linearGradient>
<radialGradient id="paint5_radial_237_17260" cx="0" cy="0" r="1" gradientUnits="userSpaceOnUse" gradientTransform="translate(256.002 282.604) scale(108.075 108.079)">
<stop stop-color="#F44538" style="stop-color:#F44538;stop-color:color(display-p3 0.9569 0.2706 0.2196);stop-opacity:1;"/>
<stop offset="1" stop-color="#EA726A" style="stop-color:#EA726A;stop-color:color(display-p3 0.9176 0.4471 0.4157);stop-opacity:1;"/>
</radialGradient>
<clipPath id="clip0_237_17260">
<rect width="512" height="512" fill="white" style="fill:white;fill-opacity:1;"/>
</clipPath>
<clipPath id="clip1_237_17260">
<rect width="214" height="215.476" fill="white" style="fill:white;fill-opacity:1;" transform="translate(149 120)"/>
</clipPath>
</defs>
</svg>
