<svg width="56" height="56" viewBox="0 0 56 56" fill="none" xmlns="http://www.w3.org/2000/svg">
<rect width="56" height="56" rx="28" fill="#D95428" style="fill:#D95428;fill:color(display-p3 0.8510 0.3294 0.1569);fill-opacity:1;"/>
<mask id="mask0_821_5139" style="mask-type:alpha" maskUnits="userSpaceOnUse" x="12" y="12" width="32" height="32">
<rect x="12" y="12" width="32" height="32" fill="#D9D9D9" style="fill:#D9D9D9;fill:color(display-p3 0.8510 0.8510 0.8510);fill-opacity:1;"/>
</mask>
<g mask="url(#mask0_821_5139)">
<path d="M16 39.3334C15.6222 39.3334 15.3055 39.2057 15.05 38.9501C14.7944 38.6946 14.6666 38.3779 14.6666 38.0001V30.0001C14.6666 29.6223 14.7944 29.3057 15.05 29.0501C15.3055 28.7946 15.6222 28.6668 16 28.6668H24C24.3777 28.6668 24.6944 28.7946 24.95 29.0501C25.2055 29.3057 25.3333 29.6223 25.3333 30.0001V38.0001C25.3333 38.3779 25.2055 38.6946 24.95 38.9501C24.6944 39.2057 24.3777 39.3334 24 39.3334H16ZM31.6333 25.3334H21.7C21.1888 25.3334 20.8055 25.1057 20.55 24.6501C20.2944 24.1946 20.3 23.7446 20.5666 23.3001L25.5333 15.2001C25.8 14.7557 26.1777 14.5334 26.6666 14.5334C27.1555 14.5334 27.5333 14.7557 27.8 15.2001L32.7666 23.3001C33.0333 23.7446 33.0389 24.1946 32.7833 24.6501C32.5277 25.1057 32.1444 25.3334 31.6333 25.3334ZM39.8333 41.6668L37.2333 39.0668C36.7666 39.3779 36.2611 39.6112 35.7166 39.7668C35.1722 39.9223 34.6 40.0001 34 40.0001C32.3333 40.0001 30.9166 39.4168 29.75 38.2501C28.5833 37.0834 28 35.6668 28 34.0001C28 32.3334 28.5833 30.9168 29.75 29.7501C30.9166 28.5834 32.3333 28.0001 34 28.0001C35.6666 28.0001 37.0833 28.5834 38.25 29.7501C39.4166 30.9168 40 32.3334 40 34.0001C40 34.5779 39.9222 35.139 39.7666 35.6834C39.6111 36.2279 39.3888 36.7334 39.1 37.2001L41.7 39.8001C41.9444 40.0446 42.0666 40.3557 42.0666 40.7334C42.0666 41.1112 41.9444 41.4223 41.7 41.6668C41.4555 41.9112 41.1444 42.0334 40.7666 42.0334C40.3889 42.0334 40.0777 41.9112 39.8333 41.6668ZM34 37.3334C34.9333 37.3334 35.7222 37.0112 36.3666 36.3668C37.0111 35.7223 37.3333 34.9334 37.3333 34.0001C37.3333 33.0668 37.0111 32.2779 36.3666 31.6334C35.7222 30.989 34.9333 30.6668 34 30.6668C33.0666 30.6668 32.2777 30.989 31.6333 31.6334C30.9889 32.2779 30.6666 33.0668 30.6666 34.0001C30.6666 34.9334 30.9889 35.7223 31.6333 36.3668C32.2777 37.0112 33.0666 37.3334 34 37.3334Z" fill="white" style="fill:white;fill-opacity:1;"/>
</g>
</svg>
