<svg width="56" height="56" viewBox="0 0 56 56" fill="none" xmlns="http://www.w3.org/2000/svg">
<rect width="56" height="56" rx="28" fill="#2373E6" style="fill:#2373E6;fill:color(display-p3 0.1373 0.4510 0.9020);fill-opacity:1;"/>
<mask id="mask0_149_6017" style="mask-type:alpha" maskUnits="userSpaceOnUse" x="12" y="12" width="32" height="32">
<rect x="12" y="12" width="32" height="32" fill="#D9D9D9" style="fill:#D9D9D9;fill:color(display-p3 0.8510 0.8510 0.8510);fill-opacity:1;"/>
</mask>
<g mask="url(#mask0_149_6017)">
<path d="M16 39.3333C15.6222 39.3333 15.3055 39.2055 15.05 38.95C14.7944 38.6944 14.6666 38.3778 14.6666 38V30C14.6666 29.6222 14.7944 29.3055 15.05 29.05C15.3055 28.7944 15.6222 28.6667 16 28.6667H24C24.3777 28.6667 24.6944 28.7944 24.95 29.05C25.2055 29.3055 25.3333 29.6222 25.3333 30V38C25.3333 38.3778 25.2055 38.6944 24.95 38.95C24.6944 39.2055 24.3777 39.3333 24 39.3333H16ZM31.6333 25.3333H21.7C21.1888 25.3333 20.8055 25.1055 20.55 24.65C20.2944 24.1944 20.3 23.7444 20.5666 23.3L25.5333 15.2C25.8 14.7555 26.1777 14.5333 26.6666 14.5333C27.1555 14.5333 27.5333 14.7555 27.8 15.2L32.7666 23.3C33.0333 23.7444 33.0389 24.1944 32.7833 24.65C32.5277 25.1055 32.1444 25.3333 31.6333 25.3333ZM39.8333 41.6667L37.2333 39.0667C36.7666 39.3778 36.2611 39.6111 35.7166 39.7667C35.1722 39.9222 34.6 40 34 40C32.3333 40 30.9166 39.4167 29.75 38.25C28.5833 37.0833 28 35.6667 28 34C28 32.3333 28.5833 30.9167 29.75 29.75C30.9166 28.5833 32.3333 28 34 28C35.6666 28 37.0833 28.5833 38.25 29.75C39.4166 30.9167 40 32.3333 40 34C40 34.5778 39.9222 35.1389 39.7666 35.6833C39.6111 36.2278 39.3888 36.7333 39.1 37.2L41.7 39.8C41.9444 40.0444 42.0666 40.3555 42.0666 40.7333C42.0666 41.1111 41.9444 41.4222 41.7 41.6667C41.4555 41.9111 41.1444 42.0333 40.7666 42.0333C40.3889 42.0333 40.0777 41.9111 39.8333 41.6667ZM34 37.3333C34.9333 37.3333 35.7222 37.0111 36.3666 36.3667C37.0111 35.7222 37.3333 34.9333 37.3333 34C37.3333 33.0667 37.0111 32.2778 36.3666 31.6333C35.7222 30.9889 34.9333 30.6667 34 30.6667C33.0666 30.6667 32.2777 30.9889 31.6333 31.6333C30.9889 32.2778 30.6666 33.0667 30.6666 34C30.6666 34.9333 30.9889 35.7222 31.6333 36.3667C32.2777 37.0111 33.0666 37.3333 34 37.3333Z" fill="white" style="fill:white;fill-opacity:1;"/>
</g>
</svg>
