<svg width="1000" height="1000" viewBox="0 0 1000 1000" fill="none" xmlns="http://www.w3.org/2000/svg">
<g clip-path="url(#clip0_1_23)">
<path d="M1000 499C1000 775.677 776.125 1000 500 1000C223.875 1000 0 775.677 0 499C0 222.323 223.875 -2 500 -2C776.125 -2 1000 222.323 1000 499Z" fill="url(#paint0_linear_1_23)"/>
<path opacity="0.05" d="M152.635 485.487C356.649 393.223 596.262 293.12 633.162 278.637C714.517 246.701 749.991 279.336 744.438 331.398C737.608 395.196 705.236 580.847 685.322 713.861C673.664 791.692 631.436 815.538 583.778 785.349C547.629 762.452 423.344 681.225 390.647 653.459C368.357 634.532 352.821 613.307 368.632 591.684C373.26 585.366 385.093 572.632 391.673 566.289C424.67 534.378 420.217 527.511 380.315 556.002C375.562 559.398 347.993 579.349 336.66 586.889C308.891 605.367 283.349 606.366 240.044 591.684C204.62 579.673 170.597 570.409 149.133 561.146C119.487 548.336 108.13 505.613 152.635 485.487Z" fill="black"/>
<path opacity="0.07" d="M170.66 488.492C359.916 403.711 592.662 306.558 626.704 292.808C708.285 259.798 738.303 279.383 729.53 343.175C721.382 402.234 692.464 584.969 672.193 707.468C660.246 779.575 625.354 795.454 579.915 766C551.446 747.617 436.873 671.978 409.08 649.963C387.585 632.957 365.315 613.321 391.334 584.894C400.032 575.401 448.071 528.941 483.987 494.378C504.807 474.316 497.384 464.423 472.265 481.654C426.201 513.287 350.843 563.354 337.396 572.446C311.777 589.727 287.708 593.885 245.818 580.686C212.8 570.267 180.908 560.173 164.287 553.686C127.145 539.26 126.645 508.203 170.66 488.492Z" fill="black"/>
<path d="M188.272 492.33C363.058 415.412 589.231 321.634 620.462 308.652C702.354 274.683 727.485 281.187 714.957 356.429C705.955 410.509 680 589.534 659.295 700.972C647.018 767.059 619.462 774.888 576.153 746.297C555.324 732.539 450.177 662.975 427.347 646.641C406.517 631.758 377.786 613.848 413.819 578.578C426.647 566.021 510.689 485.726 576.178 423.241C584.755 415.037 573.978 401.554 564.075 408.133C475.807 466.691 353.431 547.961 337.853 558.542C314.323 574.526 291.718 581.855 251.16 570.199C220.503 561.394 190.572 550.888 178.92 546.886C134.035 531.477 144.688 511.516 188.272 492.33Z" fill="white"/>
</g>
<defs>
<linearGradient id="paint0_linear_1_23" x1="146.45" y1="144.743" x2="854.963" y2="851.841" gradientUnits="userSpaceOnUse">
<stop stop-color="#33BEF0"/>
<stop offset="1" stop-color="#0A85D9"/>
</linearGradient>
<clipPath id="clip0_1_23">
<rect width="1000" height="1000" fill="white"/>
</clipPath>
</defs>
</svg>
