<svg width="1000" height="1000" viewBox="0 0 1000 1000" fill="none" xmlns="http://www.w3.org/2000/svg">
<g clip-path="url(#clip0_1_29)">
<rect width="1000" height="1000" rx="224" fill="#8E24AA"/>
<path d="M811.816 297.861C799.502 253.964 775.121 219.289 739.41 194.759C694.341 163.711 642.5 152.768 597.739 146.067C535.8 136.845 479.71 135.554 426.206 142.071C376.089 148.219 338.347 157.994 303.929 173.794C236.449 204.78 195.937 254.886 183.561 322.698C177.527 355.652 173.464 385.408 171.124 413.812C165.706 479.472 170.632 537.571 186.147 591.427C201.293 643.931 227.706 681.434 266.926 706.087C276.9 712.358 289.707 716.907 302.082 721.273C309.101 723.732 315.936 726.129 321.538 728.773C326.71 731.171 326.71 731.601 326.649 735.905C326.218 773.223 326.649 846.384 326.649 846.384L326.772 862H354.847L359.404 857.573C362.42 854.745 431.994 787.609 456.806 760.558L460.193 756.808C464.441 751.89 464.441 751.89 468.813 751.828C502.306 751.152 536.539 749.861 570.525 748.016C611.715 745.803 659.432 741.807 704.377 723.117C745.506 705.964 775.552 678.728 793.591 642.209C812.432 604.092 823.576 562.839 827.762 516.053C835.151 433.793 829.917 362.414 811.816 297.861ZM663.68 617.74C653.336 634.524 637.944 646.206 619.781 653.768C606.482 659.301 592.937 658.133 579.822 652.6C470.044 606.182 383.908 533.083 327.018 427.952C315.258 406.311 307.131 382.703 297.773 359.832C295.864 355.16 295.987 349.627 295.125 344.462C295.925 307.513 324.309 286.671 353 280.4C363.96 277.941 373.688 281.814 381.815 289.622C404.349 311.017 422.143 335.917 435.565 363.828C441.414 376.063 438.767 386.883 428.792 395.982C426.699 397.888 424.544 399.61 422.266 401.331C399.485 418.423 396.161 431.395 408.29 457.155C428.977 500.99 463.333 530.439 507.724 548.698C519.423 553.494 530.444 551.096 539.371 541.628C540.602 540.399 541.957 539.169 542.819 537.694C560.305 508.552 585.733 511.442 609.191 528.041C624.583 538.985 639.545 550.543 654.752 561.671C677.964 578.701 677.779 594.685 663.68 617.74ZM518.068 326.879C512.896 326.879 507.724 327.309 502.614 328.17C493.994 329.584 485.929 323.805 484.451 315.198C483.035 306.652 488.823 298.537 497.442 297.123C504.215 295.955 511.172 295.401 518.068 295.401C586.349 295.401 641.884 350.856 641.884 419.037C641.884 425.985 641.33 432.932 640.16 439.633C638.867 447.318 632.218 452.79 624.645 452.79C623.783 452.79 622.921 452.728 621.997 452.544C613.439 451.13 607.652 443.015 609.068 434.469C609.93 429.428 610.361 424.263 610.361 419.037C610.361 368.255 568.924 326.879 518.068 326.879ZM594.599 421.312C594.599 429.981 587.518 437.051 578.837 437.051C570.156 437.051 563.075 429.981 563.075 421.312C563.075 395.306 541.834 374.096 515.79 374.096C507.109 374.096 500.028 367.025 500.028 358.357C500.028 349.688 507.109 342.618 515.79 342.618C559.258 342.618 594.599 377.907 594.599 421.312ZM684.613 456.294C682.951 463.61 676.425 468.529 669.221 468.529C668.051 468.529 666.881 468.406 665.712 468.16C657.215 466.192 651.92 457.77 653.829 449.286C656.107 439.264 657.277 428.874 657.277 418.423C657.277 341.942 594.907 279.663 518.314 279.663C507.848 279.663 497.442 280.831 487.406 283.105C478.91 285.073 470.475 279.724 468.566 271.24C466.596 262.756 471.953 254.333 480.449 252.427C492.763 249.599 505.508 248.185 518.314 248.185C612.331 248.185 688.8 324.543 688.8 418.423C688.8 431.21 687.384 443.937 684.613 456.294Z" fill="white"/>
</g>
<defs>
<clipPath id="clip0_1_29">
<rect width="1000" height="1000" fill="white"/>
</clipPath>
</defs>
</svg>
