<svg width="71" height="40" viewBox="0 0 71 40" fill="none" xmlns="http://www.w3.org/2000/svg">
<g clip-path="url(#clip0_149_5072)">
<path fill-rule="evenodd" clip-rule="evenodd" d="M24.9371 25.4749L24.1121 24.7637C23.9246 24.5952 23.5871 24.6326 23.4183 24.876L22.2934 26.6354C22.1434 26.8788 22.0871 27.1783 22.2746 27.328L22.8558 27.8334L23.4371 28.3388C23.6246 28.5072 23.9058 28.4136 24.1308 28.2265L25.7245 26.8788C25.9495 26.6916 25.9308 26.3359 25.7433 26.1862L24.9371 25.4749Z" fill="#FFC900" style="fill:#FFC900;fill:color(display-p3 1.0000 0.7882 0.0000);fill-opacity:1;"/>
<path fill-rule="evenodd" clip-rule="evenodd" d="M12.4685 36.3313C12.5622 35.6574 12.8435 35.4703 13.3497 35.0023L21.2058 27.8895C21.5058 27.6088 21.8433 27.459 22.0308 27.6088C22.4058 27.927 22.7808 28.2639 23.1558 28.5821C23.3433 28.7505 23.2308 29.1062 22.987 29.4431L17.0247 38.2031C16.6309 38.7833 16.4997 39.0828 15.8247 39.27C11.5685 40.4305 11.9247 40.73 12.4685 36.3313Z" fill="#0257D1" style="fill:#0257D1;fill:color(display-p3 0.0078 0.3412 0.8196);fill-opacity:1;"/>
<path fill-rule="evenodd" clip-rule="evenodd" d="M33.3368 27.5339C28.4431 27.5339 24.0182 24.4454 22.3307 19.8408C20.6245 15.1801 22.0495 9.9391 25.8931 6.7945C25.9119 6.77579 25.9306 6.77579 25.9494 6.77579C25.9681 6.77579 26.0056 6.79451 26.0244 6.81322C26.0619 6.85066 26.0619 6.90681 26.0244 6.94425C23.2494 9.95782 22.387 14.2068 23.7932 18.0439C25.3494 22.3116 29.4556 25.1754 34.0118 25.1754C35.2867 25.1754 36.543 24.9508 37.7429 24.5203C41.7179 23.079 44.5116 19.4103 44.8491 15.1988C44.8491 15.1427 44.8866 15.1052 44.9428 15.1052C44.9991 15.1052 45.0366 15.1427 45.0366 15.1988C45.3365 20.3837 42.2429 25.0444 37.3492 26.8413C36.0742 27.2905 34.7055 27.5339 33.3368 27.5339Z" fill="#0257D1" style="fill:#0257D1;fill:color(display-p3 0.0078 0.3412 0.8196);fill-opacity:1;"/>
<path d="M25.9682 6.86943C23.2683 9.78941 22.2558 14.0758 23.7182 18.0627C25.3495 22.4988 29.5494 25.2503 34.0306 25.2503C35.2868 25.2503 36.543 25.0444 37.7992 24.5765C41.9617 23.0604 44.6429 19.2981 44.9616 15.1801C45.2429 20.1591 42.2617 24.9321 37.3493 26.729C36.0368 27.2157 34.6868 27.4403 33.3556 27.4403C28.6119 27.4403 24.1682 24.5203 22.4433 19.8222C20.6808 15.0678 22.2558 9.90172 25.9682 6.86943ZM25.9682 6.68225C25.9307 6.68225 25.8932 6.70097 25.8557 6.71969C21.9933 9.883 20.5496 15.1801 22.2558 19.8783C23.9432 24.5203 28.4057 27.6275 33.3556 27.6275C34.743 27.6275 36.093 27.3842 37.4055 26.9162C39.843 26.0365 41.8492 24.4268 43.2554 22.2555C44.6054 20.1591 45.2804 17.6509 45.1491 15.1801C45.1491 15.0866 45.0554 15.0117 44.9616 15.0117C44.8679 15.0117 44.7741 15.0866 44.7741 15.1801C44.4366 19.3542 41.6617 22.9855 37.7242 24.4268C36.5243 24.8573 35.2868 25.0819 34.0306 25.0819C29.5119 25.0819 25.4432 22.2368 23.9057 18.0065C22.5183 14.1881 23.362 9.97659 26.1182 7.00045C26.1932 6.92558 26.1932 6.81328 26.1182 6.7384C26.062 6.70097 26.0057 6.68225 25.9682 6.68225Z" fill="#0257D1" style="fill:#0257D1;fill:color(display-p3 0.0078 0.3412 0.8196);fill-opacity:1;"/>
<path fill-rule="evenodd" clip-rule="evenodd" d="M40.3118 21.7687C40.2931 21.7687 40.2556 21.75 40.2368 21.7313C40.1993 21.6939 40.1993 21.6377 40.2368 21.6003C42.5805 19.0734 43.3118 15.4795 42.1118 12.2414C40.7993 8.64754 37.3306 6.23294 33.5057 6.23294C32.437 6.23294 31.3682 6.42012 30.3558 6.79448C26.9996 8.01113 24.6559 11.0996 24.3746 14.656C24.3746 14.7121 24.3371 14.7496 24.2809 14.7496C24.2246 14.7496 24.1871 14.7121 24.1871 14.656C23.9434 10.276 26.5496 6.32653 30.6745 4.8291C31.7807 4.43603 32.9057 4.23013 34.0682 4.23013C38.2119 4.23013 41.9431 6.83191 43.368 10.7252C44.8118 14.656 43.593 19.0921 40.3493 21.75C40.3681 21.75 40.3493 21.7687 40.3118 21.7687Z" fill="#FFC900" style="fill:#FFC900;fill:color(display-p3 1.0000 0.7882 0.0000);fill-opacity:1;"/>
<path d="M34.087 4.30507C38.0806 4.30507 41.8493 6.77582 43.293 10.744C44.7555 14.7496 43.443 19.1109 40.3118 21.6752C42.5993 19.2045 43.443 15.5919 42.2056 12.2227C40.8368 8.47914 37.2931 6.15813 33.5057 6.15813C32.4557 6.15813 31.387 6.34531 30.337 6.71967C26.8308 7.99248 24.5621 11.1745 24.2809 14.656C24.0371 10.4632 26.5496 6.4389 30.712 4.92276C31.837 4.49225 32.9807 4.30507 34.087 4.30507ZM34.087 4.11789C32.9245 4.11789 31.762 4.32379 30.6558 4.73558C28.5933 5.48429 26.8871 6.85069 25.7059 8.66632C24.5621 10.4258 23.9996 12.5596 24.1121 14.656C24.1121 14.7496 24.2059 14.8245 24.2996 14.8245C24.3934 14.8245 24.4871 14.7496 24.4871 14.656C24.7684 11.1371 27.0933 8.08607 30.412 6.88813C31.4245 6.51377 32.4557 6.32659 33.5245 6.32659C37.3119 6.32659 40.7431 8.72248 42.0368 12.2789C43.218 15.4796 42.4868 19.036 40.1806 21.5442C40.1056 21.6191 40.1056 21.7314 40.1806 21.8062C40.2181 21.8437 40.2743 21.8624 40.3118 21.8624C40.3493 21.8624 40.3868 21.8437 40.4243 21.825C43.7055 19.1483 44.9243 14.656 43.4618 10.6878C42.0368 6.7571 38.2681 4.11789 34.087 4.11789Z" fill="#FFC900" style="fill:#FFC900;fill:color(display-p3 1.0000 0.7882 0.0000);fill-opacity:1;"/>
<path d="M35.3056 15.5732H33.9557C33.4119 16.1535 32.6432 16.5091 31.7995 16.5091H30.3557V10.6317H31.7995C33.1682 10.6317 34.3307 11.5863 34.6494 12.8591H35.3056C35.7369 12.8591 36.1681 12.934 36.5619 13.065C36.3181 10.6691 34.2744 8.79736 31.8182 8.79736H28.8933C28.687 8.79736 28.5183 8.96582 28.5183 9.153L28.4995 17.2578C28.4995 17.8568 28.987 18.3435 29.587 18.3435H31.7807C33.5994 18.3435 35.1931 17.3327 35.9994 15.8353C35.8306 15.6855 35.5681 15.5732 35.3056 15.5732Z" fill="#FFAC00" style="fill:#FFAC00;fill:color(display-p3 1.0000 0.6745 0.0000);fill-opacity:1;"/>
<path d="M35.9243 20.0655C37.7055 19.7286 39.018 18.0065 38.6618 16.0599C38.3618 14.4314 36.8618 13.2896 35.1931 13.2896H31.0869C30.9369 13.2896 30.8057 13.4207 30.8057 13.5704V16.0599H31.7994C32.0806 16.0599 32.3619 16.0037 32.6431 15.9101V15.124H35.2681C35.9618 15.124 36.5993 15.5358 36.8056 16.1909C37.143 17.2765 36.3368 18.2873 35.3056 18.2686H34.0494C33.3556 18.5868 32.6056 18.774 31.7994 18.774H31.2182C30.9932 18.774 30.8057 18.9611 30.8057 19.1858V20.9827C30.8057 21.9934 31.6306 22.817 32.6431 22.817V20.1029H33.3931C34.6118 21.3196 36.1306 22.1806 37.7993 22.6111L38.718 22.8357L35.9243 20.0655Z" fill="#0257D1" style="fill:#0257D1;fill:color(display-p3 0.0078 0.3412 0.8196);fill-opacity:1;"/>
<path d="M31.8182 8.79736H29.0058C28.762 8.79736 28.5745 9.02198 28.6308 9.26531C28.8558 10.5007 29.4933 11.605 30.3745 12.4473V10.6504H31.8182C33.1869 10.6504 34.3494 11.605 34.6682 12.8779H35.3244C35.7556 12.8779 36.1869 12.9527 36.5806 13.0837C36.3181 10.6691 34.2744 8.79736 31.8182 8.79736Z" fill="#FFC900" style="fill:#FFC900;fill:color(display-p3 1.0000 0.7882 0.0000);fill-opacity:1;"/>
<path d="M35.9431 20.0842C35.5118 20.1778 35.0806 20.2339 34.6306 20.2339C33.3181 20.2339 32.0994 19.8034 31.1244 19.0547C30.9932 18.9611 30.8057 19.0547 30.8057 19.2232V21.0014C30.8057 22.0121 31.6306 22.8357 32.6431 22.8357V20.1216H33.3931L34.2744 21.0014C35.4556 22.1806 37.0493 22.8357 38.718 22.8544L35.9431 20.0842Z" fill="#0257D1" style="fill:#0257D1;fill:color(display-p3 0.0078 0.3412 0.8196);fill-opacity:1;"/>
<path d="M35.3055 13.3083H31.5743C31.7056 14.2816 32.0806 15.1801 32.6243 15.9475H32.6431V15.1614H35.3055C36.168 15.1614 36.8805 15.8727 36.8805 16.7337C36.8805 17.3888 36.468 17.9503 35.9055 18.1937C36.3743 18.306 36.8617 18.3809 37.368 18.3809C37.7055 18.3809 38.0242 18.3621 38.3617 18.306C38.6055 17.838 38.7367 17.3139 38.7367 16.7524C38.718 14.8432 37.1992 13.3083 35.3055 13.3083Z" fill="#0257D1" style="fill:#0257D1;fill:color(display-p3 0.0078 0.3412 0.8196);fill-opacity:1;"/>
<path d="M36.4493 13.8137C36.768 14.0009 36.8993 14.3378 36.768 14.5624C36.6368 14.7871 36.2618 14.8058 35.9431 14.5999C35.6243 14.4127 35.4931 14.0758 35.6243 13.8512C35.7556 13.6453 36.1305 13.6266 36.4493 13.8137Z" fill="#0257D1" style="fill:#0257D1;fill:color(display-p3 0.0078 0.3412 0.8196);fill-opacity:1;"/>
<path d="M37.5179 14.6934C37.5929 14.8431 37.5179 15.0303 37.3679 15.0864C37.2179 15.1613 37.0304 15.0864 36.9741 14.9367C36.8991 14.787 36.9741 14.5998 37.1241 14.5436C37.2741 14.4688 37.4429 14.5436 37.5179 14.6934Z" fill="#0257D1" style="fill:#0257D1;fill:color(display-p3 0.0078 0.3412 0.8196);fill-opacity:1;"/>
<path d="M36.0181 15.8352C36.0181 15.8352 34.8181 18.3621 31.7994 18.3434H29.5682C28.9869 18.3434 28.5182 17.8755 28.5182 17.2952V17.0893C28.5182 17.0893 32.3431 18.0065 36.0181 15.8352Z" fill="#FF9100" style="fill:#FF9100;fill:color(display-p3 1.0000 0.5686 0.0000);fill-opacity:1;"/>
<path d="M62.7926 13.8886C62.7926 13.8699 62.7926 13.8699 62.7926 13.8886C64.6676 13.2148 66.1488 12.3538 67.1426 11.3243C68.2863 10.1638 68.8675 8.72251 68.8675 7.07534C68.8675 4.94151 68.0238 3.20075 66.3551 1.92794C64.6863 0.636406 62.3989 0 59.5302 0H8.6436C8.13735 0 7.70611 0.411792 7.70611 0.935892C7.70611 1.19794 7.81861 1.42256 7.98736 1.59102C8.1561 1.75948 8.3811 1.87178 8.6436 1.87178H10.4061C11.231 1.87178 11.8123 1.94665 12.1123 2.11511C12.3935 2.26486 12.5248 2.60178 12.5248 3.12588V21.694C12.5248 23.6219 12.056 25.1568 11.1373 26.2424C10.2186 27.328 8.99984 27.8708 7.49987 27.8708C6.09364 27.8708 4.89366 27.4965 3.93743 26.7478C2.9812 25.9991 2.51246 25.1568 2.51246 24.1647C2.51246 23.3973 2.81245 23.3037 3.07494 23.3037C3.11244 23.3037 3.26244 23.3224 3.80618 23.4909C4.23742 23.6219 4.57492 23.6968 4.79991 23.6968C5.4749 23.6968 6.07489 23.416 6.54363 22.8545C7.01237 22.2929 7.25612 21.6191 7.25612 20.8142C7.25612 19.8596 6.93738 19.0735 6.33739 18.4932C5.71865 17.913 4.94991 17.6135 4.01243 17.6135C2.81245 17.6135 1.81872 18.0814 1.08748 19.0173C0.374993 19.8971 0 21.1137 0 22.5737C0 24.6327 0.768736 26.3547 2.28746 27.7211C3.80618 29.0875 5.75615 29.7614 8.06236 29.7614C10.7436 29.7614 12.9185 29.0314 14.5497 27.5901C16.1997 26.1488 17.0247 24.2396 17.0247 21.9186V3.12588C17.0247 2.28358 17.6247 1.87178 18.8247 1.87178H47.0054C47.0429 1.87178 47.0804 1.87178 47.1179 1.87178H56.1927C56.3427 1.87178 56.474 1.87178 56.624 1.87178C56.6802 1.87178 56.7177 1.87178 56.774 1.87178C59.3802 1.8905 61.1989 2.2087 62.1551 2.82639C63.2989 3.53767 63.8614 4.97894 63.8614 7.13149C63.8614 11.2681 62.1176 13.2709 58.5365 13.2709H54.599V15.124H59.0052C60.9739 15.124 62.5489 15.6668 63.6551 16.7525C64.7613 17.8381 65.3238 19.3542 65.3238 21.2635C65.3238 23.3037 64.7613 24.8573 63.6739 25.868C62.5864 26.8788 60.8989 27.4029 58.6865 27.4029H55.1615C53.8678 27.4029 53.2303 26.9537 53.2303 26.0178V3.35049H48.7491V26.4483C48.7491 27.1221 49.0116 27.7211 49.4429 28.1703C49.8741 28.6196 50.4741 28.9003 51.1491 28.9378L59.0427 29.256C62.4926 29.256 65.2676 28.5073 67.3113 27.0285C69.3738 25.5311 70.4237 23.6219 70.4237 21.3196C70.4425 17.6322 67.8738 15.124 62.7926 13.8886Z" fill="#0257D1" style="fill:#0257D1;fill:color(display-p3 0.0078 0.3412 0.8196);fill-opacity:1;"/>
</g>
<defs>
<clipPath id="clip0_149_5072">
<rect width="70.4425" height="40" fill="white" style="fill:white;fill-opacity:1;"/>
</clipPath>
</defs>
</svg>
