<svg width="194" height="54" viewBox="0 0 194 54" fill="none" xmlns="http://www.w3.org/2000/svg">
<g clip-path="url(#clip0_268_24928)">
<path d="M20.3906 13.6187C21.1237 13.099 22.0453 12.7896 23.0463 12.7896C25.4376 12.7896 27.3757 14.5537 27.3757 16.7299C27.3757 18.9062 25.4376 20.6702 23.0463 20.6702C22.0453 20.6702 21.1237 20.3609 20.3906 19.8411V21.9714H20.3923V23.3795H28.3514C27.9639 23.5802 27.6166 23.8539 27.3263 24.1828C26.7461 24.8394 26.392 25.7168 26.392 26.681C26.392 28.7153 27.9696 30.3643 29.9164 30.3643C31.8632 30.3643 33.4409 28.7153 33.4409 26.681C33.4409 25.7168 33.0867 24.8394 32.506 24.1828C32.2157 23.8539 31.869 23.5802 31.4809 23.3795H39.3399C40.9653 17.6982 39.5929 12.0905 35.1663 8.935C27.823 3.69985 21.9257 9.81184 20.3906 11.6644V13.6187Z" fill="url(#paint0_linear_268_24928)" style=""/>
<path d="M7.55594 23.3795C7.03618 22.6464 6.72685 21.7247 6.72685 20.7237C6.72685 18.3324 8.49081 16.3942 10.667 16.3942C12.8432 16.3942 14.6071 18.3324 14.6071 20.7237C14.6071 21.7247 14.2978 22.6464 13.7781 23.3795H19.5874V18.295C19.788 18.6826 20.0617 19.0298 20.3906 19.3202C21.0472 19.9004 21.9246 20.2545 22.8888 20.2545C24.9229 20.2545 26.5719 18.6768 26.5719 16.7299C26.5719 14.7831 24.9229 13.2053 22.8888 13.2053C21.9246 13.2053 21.0472 13.5595 20.3906 14.1403C20.0617 14.4306 19.788 14.7773 19.5874 15.1654V11.638C18.0189 9.75434 12.1423 3.72458 4.83411 8.935C0.407555 12.0905 -0.965431 17.6976 0.659384 23.3795H7.55594Z" fill="url(#paint1_linear_268_24928)" style=""/>
<path d="M19.589 35.1796C18.856 35.6994 17.9343 36.0087 16.9333 36.0087C14.5421 36.0087 12.604 34.2447 12.604 32.0684C12.604 29.8921 14.5421 28.1281 16.9333 28.1281C17.9343 28.1281 18.856 28.4375 19.589 28.9572V27.7722H19.5873V24.1821H12.232C12.6195 23.9814 12.9667 23.7077 13.2571 23.3788C13.8372 22.7222 14.1914 21.8448 14.1914 20.8806C14.1914 18.8463 12.6137 17.1973 10.6669 17.1973C8.72015 17.1973 7.14248 18.8463 7.14248 20.8806C7.14248 21.8448 7.49665 22.7222 8.07735 23.3788C8.3677 23.7077 8.7144 23.9814 9.10249 24.1821H0.909424C2.60381 29.2298 6.66067 34.247 13.0421 37.5692C15.5523 38.8761 17.721 40.1951 19.589 41.4802V35.179V35.1796Z" fill="url(#paint2_linear_268_24928)" style=""/>
<path d="M33.0274 24.1826C33.5471 24.9157 33.8565 25.8374 33.8565 26.8384C33.8565 29.2297 32.0925 31.168 29.9163 31.168C27.7401 31.168 25.9762 29.2297 25.9762 26.8384C25.9762 25.8374 26.2855 24.9157 26.8053 24.1826H24.3772H20.3922V30.5033C20.1916 30.1158 19.9179 29.7685 19.589 29.4781C18.9324 28.898 18.0551 28.5438 17.0909 28.5438C15.0567 28.5438 13.4077 30.1215 13.4077 32.0684C13.4077 34.0153 15.0567 35.593 17.0909 35.593C18.0551 35.593 18.9324 35.2388 19.589 34.6581C19.9179 34.3677 20.1916 34.021 20.3922 33.6329V41.4934C22.2649 40.2043 24.4393 38.8807 26.9582 37.5698C27.9201 37.069 28.8285 36.5302 29.6846 35.9581C30.2952 35.5505 30.8782 35.1261 31.4348 34.6863C31.6021 34.5552 31.7671 34.4218 31.9298 34.2867C32.6801 33.6651 33.3787 33.0165 34.0244 32.3461C34.2526 32.1098 34.4734 31.8712 34.6878 31.6303C35.5175 30.6982 36.2506 29.73 36.8865 28.7399C37.8397 27.2547 38.5745 25.7201 39.0908 24.1826H33.0274Z" fill="url(#paint3_linear_268_24928)" style=""/>
<path d="M31.4349 34.6858C31.3889 35.1734 31.2848 35.9824 31.0698 36.4694C31.0698 36.4694 29.9308 37.1806 29.5559 37.2548C29.5559 37.2548 29.6387 36.5527 29.6847 35.9576C30.2953 35.55 30.8783 35.1256 31.4349 34.6858Z" fill="#E3594A" style="fill:#E3594A;fill:color(display-p3 0.8902 0.3490 0.2902);fill-opacity:1;"/>
<path d="M34.0244 32.3455C33.9663 32.8773 33.8341 33.987 33.6829 34.5913C33.6829 34.5913 32.1673 35.8471 31.647 36.1524C31.647 36.1524 31.8563 35.0496 31.9298 34.286C32.6802 33.6645 33.3787 33.0159 34.0244 32.3455Z" fill="#E3594A" style="fill:#E3594A;fill:color(display-p3 0.8902 0.3490 0.2902);fill-opacity:1;"/>
<path d="M34.4299 33.7433C34.4299 33.7433 34.6415 32.3668 34.6881 31.6297C35.5177 30.6976 36.2508 29.7294 36.8867 28.7393C36.9039 29.7225 36.6446 31.8361 34.4299 33.7433Z" fill="#E3594A" style="fill:#E3594A;fill:color(display-p3 0.8902 0.3490 0.2902);fill-opacity:1;"/>
<path d="M38.1314 28.491C37.8767 29.1735 37.7266 30.7995 35.754 33.307C33.7819 35.8139 30.9692 37.1559 29.775 37.6337C28.5809 38.1115 26.0068 38.3633 26.0597 37.5543C26.1126 36.7448 29.0719 35.6167 29.8147 34.0912C30.5575 32.5653 29.6733 31.5832 29.6733 31.5832C29.6733 31.5832 28.5786 32.6969 26.6255 33.9199C24.6723 35.1429 21.6607 36.4389 20.3924 39.9617C20.2159 40.4522 20.0888 40.9449 20.0003 41.4302C19.9117 40.9449 19.7847 40.4522 19.6082 39.9617C18.3398 36.4389 15.3282 35.1429 13.3751 33.9199C11.422 32.6969 10.3273 31.5832 10.3273 31.5832C10.3273 31.5832 9.443 32.5653 10.1858 34.0912C10.9287 35.6167 13.888 36.7448 13.9409 37.5543C13.9938 38.3633 11.4197 38.1115 10.2255 37.6337C9.03134 37.1559 6.21867 35.8139 4.24659 33.307C2.27392 30.7995 2.12386 29.1735 1.86916 28.491C1.61445 27.8079 1.28443 26.9345 0.717529 27.6228C0.717529 27.6228 1.03663 33.8952 4.80372 37.5434C8.5708 41.1922 12.243 42.4479 14.636 44.6512C15.6818 45.6143 16.2372 46.3118 16.531 46.7924L19.6082 47.138C19.6082 47.138 19.8347 46.4854 20.0003 45.4665C20.1659 46.486 20.3924 47.138 20.3924 47.138L23.4695 46.7924C23.7633 46.3118 24.3187 45.6143 25.3646 44.6512C27.7575 42.4479 31.4298 41.1922 35.1968 37.5434C38.9639 33.8952 39.283 27.6228 39.283 27.6228C38.7161 26.9345 38.3861 27.8079 38.1314 28.491Z" fill="url(#paint4_radial_268_24928)" style=""/>
<path d="M8.56567 34.6858C8.61167 35.1734 8.71574 35.9824 8.93077 36.4694C8.93077 36.4694 10.0697 37.1806 10.4446 37.2548C10.4446 37.2548 10.3618 36.5527 10.3158 35.9576C9.70523 35.55 9.12223 35.1256 8.56567 34.6858Z" fill="#E3594A" style="fill:#E3594A;fill:color(display-p3 0.8902 0.3490 0.2902);fill-opacity:1;"/>
<path d="M5.97607 32.3455C6.03414 32.8773 6.16638 33.987 6.3176 34.5913C6.3176 34.5913 7.83317 35.8471 8.3535 36.1524C8.3535 36.1524 8.14422 35.0496 8.07062 34.286C7.32031 33.6645 6.62175 33.0159 5.97607 32.3455Z" fill="#E3594A" style="fill:#E3594A;fill:color(display-p3 0.8902 0.3490 0.2902);fill-opacity:1;"/>
<path d="M5.57081 33.7433C5.57081 33.7433 5.35923 32.3668 5.31266 31.6297C4.483 30.6976 3.74994 29.7294 3.11404 28.7393C3.09679 29.7225 3.3561 31.8361 5.57081 33.7433Z" fill="#E3594A" style="fill:#E3594A;fill:color(display-p3 0.8902 0.3490 0.2902);fill-opacity:1;"/>
</g>
<path d="M194 20.2336L189.296 29.3321V33.8233H185.986V29.3321L181.281 20.2336H185.037L187.67 25.925L190.283 20.2336H194Z" fill="white" style="fill:white;fill-opacity:1;"/>
<path d="M194 20.2336L189.296 29.3321V33.8233H185.986V29.3321L181.281 20.2336H185.037L187.67 25.925L190.283 20.2336H194Z" fill="#FBE960" style="fill:#FBE960;fill:color(display-p3 0.9843 0.9137 0.3765);fill-opacity:1;"/>
<path d="M180.685 20.2336V22.8858H177.085V33.8233H173.774V22.8858H170.174V20.2336H180.685Z" fill="white" style="fill:white;fill-opacity:1;"/>
<path d="M180.685 20.2336V22.8858H177.085V33.8233H173.774V22.8858H170.174V20.2336H180.685Z" fill="#FBE960" style="fill:#FBE960;fill:color(display-p3 0.9843 0.9137 0.3765);fill-opacity:1;"/>
<path d="M168.51 20.2336V33.8233H165.199V20.2336H168.51Z" fill="white" style="fill:white;fill-opacity:1;"/>
<path d="M168.51 20.2336V33.8233H165.199V20.2336H168.51Z" fill="#FBE960" style="fill:#FBE960;fill:color(display-p3 0.9843 0.9137 0.3765);fill-opacity:1;"/>
<path d="M159.502 33.8233L156.675 28.6933H155.882V33.8233H152.571V20.2336H158.127C159.198 20.2336 160.108 20.4208 160.857 20.795C161.618 21.1693 162.186 21.6855 162.56 22.3437C162.934 22.989 163.122 23.7117 163.122 24.5119C163.122 25.4153 162.864 26.2219 162.347 26.9317C161.844 27.6415 161.095 28.1448 160.102 28.4416L163.238 33.8233H159.502ZM155.882 26.3509H157.934C158.54 26.3509 158.992 26.2025 159.289 25.9057C159.598 25.6088 159.753 25.1894 159.753 24.6474C159.753 24.1311 159.598 23.7246 159.289 23.4278C158.992 23.131 158.54 22.9825 157.934 22.9825H155.882V26.3509Z" fill="white" style="fill:white;fill-opacity:1;"/>
<path d="M159.502 33.8233L156.675 28.6933H155.882V33.8233H152.571V20.2336H158.127C159.198 20.2336 160.108 20.4208 160.857 20.795C161.618 21.1693 162.186 21.6855 162.56 22.3437C162.934 22.989 163.122 23.7117 163.122 24.5119C163.122 25.4153 162.864 26.2219 162.347 26.9317C161.844 27.6415 161.095 28.1448 160.102 28.4416L163.238 33.8233H159.502ZM155.882 26.3509H157.934C158.54 26.3509 158.992 26.2025 159.289 25.9057C159.598 25.6088 159.753 25.1894 159.753 24.6474C159.753 24.1311 159.598 23.7246 159.289 23.4278C158.992 23.131 158.54 22.9825 157.934 22.9825H155.882V26.3509Z" fill="#FBE960" style="fill:#FBE960;fill:color(display-p3 0.9843 0.9137 0.3765);fill-opacity:1;"/>
<path d="M146.758 31.4228H141.686L140.873 33.8233H137.407L142.325 20.2336H146.157L151.075 33.8233H147.571L146.758 31.4228ZM145.906 28.8675L144.222 23.8924L142.557 28.8675H145.906Z" fill="white" style="fill:white;fill-opacity:1;"/>
<path d="M146.758 31.4228H141.686L140.873 33.8233H137.407L142.325 20.2336H146.157L151.075 33.8233H147.571L146.758 31.4228ZM145.906 28.8675L144.222 23.8924L142.557 28.8675H145.906Z" fill="#FBE960" style="fill:#FBE960;fill:color(display-p3 0.9843 0.9137 0.3765);fill-opacity:1;"/>
<path d="M135.908 20.2336V33.8233H132.598V28.2287H127.449V33.8233H124.138V20.2336H127.449V25.5572H132.598V20.2336H135.908Z" fill="white" style="fill:white;fill-opacity:1;"/>
<path d="M135.908 20.2336V33.8233H132.598V28.2287H127.449V33.8233H124.138V20.2336H127.449V25.5572H132.598V20.2336H135.908Z" fill="#FBE960" style="fill:#FBE960;fill:color(display-p3 0.9843 0.9137 0.3765);fill-opacity:1;"/>
<path d="M108.832 27.0094C108.832 25.6672 109.122 24.4735 109.703 23.4281C110.284 22.3699 111.09 21.5503 112.123 20.9696C113.168 20.3759 114.349 20.0791 115.665 20.0791C117.279 20.0791 118.659 20.505 119.808 21.3568C120.957 22.2085 121.725 23.37 122.112 24.8413H118.472C118.201 24.2734 117.814 23.8411 117.311 23.5443C116.82 23.2474 116.259 23.099 115.627 23.099C114.607 23.099 113.781 23.4539 113.149 24.1637C112.516 24.8735 112.2 25.8221 112.2 27.0094C112.2 28.1967 112.516 29.1453 113.149 29.8551C113.781 30.5649 114.607 30.9198 115.627 30.9198C116.259 30.9198 116.82 30.7714 117.311 30.4746C117.814 30.1778 118.201 29.7454 118.472 29.1776H122.112C121.725 30.6488 120.957 31.8103 119.808 32.6621C118.659 33.501 117.279 33.9204 115.665 33.9204C114.349 33.9204 113.168 33.63 112.123 33.0493C111.09 32.4556 110.284 31.6361 109.703 30.5907C109.122 29.5454 108.832 28.3516 108.832 27.0094Z" fill="white" style="fill:white;fill-opacity:1;"/>
<path d="M108.832 27.0094C108.832 25.6672 109.122 24.4735 109.703 23.4281C110.284 22.3699 111.09 21.5503 112.123 20.9696C113.168 20.3759 114.349 20.0791 115.665 20.0791C117.279 20.0791 118.659 20.505 119.808 21.3568C120.957 22.2085 121.725 23.37 122.112 24.8413H118.472C118.201 24.2734 117.814 23.8411 117.311 23.5443C116.82 23.2474 116.259 23.099 115.627 23.099C114.607 23.099 113.781 23.4539 113.149 24.1637C112.516 24.8735 112.2 25.8221 112.2 27.0094C112.2 28.1967 112.516 29.1453 113.149 29.8551C113.781 30.5649 114.607 30.9198 115.627 30.9198C116.259 30.9198 116.82 30.7714 117.311 30.4746C117.814 30.1778 118.201 29.7454 118.472 29.1776H122.112C121.725 30.6488 120.957 31.8103 119.808 32.6621C118.659 33.501 117.279 33.9204 115.665 33.9204C114.349 33.9204 113.168 33.63 112.123 33.0493C111.09 32.4556 110.284 31.6361 109.703 30.5907C109.122 29.5454 108.832 28.3516 108.832 27.0094Z" fill="#FBE960" style="fill:#FBE960;fill:color(display-p3 0.9843 0.9137 0.3765);fill-opacity:1;"/>
<path d="M98.1272 22.8858V25.6346H102.56V28.19H98.1272V31.1712H103.141V33.8233H94.8169V20.2336H103.141V22.8858H98.1272Z" fill="white" style="fill:white;fill-opacity:1;"/>
<path d="M98.1272 22.8858V25.6346H102.56V28.19H98.1272V31.1712H103.141V33.8233H94.8169V20.2336H103.141V22.8858H98.1272Z" fill="#FBE960" style="fill:#FBE960;fill:color(display-p3 0.9843 0.9137 0.3765);fill-opacity:1;"/>
<path d="M93.1572 20.2336L89.6146 33.8233H85.6075L83.4393 24.8797L81.1937 33.8233H77.1865L73.7407 20.2336H77.2833L79.2385 30.1258L81.6583 20.2336H85.2977L87.6207 30.1258L89.5953 20.2336H93.1572Z" fill="white" style="fill:white;fill-opacity:1;"/>
<path d="M93.1572 20.2336L89.6146 33.8233H85.6075L83.4393 24.8797L81.1937 33.8233H77.1865L73.7407 20.2336H77.2833L79.2385 30.1258L81.6583 20.2336H85.2977L87.6207 30.1258L89.5953 20.2336H93.1572Z" fill="#FBE960" style="fill:#FBE960;fill:color(display-p3 0.9843 0.9137 0.3765);fill-opacity:1;"/>
<path d="M72.0671 20.2336V33.8233H68.7568V28.2287H63.6074V33.8233H60.2971V20.2336H63.6074V25.5572H68.7568V20.2336H72.0671Z" fill="white" style="fill:white;fill-opacity:1;"/>
<path d="M72.0671 20.2336V33.8233H68.7568V28.2287H63.6074V33.8233H60.2971V20.2336H63.6074V25.5572H68.7568V20.2336H72.0671Z" fill="#FBE960" style="fill:#FBE960;fill:color(display-p3 0.9843 0.9137 0.3765);fill-opacity:1;"/>
<path d="M53.3042 33.9592C52.3105 33.9592 51.42 33.7979 50.6327 33.4753C49.8455 33.1526 49.2131 32.6751 48.7356 32.0428C48.271 31.4104 48.0258 30.649 48 29.7585H51.5232C51.5749 30.2618 51.7491 30.649 52.0459 30.92C52.3427 31.1781 52.7299 31.3071 53.2074 31.3071C53.6978 31.3071 54.085 31.1974 54.3689 30.978C54.6529 30.7457 54.7948 30.4296 54.7948 30.0295C54.7948 29.6939 54.6787 29.4165 54.4464 29.1971C54.227 28.9777 53.9495 28.797 53.6139 28.655C53.2913 28.5131 52.8267 28.3518 52.2201 28.1711C51.3426 27.9001 50.6263 27.629 50.0714 27.358C49.5164 27.087 49.0389 26.6869 48.6388 26.1578C48.2388 25.6287 48.0387 24.9382 48.0387 24.0864C48.0387 22.8217 48.4969 21.8344 49.4132 21.1246C50.3295 20.4019 51.5232 20.0405 52.9945 20.0405C54.4915 20.0405 55.6982 20.4019 56.6145 21.1246C57.5308 21.8344 58.0212 22.8281 58.0857 24.1058H54.5044C54.4786 23.667 54.3173 23.325 54.0205 23.0798C53.7236 22.8217 53.3429 22.6926 52.8783 22.6926C52.4783 22.6926 52.1556 22.8023 51.9104 23.0217C51.6652 23.2282 51.5426 23.5315 51.5426 23.9316C51.5426 24.3704 51.7491 24.7124 52.1621 24.9576C52.575 25.2028 53.2203 25.4673 54.0979 25.7513C54.9755 26.0481 55.6853 26.332 56.2273 26.603C56.7823 26.8741 57.2598 27.2677 57.6599 27.7839C58.0599 28.3001 58.26 28.9648 58.26 29.7778C58.26 30.5522 58.0599 31.2555 57.6599 31.8879C57.2727 32.5203 56.7048 33.0236 55.9563 33.3979C55.2078 33.7721 54.3238 33.9592 53.3042 33.9592Z" fill="white" style="fill:white;fill-opacity:1;"/>
<path d="M53.3042 33.9592C52.3105 33.9592 51.42 33.7979 50.6327 33.4753C49.8455 33.1526 49.2131 32.6751 48.7356 32.0428C48.271 31.4104 48.0258 30.649 48 29.7585H51.5232C51.5749 30.2618 51.7491 30.649 52.0459 30.92C52.3427 31.1781 52.7299 31.3071 53.2074 31.3071C53.6978 31.3071 54.085 31.1974 54.3689 30.978C54.6529 30.7457 54.7948 30.4296 54.7948 30.0295C54.7948 29.6939 54.6787 29.4165 54.4464 29.1971C54.227 28.9777 53.9495 28.797 53.6139 28.655C53.2913 28.5131 52.8267 28.3518 52.2201 28.1711C51.3426 27.9001 50.6263 27.629 50.0714 27.358C49.5164 27.087 49.0389 26.6869 48.6388 26.1578C48.2388 25.6287 48.0387 24.9382 48.0387 24.0864C48.0387 22.8217 48.4969 21.8344 49.4132 21.1246C50.3295 20.4019 51.5232 20.0405 52.9945 20.0405C54.4915 20.0405 55.6982 20.4019 56.6145 21.1246C57.5308 21.8344 58.0212 22.8281 58.0857 24.1058H54.5044C54.4786 23.667 54.3173 23.325 54.0205 23.0798C53.7236 22.8217 53.3429 22.6926 52.8783 22.6926C52.4783 22.6926 52.1556 22.8023 51.9104 23.0217C51.6652 23.2282 51.5426 23.5315 51.5426 23.9316C51.5426 24.3704 51.7491 24.7124 52.1621 24.9576C52.575 25.2028 53.2203 25.4673 54.0979 25.7513C54.9755 26.0481 55.6853 26.332 56.2273 26.603C56.7823 26.8741 57.2598 27.2677 57.6599 27.7839C58.0599 28.3001 58.26 28.9648 58.26 29.7778C58.26 30.5522 58.0599 31.2555 57.6599 31.8879C57.2727 32.5203 56.7048 33.0236 55.9563 33.3979C55.2078 33.7721 54.3238 33.9592 53.3042 33.9592Z" fill="#FBE960" style="fill:#FBE960;fill:color(display-p3 0.9843 0.9137 0.3765);fill-opacity:1;"/>
<defs>
<linearGradient id="paint0_linear_268_24928" x1="30.0236" y1="30.3575" x2="30.1159" y2="6.86835" gradientUnits="userSpaceOnUse">
<stop stop-color="#FBE960" style="stop-color:#FBE960;stop-color:color(display-p3 0.9843 0.9137 0.3765);stop-opacity:1;"/>
<stop offset="1" stop-color="#D4B93E" style="stop-color:#D4B93E;stop-color:color(display-p3 0.8314 0.7255 0.2431);stop-opacity:1;"/>
</linearGradient>
<linearGradient id="paint1_linear_268_24928" x1="26.5627" y1="15.2216" x2="0.0091983" y2="15.0205" gradientUnits="userSpaceOnUse">
<stop stop-color="#FBE960" style="stop-color:#FBE960;stop-color:color(display-p3 0.9843 0.9137 0.3765);stop-opacity:1;"/>
<stop offset="1" stop-color="#D4B93E" style="stop-color:#D4B93E;stop-color:color(display-p3 0.8314 0.7255 0.2431);stop-opacity:1;"/>
</linearGradient>
<linearGradient id="paint2_linear_268_24928" x1="10.4415" y1="17.2037" x2="10.3536" y2="41.4748" gradientUnits="userSpaceOnUse">
<stop stop-color="#FBE960" style="stop-color:#FBE960;stop-color:color(display-p3 0.9843 0.9137 0.3765);stop-opacity:1;"/>
<stop offset="1" stop-color="#D4B93E" style="stop-color:#D4B93E;stop-color:color(display-p3 0.8314 0.7255 0.2431);stop-opacity:1;"/>
</linearGradient>
<linearGradient id="paint3_linear_268_24928" x1="13.4166" y1="32.7326" x2="39.0822" y2="32.9119" gradientUnits="userSpaceOnUse">
<stop stop-color="#FBE960" style="stop-color:#FBE960;stop-color:color(display-p3 0.9843 0.9137 0.3765);stop-opacity:1;"/>
<stop offset="1" stop-color="#D4B93E" style="stop-color:#D4B93E;stop-color:color(display-p3 0.8314 0.7255 0.2431);stop-opacity:1;"/>
</linearGradient>
<radialGradient id="paint4_radial_268_24928" cx="0" cy="0" r="1" gradientUnits="userSpaceOnUse" gradientTransform="translate(20.0003 37.2553) scale(20.2009 20.2018)">
<stop stop-color="#F44538" style="stop-color:#F44538;stop-color:color(display-p3 0.9569 0.2706 0.2196);stop-opacity:1;"/>
<stop offset="1" stop-color="#EA726A" style="stop-color:#EA726A;stop-color:color(display-p3 0.9176 0.4471 0.4157);stop-opacity:1;"/>
</radialGradient>
<clipPath id="clip0_268_24928">
<rect width="40" height="40.2759" fill="white" style="fill:white;fill-opacity:1;" transform="translate(0 6.86206)"/>
</clipPath>
</defs>
</svg>
