<svg width="14" height="8" viewBox="0 0 14 8" fill="none" xmlns="http://www.w3.org/2000/svg">
<path d="M1.23287 7.64054C0.867753 7.3287 0.673991 6.86092 0.711663 6.38224C0.745398 5.95361 0.992105 5.64417 1.11512 5.49722C1.25302 5.33252 1.44097 5.14462 1.63218 4.95346L5.74349 0.842155C5.82768 0.757893 5.92824 0.657259 6.0241 0.575881C6.13517 0.481587 6.30377 0.356041 6.53641 0.280453C6.83767 0.182567 7.16219 0.182567 7.46346 0.280454C7.69609 0.356041 7.86469 0.481587 7.97577 0.575881C8.07162 0.657254 8.17217 0.75788 8.25636 0.842139L12.3677 4.95351C12.5589 5.14465 12.7469 5.33253 12.8847 5.49723C13.0078 5.64417 13.2545 5.95361 13.2882 6.38225C13.3259 6.86092 13.1321 7.3287 12.767 7.64054C12.4401 7.91978 12.0468 7.96414 11.8559 7.98105C11.6419 8.00001 11.3762 7.99998 11.1058 7.99994H2.89407C2.62369 7.99998 2.35793 8.00001 2.14396 7.98105C1.95307 7.96414 1.55981 7.91978 1.23287 7.64054Z" fill="#2373E6" style="fill:#2373E6;fill:color(display-p3 0.1373 0.4510 0.9020);fill-opacity:1;"/>
</svg>
