<svg width="14" height="8" viewBox="0 0 14 8" fill="none" xmlns="http://www.w3.org/2000/svg">
<path d="M12.7671 0.359521C13.1322 0.671358 13.326 1.13914 13.2883 1.61782C13.2546 2.04646 13.0079 2.3559 12.8849 2.50284C12.747 2.66754 12.559 2.85544 12.3678 3.0466L8.25651 7.15791C8.17232 7.24217 8.07176 7.3428 7.9759 7.42418C7.86483 7.51847 7.69623 7.64402 7.46359 7.71961C7.16233 7.81749 6.83781 7.81749 6.53654 7.71961C6.30391 7.64402 6.13531 7.51847 6.02423 7.42418C5.92838 7.34281 5.82783 7.24218 5.74364 7.15792L1.63227 3.04655C1.44108 2.85541 1.25314 2.66753 1.11526 2.50283C0.992238 2.35589 0.745533 2.04645 0.711798 1.61781C0.674127 1.13914 0.86789 0.671357 1.233 0.359521C1.55995 0.0802821 1.9532 0.0359233 2.14409 0.0190075C2.35806 4.65866e-05 2.62382 8.56882e-05 2.8942 0.000125743L11.1059 0.000125743C11.3763 8.56882e-05 11.6421 4.65866e-05 11.856 0.0190075C12.0469 0.0359233 12.4402 0.0802821 12.7671 0.359521Z" fill="#2373E6" style="fill:#2373E6;fill:color(display-p3 0.1373 0.4510 0.9020);fill-opacity:1;"/>
</svg>
