<svg width="23" height="12" viewBox="0 0 23 12" fill="none" xmlns="http://www.w3.org/2000/svg">
<path d="M1.24991 7.04996C1.04991 6.84996 0.954081 6.61663 0.962414 6.34996C0.970747 6.0833 1.07491 5.84996 1.27491 5.64996C1.47491 5.46663 1.70825 5.3708 1.97491 5.36246C2.24158 5.35413 2.47491 5.44996 2.67491 5.64996L6.92491 9.89996C7.12491 10.1 7.22075 10.3333 7.21241 10.6C7.20408 10.8666 7.09991 11.1 6.89991 11.3C6.69991 11.4833 6.46658 11.5791 6.19991 11.5875C5.93325 11.5958 5.69991 11.5 5.49991 11.3L1.24991 7.04996ZM11.8499 9.17496L20.3499 0.674963C20.5499 0.474963 20.7832 0.37913 21.0499 0.387463C21.3166 0.395796 21.5499 0.499963 21.7499 0.699963C21.9332 0.899963 22.0291 1.1333 22.0374 1.39996C22.0457 1.66663 21.9499 1.89996 21.7499 2.09996L12.5499 11.3C12.3499 11.5 12.1166 11.6 11.8499 11.6C11.5832 11.6 11.3499 11.5 11.1499 11.3L6.89991 7.04996C6.71658 6.86663 6.62491 6.63746 6.62491 6.36246C6.62491 6.08746 6.71658 5.84996 6.89991 5.64996C7.09991 5.44996 7.33741 5.34996 7.61241 5.34996C7.88741 5.34996 8.12491 5.44996 8.32491 5.64996L11.8499 9.17496ZM16.0749 2.12496L12.5499 5.64996C12.3666 5.8333 12.1374 5.92496 11.8624 5.92496C11.5874 5.92496 11.3499 5.8333 11.1499 5.64996C10.9499 5.44996 10.8499 5.21246 10.8499 4.93746C10.8499 4.66246 10.9499 4.42496 11.1499 4.22496L14.6749 0.699963C14.8582 0.51663 15.0874 0.424963 15.3624 0.424963C15.6374 0.424963 15.8749 0.51663 16.0749 0.699963C16.2749 0.899963 16.3749 1.13746 16.3749 1.41246C16.3749 1.68746 16.2749 1.92496 16.0749 2.12496Z" fill="#1B068C" style="fill:#1B068C;fill:color(display-p3 0.1059 0.0235 0.5490);fill-opacity:1;"/>
</svg>
