<svg width="16" height="17" viewBox="0 0 16 17" fill="none" xmlns="http://www.w3.org/2000/svg">
<path d="M2.56655 6.24667C2.46925 5.80835 2.48419 5.35256 2.60999 4.92156C2.73579 4.49056 2.96838 4.0983 3.2862 3.78115C3.60401 3.464 3.99676 3.23223 4.42802 3.10733C4.85929 2.98243 5.31511 2.96844 5.75322 3.06667C5.99436 2.68953 6.32655 2.37917 6.71919 2.16419C7.11182 1.94921 7.55225 1.83652 7.99988 1.83652C8.44752 1.83652 8.88795 1.94921 9.28058 2.16419C9.67322 2.37917 10.0054 2.68953 10.2466 3.06667C10.6853 2.96802 11.1419 2.98194 11.5739 3.10714C12.0058 3.23235 12.3991 3.46476 12.7171 3.78277C13.0351 4.10078 13.2675 4.49405 13.3927 4.926C13.5179 5.35795 13.5319 5.81455 13.4332 6.25333C13.8104 6.49447 14.1207 6.82667 14.3357 7.2193C14.5507 7.61193 14.6634 8.05237 14.6634 8.5C14.6634 8.94763 14.5507 9.38807 14.3357 9.7807C14.1207 10.1733 13.8104 10.5055 13.4332 10.7467C13.5314 11.1848 13.5175 11.6406 13.3926 12.0719C13.2677 12.5031 13.0359 12.8959 12.7187 13.2137C12.4016 13.5315 12.0093 13.7641 11.5783 13.8899C11.1473 14.0157 10.6915 14.0306 10.2532 13.9333C10.0124 14.3119 9.67994 14.6236 9.28663 14.8395C8.89333 15.0555 8.4519 15.1687 8.00322 15.1687C7.55453 15.1687 7.1131 15.0555 6.7198 14.8395C6.3265 14.6236 5.99404 14.3119 5.75322 13.9333C5.31511 14.0316 4.85929 14.0176 4.42802 13.8927C3.99676 13.7678 3.60401 13.536 3.2862 13.2189C2.96838 12.9017 2.73579 12.5094 2.60999 12.0784C2.48419 11.6474 2.46925 11.1916 2.56655 10.7533C2.18652 10.5128 1.87349 10.1801 1.65658 9.78614C1.43967 9.39217 1.32593 8.94974 1.32593 8.5C1.32593 8.05026 1.43967 7.60783 1.65658 7.21386C1.87349 6.81988 2.18652 6.48717 2.56655 6.24667Z" stroke="#997B00" style="stroke:#997B00;stroke:color(display-p3 0.6007 0.4806 0.0000);stroke-opacity:1;" stroke-width="1.5" stroke-linecap="round" stroke-linejoin="round"/>
<path d="M6 8.5L7.33333 9.83333L10 7.16667" stroke="#997B00" style="stroke:#997B00;stroke:color(display-p3 0.6007 0.4806 0.0000);stroke-opacity:1;" stroke-width="1.5" stroke-linecap="round" stroke-linejoin="round"/>
</svg>
